<?xml version="1.0" standalone="no"?>
<!DOCTYPE svg PUBLIC "-//W3C//DTD SVG 20010904//EN"
 "http://www.w3.org/TR/2001/REC-SVG-20010904/DTD/svg10.dtd">
<svg version="1.0" xmlns="http://www.w3.org/2000/svg"
 width="1845.000000pt" height="1845.000000pt" viewBox="0 0 1845.000000 1845.000000"
 preserveAspectRatio="xMidYMid meet">
<metadata>
Created by potrace 1.14, written by Peter Selinger 2001-2017
</metadata>
<g transform="translate(0.000000,1845.000000) scale(0.100000,-0.100000)"
fill="#000000" stroke="none">
<path d="M6648 12455 c-3 -3 -32 -8 -64 -11 -33 -2 -70 -7 -84 -10 -14 -3 -44
-7 -68 -9 -24 -3 -47 -7 -51 -9 -4 -3 -21 -8 -37 -10 -60 -11 -71 -14 -110
-31 -21 -9 -39 -15 -39 -14 0 14 -211 -87 -246 -117 -8 -8 -19 -14 -22 -14
-18 0 -207 -181 -207 -198 0 -6 -4 -12 -8 -14 -4 -1 -26 -32 -48 -68 -72 -115
-125 -275 -142 -424 -9 -82 -8 -777 1 -843 24 -176 79 -304 194 -455 56 -74
205 -226 256 -263 16 -11 38 -28 50 -39 12 -10 40 -30 62 -44 22 -14 45 -30
52 -36 33 -29 41 -34 47 -29 3 4 6 1 6 -5 0 -7 7 -12 15 -12 8 0 15 -4 15 -10
0 -5 7 -10 15 -10 8 0 15 -4 15 -10 0 -5 7 -10 15 -10 8 0 15 -4 15 -9 0 -5 8
-11 18 -14 9 -4 37 -18 62 -33 137 -80 180 -104 190 -104 6 0 8 -4 5 -10 -3
-5 2 -10 12 -10 10 0 29 -9 43 -20 14 -11 31 -20 38 -20 6 0 12 -4 12 -9 0 -5
12 -14 28 -21 46 -19 72 -34 72 -42 0 -5 7 -8 15 -8 8 0 15 -4 15 -10 0 -5 5
-10 10 -10 15 0 176 -109 246 -166 129 -105 231 -222 279 -320 63 -126 66
-165 66 -666 0 -280 -4 -462 -10 -486 -16 -57 -112 -182 -141 -182 -5 0 -14
-8 -19 -17 -6 -10 -11 -13 -11 -8 0 6 -3 6 -8 -1 -7 -10 -141 -79 -152 -78 -3
1 -21 -6 -39 -14 -36 -14 -39 -15 -107 -27 -61 -11 -167 -13 -186 -3 -12 6
-18 5 -18 -2 0 -7 -6 -8 -18 -1 -10 5 -29 11 -43 13 -13 2 -30 7 -36 11 -7 5
-13 6 -13 3 0 -3 -19 1 -42 10 -169 64 -269 140 -320 244 -21 42 -23 61 -25
267 -2 232 -9 281 -48 348 -34 59 -109 123 -137 117 -5 -1 -8 3 -8 10 0 6 -3
8 -6 5 -4 -3 -14 -2 -24 3 -34 18 -89 23 -312 24 l-228 2 -1 -35 c-3 -142 1
-599 6 -631 3 -22 7 -59 11 -82 17 -136 99 -324 191 -439 46 -58 163 -165 227
-208 80 -54 137 -86 149 -83 4 1 7 -3 7 -10 0 -6 3 -9 6 -6 3 4 29 -4 57 -17
64 -28 89 -38 102 -40 6 0 17 -4 25 -8 14 -6 80 -23 128 -32 12 -3 34 -7 50
-10 15 -3 43 -7 62 -10 19 -2 50 -7 68 -10 18 -4 62 -7 97 -8 36 -1 65 -5 65
-9 0 -4 14 -3 30 2 17 5 30 5 30 1 0 -9 55 -5 71 4 5 4 9 1 9 -5 0 -7 8 -9 21
-5 12 4 56 9 98 11 74 3 93 5 196 20 53 8 63 10 68 14 3 2 37 9 76 14 19 3 37
10 41 16 4 7 10 11 14 10 16 -4 86 13 86 21 0 5 3 8 8 7 13 -3 67 15 90 30 12
8 22 10 22 6 0 -5 4 -4 8 1 4 6 25 19 47 30 22 10 59 32 82 47 23 15 46 28 51
28 6 0 12 3 14 8 2 4 23 24 48 44 121 98 183 177 271 341 22 40 62 165 75 231
14 72 17 182 18 556 1 460 -5 549 -48 685 -74 231 -305 517 -585 725 -19 14
-40 31 -47 38 -7 6 -17 12 -22 12 -6 0 -12 4 -14 8 -2 7 -128 93 -203 139 -81
50 -183 109 -197 115 -10 4 -18 12 -18 18 0 5 -8 10 -17 10 -9 0 -24 6 -32 13
-29 25 -228 147 -239 147 -5 0 -12 7 -16 15 -3 8 -12 15 -21 15 -8 0 -15 5
-15 10 0 6 -7 10 -15 10 -8 0 -15 4 -15 8 0 5 -12 15 -27 23 -16 7 -38 24 -50
36 -12 13 -25 23 -28 23 -13 0 -84 58 -78 64 3 3 0 6 -8 6 -22 0 -151 139
-177 190 -12 25 -26 65 -30 90 -4 25 -7 221 -7 435 1 431 0 422 68 495 54 59
214 148 255 141 6 -1 12 2 12 7 0 5 6 9 13 10 48 4 77 9 81 13 3 2 27 4 55 3
28 0 51 3 51 8 0 5 5 6 12 2 6 -4 32 -9 57 -11 69 -5 147 -23 216 -49 11 -4
23 -6 28 -6 4 1 7 -2 7 -8 0 -5 9 -10 20 -10 11 0 20 -4 20 -8 0 -5 12 -15 28
-23 32 -17 38 -22 78 -74 46 -59 54 -100 54 -300 0 -194 8 -241 55 -322 14
-24 44 -61 66 -82 41 -41 175 -115 190 -105 5 3 9 1 9 -5 0 -5 13 -8 30 -6 16
2 32 0 34 -3 3 -5 312 -7 384 -3 19 1 15 634 -5 751 -25 149 -79 286 -161 408
-42 64 -151 175 -213 217 -24 17 -45 33 -47 38 -2 4 -10 7 -18 7 -8 0 -14 4
-14 8 0 4 -16 14 -35 21 -19 7 -35 17 -35 22 0 5 -8 9 -18 9 -10 0 -27 7 -38
15 -12 8 -24 11 -28 8 -3 -3 -6 -1 -6 5 0 7 -8 12 -18 12 -10 0 -23 5 -30 12
-7 7 -12 9 -12 5 0 -4 -9 -3 -21 3 -11 6 -28 13 -37 15 -54 13 -109 28 -122
32 -20 8 -27 9 -75 17 -22 4 -56 9 -75 13 -19 3 -57 7 -85 8 -27 2 -50 4 -50
5 0 7 -258 3 -262 -4 -3 -4 -9 -3 -12 3 -4 6 -10 9 -13 6z"/>
<path d="M16818 12454 c-4 -3 -28 -7 -55 -10 -26 -2 -66 -7 -88 -10 -22 -4
-52 -7 -67 -8 -16 -1 -28 -4 -28 -7 0 -3 -6 -6 -12 -6 -82 -3 -356 -102 -380
-138 -4 -5 -8 -7 -8 -3 0 4 -19 -6 -42 -23 -24 -16 -54 -37 -68 -46 -49 -34
-177 -170 -201 -215 -6 -12 -15 -25 -19 -28 -32 -22 -121 -257 -135 -356 -3
-23 -8 -59 -12 -80 -9 -60 -10 -773 -1 -822 4 -24 10 -58 12 -75 26 -180 135
-369 315 -547 100 -99 147 -140 160 -140 5 0 11 -4 13 -8 2 -4 26 -23 53 -42
28 -19 52 -37 55 -40 5 -6 52 -37 82 -55 9 -5 70 -43 136 -82 65 -40 124 -73
131 -73 6 0 11 -3 11 -7 0 -5 24 -19 53 -33 28 -14 56 -31 60 -37 4 -7 14 -13
22 -13 7 0 20 -6 27 -13 7 -7 24 -18 38 -25 30 -14 29 -14 193 -121 70 -46
139 -95 153 -108 14 -12 27 -23 30 -23 15 0 204 -206 233 -254 48 -81 81 -178
89 -265 4 -42 7 -266 6 -498 l-1 -422 -26 -53 c-23 -46 -127 -172 -127 -154 0
4 -15 -4 -32 -17 -37 -28 -158 -89 -158 -80 0 3 -6 1 -12 -5 -7 -5 -29 -13
-48 -18 -19 -4 -42 -9 -50 -11 -91 -22 -213 -22 -315 1 -11 2 -21 5 -22 6 -2
2 -6 3 -10 4 -42 9 -103 32 -103 40 0 5 -3 7 -6 3 -7 -6 -82 30 -102 50 -7 7
-17 13 -22 13 -17 0 -110 105 -131 149 -20 43 -22 63 -24 276 -3 255 -11 295
-69 372 -27 36 -92 86 -114 89 -4 0 -18 5 -32 11 -47 19 -95 26 -215 29 -66 1
-122 3 -125 4 -3 1 -9 1 -15 0 -5 -2 -50 -3 -100 -4 l-90 -1 0 -335 c0 -184 3
-360 7 -390 26 -194 130 -403 272 -543 72 -71 113 -107 123 -107 4 0 16 -8 27
-19 12 -10 41 -29 66 -42 25 -13 48 -28 51 -32 3 -5 8 -8 10 -7 2 1 29 -9 59
-23 31 -13 74 -30 95 -37 22 -7 45 -15 50 -19 6 -3 17 -6 25 -7 8 0 22 -3 30
-7 16 -6 66 -18 90 -22 8 -2 33 -6 55 -10 22 -4 49 -9 60 -11 11 -1 20 -3 20
-4 0 -2 101 -11 148 -13 20 -1 37 -5 37 -8 0 -4 12 -4 28 0 15 5 36 5 47 1 11
-4 26 -3 33 2 8 7 12 7 12 1 0 -6 12 -9 28 -7 15 1 70 6 122 9 52 3 106 8 120
10 14 2 48 6 75 10 28 4 59 9 70 12 11 3 27 6 35 7 26 5 74 17 90 23 8 4 22 7
30 8 15 2 40 10 75 26 11 4 27 10 35 11 29 6 223 109 274 146 88 64 176 145
176 162 0 6 4 10 8 10 15 0 99 125 141 210 45 92 76 203 89 319 10 85 8 935
-2 1001 -21 133 -73 269 -146 379 -19 29 -39 61 -45 70 -5 9 -16 20 -22 24 -7
4 -13 12 -13 18 0 27 -228 255 -355 356 -141 111 -368 263 -417 280 -10 3 -18
9 -18 14 0 5 -7 9 -15 9 -8 0 -15 5 -15 12 0 6 -3 9 -6 5 -3 -3 -24 8 -47 24
-22 16 -46 29 -54 29 -7 0 -13 4 -13 9 0 5 -13 14 -30 21 -16 7 -30 16 -30 21
0 5 -3 8 -7 7 -11 -2 -73 35 -73 45 0 4 -5 7 -11 7 -6 0 -30 14 -54 30 -24 17
-48 30 -54 30 -6 0 -11 5 -11 10 0 6 -7 10 -15 10 -8 0 -15 4 -15 8 0 4 -15
16 -32 27 -18 10 -45 28 -59 39 -15 12 -37 29 -50 38 -156 111 -270 248 -287
341 -3 18 -5 212 -5 432 0 387 0 401 21 440 27 53 106 133 125 127 4 -1 7 2 7
7 0 5 16 15 35 22 19 7 35 17 35 23 0 5 3 6 7 3 3 -4 11 -3 17 2 13 11 91 34
161 47 59 12 267 8 290 -5 6 -3 19 -7 30 -8 11 -2 27 -6 35 -10 8 -3 20 -7 25
-7 40 -5 137 -61 188 -109 15 -15 39 -48 52 -75 23 -45 24 -59 26 -247 2 -209
5 -228 45 -311 21 -44 104 -147 104 -129 0 3 10 -3 22 -15 12 -11 28 -20 35
-20 7 0 13 -4 13 -9 0 -8 30 -22 55 -25 6 -1 15 -4 20 -8 21 -13 128 -21 300
-21 l180 0 2 339 c1 186 -3 364 -8 394 -10 60 -28 136 -37 160 -3 8 -6 17 -7
20 -18 73 -77 188 -138 270 -79 107 -226 233 -314 269 -18 7 -33 18 -33 23 0
5 -4 6 -10 3 -5 -3 -10 -1 -10 4 0 6 -9 11 -19 11 -11 0 -23 5 -26 10 -4 6
-11 8 -16 5 -5 -4 -9 -2 -9 4 0 9 -56 27 -72 23 -5 -1 -8 3 -8 10 0 6 -3 8 -7
5 -3 -4 -11 -3 -17 2 -6 6 -23 12 -36 14 -14 2 -32 7 -41 11 -9 4 -27 8 -40
10 -13 1 -31 5 -39 9 -15 6 -73 16 -120 20 -14 1 -29 5 -35 8 -5 3 -38 5 -72
5 -35 -1 -63 1 -63 4 0 3 -43 5 -95 5 -52 0 -95 -3 -95 -8 0 -4 -8 -3 -18 2
-11 6 -24 6 -32 1 -9 -5 -17 -5 -20 1 -4 5 -9 7 -12 3z"/>
<path d="M11748 12427 c-31 -13 -60 -26 -64 -30 -4 -4 -16 -7 -26 -7 -10 0
-18 -3 -18 -7 0 -5 -21 -16 -46 -27 -24 -10 -50 -23 -57 -30 -7 -6 -28 -20
-47 -30 -34 -20 -47 -28 -75 -53 -7 -7 -16 -13 -19 -13 -9 0 -59 -45 -138
-123 -65 -65 -149 -171 -196 -247 -52 -87 -126 -258 -148 -345 -4 -16 -8 -32
-9 -35 -1 -3 -5 -21 -8 -40 -4 -19 -10 -48 -13 -65 -3 -16 -8 -93 -10 -171 -7
-258 59 -503 194 -724 25 -39 28 -25 13 45 -20 88 -30 391 -17 485 3 19 8 60
11 91 10 105 63 337 95 414 4 11 18 47 31 80 51 135 196 396 271 490 33 41 48
59 87 105 52 61 146 156 215 218 55 48 53 49 -26 19z"/>
<path d="M2010 12393 c0 -4 -28 -8 -62 -8 l-63 0 1 -145 c0 -182 7 -230 40
-298 32 -64 117 -151 173 -177 l40 -18 0 -2066 c0 -1291 -4 -2080 -10 -2102
-7 -27 -28 -53 -77 -95 -88 -77 -96 -88 -133 -164 -31 -62 -32 -69 -34 -210
-1 -80 -1 -149 1 -155 3 -7 203 -9 577 -8 314 1 575 2 580 2 11 1 8 269 -4
321 -18 77 -106 194 -181 238 -15 9 -35 32 -44 51 -16 33 -17 150 -17 1458 0
783 3 1426 6 1429 3 3 30 -73 62 -168 31 -95 79 -240 106 -323 28 -82 52 -157
54 -165 2 -8 29 -91 60 -185 116 -352 259 -786 420 -1280 336 -1024 404 -1224
435 -1284 46 -90 72 -97 371 -96 304 2 323 7 370 110 18 38 18 127 19 2350 0
1647 3 2321 11 2350 8 29 32 60 85 113 139 138 161 192 157 393 -2 63 -4 119
-5 125 -1 11 -28 15 -28 5 0 -10 -65 -7 -72 4 -5 7 -8 7 -8 0 0 -6 -28 -10
-65 -10 -36 0 -65 4 -65 8 0 5 -5 5 -11 2 -14 -10 -103 -10 -117 -1 -7 4 -12
4 -12 -1 0 -9 -200 -9 -224 0 -9 4 -16 3 -16 -1 0 -4 -23 -7 -50 -7 -28 0 -50
3 -50 7 0 4 -10 4 -22 0 -29 -9 -59 -8 -76 1 -6 5 -12 4 -12 0 0 -12 -64 -10
-72 2 -5 7 -8 7 -8 0 0 -11 -50 -12 -68 -1 -7 4 -12 4 -12 -1 0 -4 -16 -8 -35
-8 -19 0 -35 5 -35 10 0 7 -3 7 -8 0 -4 -5 -27 -10 -52 -10 l-45 0 0 -120 c-1
-136 15 -223 50 -276 13 -20 62 -75 108 -121 60 -60 86 -94 90 -117 4 -19 7
-693 7 -1499 0 -1249 -2 -1464 -14 -1447 -7 11 -35 88 -61 170 -25 83 -53 168
-60 190 -8 22 -37 114 -65 205 -29 91 -65 208 -82 260 -16 52 -31 100 -32 105
-1 6 -9 33 -18 60 -19 57 -91 287 -93 295 -4 15 -53 173 -90 290 -149 464
-223 696 -357 1110 -184 572 -213 660 -232 730 -33 112 -88 162 -182 165 -28
1 -56 5 -63 9 -6 4 -11 3 -11 -1 0 -12 -64 -10 -72 2 -5 7 -8 7 -8 0 0 -11
-50 -12 -68 -1 -7 4 -12 3 -12 -1 0 -12 -64 -10 -72 2 -5 7 -8 7 -8 0 0 -11
-50 -12 -68 -1 -7 4 -12 3 -12 -1 0 -12 -64 -10 -72 2 -5 7 -8 7 -8 0 0 -6
-28 -10 -65 -10 -36 0 -65 4 -65 8 0 5 -5 5 -11 2 -14 -10 -103 -10 -117 -1
-7 4 -12 4 -12 -1z"/>
<path d="M254 12382 l-31 -3 2 -142 c1 -150 10 -194 53 -261 26 -41 102 -121
141 -146 12 -8 30 -28 39 -45 16 -28 17 -190 18 -2110 1 -1672 -1 -2086 -11
-2112 -14 -32 -50 -75 -58 -67 -8 8 -127 -117 -146 -154 -29 -58 -35 -96 -36
-252 l-1 -145 623 0 c616 0 623 0 624 20 4 88 1 247 -5 280 -17 87 -60 147
-195 270 -18 17 -37 40 -42 53 -10 26 -13 4131 -3 4181 7 32 46 80 97 118 47
36 107 116 128 173 16 44 21 81 22 188 1 74 -1 138 -4 144 -7 11 -770 15 -788
4 -6 -4 -11 -4 -11 1 0 10 -213 9 -229 -1 -6 -4 -11 -4 -11 1 0 8 -114 11
-176 5z"/>
<path d="M12275 12211 c-2 -1 -19 -5 -37 -7 -18 -2 -44 -6 -58 -9 -14 -3 -34
-7 -46 -9 -11 -2 -25 -6 -31 -9 -5 -3 -23 -9 -39 -12 -45 -9 -77 -20 -106 -36
-10 -5 -25 -9 -33 -9 -8 0 -15 -4 -15 -10 0 -5 -7 -10 -16 -10 -8 0 -34 -11
-57 -24 -74 -41 -122 -70 -127 -76 -3 -3 -23 -18 -45 -34 -66 -47 -187 -176
-238 -253 -160 -240 -218 -532 -164 -813 22 -109 95 -324 97 -285 0 6 2 58 4
116 2 59 6 115 9 125 3 11 8 42 12 69 13 107 68 305 117 415 53 121 154 289
231 385 46 57 232 242 266 265 13 8 35 25 49 38 15 12 39 28 54 34 15 7 24 16
22 20 -3 4 1 8 8 8 7 0 33 14 57 30 24 16 70 42 102 57 32 16 59 31 59 34 0 7
-69 7 -75 0z"/>
<path d="M12890 12185 c0 -6 -24 -11 -52 -12 -71 -2 -119 -9 -208 -30 -41 -9
-77 -17 -80 -18 -3 0 -11 -4 -17 -8 -7 -5 -17 -6 -22 -3 -5 4 -11 1 -13 -4 -2
-6 -16 -13 -31 -16 -28 -5 -167 -63 -177 -74 -3 -3 -21 -13 -40 -24 -77 -41
-103 -58 -167 -108 -238 -185 -402 -429 -478 -713 -34 -128 -36 -143 -42 -315
-5 -138 -1 -181 12 -124 14 66 107 265 200 429 34 61 141 210 198 277 47 55
179 190 223 228 92 79 258 199 317 229 15 8 27 18 27 23 0 5 4 7 8 4 5 -3 19
2 32 11 31 22 160 84 235 112 33 13 74 29 90 37 17 7 42 15 55 17 14 3 37 10
53 16 33 13 94 27 131 30 14 1 -2 14 -22 19 -9 2 -62 4 -117 5 -55 1 -103 7
-107 12 -5 7 -8 7 -8 0z"/>
<path d="M10987 12080 c-78 -54 -193 -159 -255 -234 -86 -103 -176 -276 -211
-408 -68 -252 -38 -534 81 -755 17 -32 36 -68 42 -80 6 -13 14 -23 19 -23 4 0
7 -5 7 -11 0 -24 125 -168 216 -249 77 -69 80 -69 42 0 -81 149 -152 370 -183
570 -13 83 -14 390 -2 455 29 151 42 203 78 308 22 67 45 124 50 125 5 2 9 9
9 15 0 34 161 307 194 329 6 4 8 9 5 12 -3 4 -45 -21 -92 -54z"/>
<path d="M10470 12090 c-8 -6 -11 -10 -7 -10 4 0 -8 -15 -28 -32 -19 -18 -35
-39 -35 -45 0 -7 -4 -13 -9 -13 -14 0 -112 -151 -155 -237 -113 -227 -158
-470 -132 -723 5 -41 10 -82 11 -90 48 -241 143 -443 289 -615 70 -82 197
-205 212 -205 3 0 11 -6 18 -12 8 -7 24 -20 36 -28 12 -8 28 -21 36 -27 7 -7
16 -13 19 -13 4 0 20 -9 36 -21 29 -20 42 -12 15 10 -54 45 -198 295 -297 516
-14 31 -77 227 -83 255 -2 14 -9 45 -15 70 -51 227 -62 514 -26 750 21 138 85
371 122 443 16 33 14 40 -7 27z"/>
<path d="M12967 11823 c-1 -1 -31 -4 -67 -7 -69 -6 -80 -8 -150 -25 -25 -7
-56 -14 -69 -17 -14 -3 -28 -7 -33 -10 -4 -3 -18 -7 -30 -9 -12 -3 -25 -10
-30 -17 -4 -7 -8 -10 -8 -5 0 4 -13 1 -30 -8 -16 -9 -30 -13 -30 -10 0 4 -7
-1 -16 -9 -8 -9 -22 -16 -30 -16 -8 0 -14 -5 -14 -11 0 -5 -4 -7 -10 -4 -5 3
-10 1 -10 -4 0 -6 -5 -11 -11 -11 -12 0 -115 -72 -164 -114 -16 -14 -33 -26
-37 -26 -5 0 -8 -4 -8 -8 0 -5 -21 -32 -47 -60 -27 -27 -56 -61 -66 -74 -21
-26 -112 -179 -112 -187 -1 -3 -6 -15 -12 -26 -40 -73 -89 -262 -99 -380 l-5
-60 30 58 c25 47 102 168 142 222 28 37 171 196 204 227 69 63 86 77 180 148
22 16 45 34 51 39 7 6 15 7 18 4 3 -4 6 -2 6 3 0 5 30 25 68 44 37 19 70 39
73 43 3 5 12 9 20 11 8 1 33 12 55 24 23 11 44 18 48 15 3 -4 6 0 6 7 0 7 3
10 7 7 3 -4 11 -3 17 2 11 8 112 45 131 47 6 0 21 6 35 11 14 6 28 9 33 6 4
-2 7 0 7 4 0 5 8 9 18 9 9 1 28 4 42 7 78 19 138 29 195 32 22 2 40 4 40 5 0
1 46 3 103 5 56 1 101 6 100 11 -2 5 -6 8 -10 7 -5 -2 -8 2 -8 9 0 6 -3 9 -6
5 -4 -3 -20 1 -36 9 -17 9 -42 18 -57 20 -14 3 -33 7 -41 11 -8 3 -23 7 -32 8
-10 2 -19 3 -20 5 -5 3 -41 10 -78 14 -19 2 -35 5 -35 6 0 5 -214 18 -218 13z"/>
<path d="M13326 11572 c-4 -3 -21 -7 -39 -8 -55 -2 -148 -15 -172 -24 -13 -5
-25 -7 -27 -4 -4 4 -44 -7 -88 -23 -8 -3 -20 -7 -27 -9 -36 -7 -121 -39 -143
-53 -13 -9 -27 -16 -30 -15 -13 2 -40 -9 -40 -17 0 -5 -9 -9 -20 -9 -11 0 -20
-4 -20 -8 0 -5 -16 -14 -35 -22 -19 -8 -35 -17 -35 -22 0 -4 -6 -8 -13 -8 -8
0 -22 -9 -32 -20 -10 -11 -24 -20 -32 -20 -7 0 -13 -4 -13 -8 0 -4 -13 -15
-28 -24 -26 -16 -159 -143 -213 -204 -37 -42 -119 -162 -119 -174 0 -5 -3 -10
-7 -10 -8 0 -19 -19 -60 -110 l-25 -55 51 52 c28 29 51 49 51 45 0 -4 4 -2 8
3 11 15 109 95 116 95 7 0 20 10 51 38 7 6 18 12 24 12 6 0 11 3 11 8 0 4 17
16 37 27 20 11 41 25 47 30 14 14 82 52 119 66 15 6 27 15 27 20 0 5 5 9 10 9
6 0 39 13 73 29 34 16 65 30 69 30 4 1 20 8 35 16 14 8 30 12 35 9 4 -3 8 0 8
5 0 6 6 11 14 11 8 0 27 5 43 11 15 6 29 10 31 10 1 -1 18 6 38 14 20 8 40 12
45 9 5 -3 9 -1 9 3 0 8 15 12 58 15 6 1 12 5 12 9 0 4 8 8 18 7 9 0 29 3 45 6
48 10 81 17 112 21 17 3 41 7 55 10 153 31 559 22 715 -16 22 -5 54 -11 70
-13 17 -1 41 -8 55 -16 l25 -13 -24 27 c-14 14 -30 26 -38 26 -7 0 -13 5 -13
11 0 5 -4 7 -10 4 -5 -3 -10 -2 -10 4 0 5 -9 12 -19 16 -11 3 -36 17 -55 30
-20 13 -36 23 -36 20 0 -2 -28 9 -63 25 -58 26 -180 69 -210 74 -6 1 -18 5
-24 9 -7 5 -13 6 -13 3 0 -2 -26 2 -57 9 -62 14 -69 15 -180 18 -40 1 -73 6
-73 10 0 4 -8 3 -18 -2 -10 -5 -24 -6 -33 0 -9 4 -19 5 -23 1z"/>
<path d="M9935 11418 c-143 -280 -178 -546 -109 -823 8 -33 20 -73 26 -90 18
-51 82 -180 90 -183 4 -2 8 -8 8 -13 0 -9 12 -28 60 -93 16 -22 177 -183 201
-201 56 -43 141 -95 154 -95 8 0 18 -6 21 -14 3 -8 17 -17 31 -21 14 -3 44
-15 67 -25 56 -27 126 -50 126 -43 0 3 6 1 13 -5 13 -11 77 -27 91 -24 4 2 14
-3 22 -9 10 -9 14 -9 14 0 0 6 -19 24 -43 39 -23 15 -49 33 -57 39 -8 7 -37
32 -65 55 -258 218 -450 497 -544 790 -38 122 -48 162 -68 293 -10 65 -9 352
0 433 5 34 6 62 3 62 -2 0 -21 -33 -41 -72z"/>
<path d="M9456 11136 c-39 -158 -50 -313 -32 -477 8 -68 15 -107 37 -194 17
-69 80 -222 123 -299 74 -132 223 -308 325 -384 20 -15 38 -29 41 -33 3 -3 32
-23 65 -45 90 -58 98 -63 120 -73 11 -5 48 -22 83 -39 34 -17 62 -28 62 -25 0
3 6 1 13 -4 10 -8 48 -22 77 -27 3 -1 10 -4 15 -8 11 -6 122 -31 143 -31 6 0
12 -3 12 -6 0 -3 12 -7 28 -7 65 -3 104 -9 108 -16 7 -11 24 0 24 15 0 11 -92
61 -106 57 -4 -1 -10 2 -13 7 -3 5 -31 24 -61 43 -30 19 -56 38 -58 42 -2 5
-10 8 -17 8 -8 0 -20 6 -27 13 -7 7 -26 21 -43 31 -16 11 -34 23 -40 28 -5 5
-31 24 -57 42 -26 18 -45 36 -41 40 3 3 1 6 -5 6 -27 0 -231 203 -312 310 -14
18 -30 38 -35 44 -32 33 -151 226 -200 323 -107 215 -177 443 -201 658 -3 33
-7 61 -9 63 -1 1 -10 -26 -19 -62z"/>
<path d="M13350 11190 c0 -3 -24 -6 -53 -7 -95 -4 -127 -8 -127 -17 0 -5 -3
-7 -6 -3 -3 3 -25 0 -49 -8 -24 -7 -46 -10 -49 -7 -4 3 -6 0 -6 -6 0 -7 -3
-11 -7 -11 -19 4 -73 -15 -73 -24 0 -6 -3 -7 -7 -4 -3 4 -12 2 -20 -4 -7 -6
-13 -8 -13 -4 0 5 -8 1 -17 -8 -10 -8 -22 -16 -28 -17 -5 0 -26 -11 -45 -22
-19 -12 -38 -21 -42 -20 -5 1 -8 -2 -8 -8 0 -5 -7 -10 -15 -10 -8 0 -15 -4
-15 -8 0 -4 -15 -16 -32 -27 -18 -10 -41 -27 -50 -38 -10 -11 -18 -17 -18 -13
0 9 -138 -132 -170 -173 -14 -18 -30 -38 -35 -44 -30 -34 -56 -79 -52 -90 4
-9 6 -9 6 1 1 6 6 12 11 12 6 0 20 8 31 18 10 11 59 39 107 63 48 24 90 48 93
52 3 5 10 9 15 9 23 2 44 11 44 18 0 5 15 12 33 15 17 4 35 12 38 16 3 5 15
11 27 14 11 2 52 15 91 29 39 14 71 23 71 20 0 -4 7 0 17 7 9 8 18 13 20 12 1
-2 5 -2 8 -2 3 1 8 2 13 3 4 1 27 6 52 11 52 10 59 12 63 14 2 2 69 10 127 14
20 2 41 6 47 10 6 4 15 3 18 -3 4 -7 11 -7 18 -2 18 13 279 4 374 -13 25 -4
71 -13 153 -31 14 -2 34 -8 45 -11 11 -4 25 -8 30 -9 6 -1 42 -12 80 -25 39
-13 73 -22 78 -21 4 1 7 -2 7 -8 0 -5 9 -10 20 -10 11 0 20 -4 20 -10 0 -5 11
-10 24 -10 13 0 26 -3 28 -7 4 -10 108 -65 108 -58 0 19 -213 228 -223 219 -2
-2 -17 9 -33 24 -16 15 -34 29 -39 31 -6 2 -19 9 -30 16 -11 7 -35 19 -52 26
-18 8 -33 17 -33 21 0 5 -6 8 -13 8 -7 0 -31 9 -53 19 -44 22 -154 58 -197 65
-15 3 -36 7 -46 11 -11 3 -45 8 -78 10 -32 2 -58 5 -58 6 0 0 -28 2 -62 3 -35
1 -63 -1 -63 -4z"/>
<path d="M13385 10822 c-2 -3 -24 -6 -47 -8 -24 -2 -54 -5 -68 -7 -55 -9 -146
-29 -160 -34 -8 -4 -17 -7 -20 -8 -3 0 -30 -9 -60 -20 -30 -11 -57 -19 -60
-20 -10 -1 -185 -89 -190 -95 -3 -3 -26 -19 -52 -35 -27 -17 -48 -34 -48 -38
0 -5 -5 -5 -10 -2 -6 3 -13 -1 -16 -9 -3 -9 -12 -16 -19 -16 -7 0 -16 -7 -19
-16 -5 -14 -4 -15 9 -4 8 7 15 9 15 5 0 -4 7 -2 15 5 8 7 15 10 15 6 0 -3 11
-1 25 4 14 5 36 12 48 14 12 3 33 7 47 11 14 3 39 7 55 10 17 2 39 6 50 8 24
6 130 19 165 21 14 1 30 4 35 7 19 10 455 0 455 -10 0 -4 17 -7 38 -8 20 -1
55 -5 77 -8 22 -4 49 -8 60 -10 11 -2 20 -4 20 -5 0 -3 41 -12 63 -13 12 0 22
-4 22 -8 0 -4 8 -8 18 -7 9 0 49 -10 87 -22 39 -11 77 -23 85 -25 8 -2 33 -11
55 -20 48 -21 77 -32 87 -34 13 -3 221 -111 263 -137 22 -13 47 -27 55 -31 8
-4 17 -9 20 -13 3 -3 18 -14 35 -24 16 -11 34 -23 40 -28 5 -4 37 -29 70 -55
33 -26 62 -50 65 -53 3 -3 14 -12 25 -20 15 -12 14 -5 -9 35 -106 186 -199
295 -381 443 -6 5 -24 17 -40 27 -17 10 -40 28 -52 39 -13 11 -23 16 -23 12 0
-4 -17 5 -37 19 -21 14 -43 25 -50 25 -7 0 -13 5 -13 10 0 6 -3 9 -7 8 -8 -1
-40 11 -98 37 -26 12 -70 27 -85 30 -3 0 -21 6 -40 13 -19 6 -46 14 -60 16
-14 3 -25 5 -25 6 0 2 -34 9 -65 14 -14 2 -25 5 -25 6 0 8 -332 19 -340 12z"/>
<path d="M13337 10454 c-4 -4 -21 -8 -39 -8 -18 -1 -39 -5 -46 -10 -6 -4 -12
-5 -12 -3 0 5 -76 -12 -125 -27 -5 -2 -25 -7 -42 -11 -18 -4 -33 -12 -33 -17
0 -5 -4 -7 -9 -4 -4 3 -30 -5 -57 -18 -27 -13 -70 -33 -96 -45 -70 -32 -71
-44 -1 -35 32 4 77 8 101 8 23 0 42 4 42 9 0 6 5 6 13 0 6 -4 63 -8 124 -8 62
0 113 -2 113 -5 0 -3 17 -6 38 -6 20 -1 57 -4 82 -8 25 -4 55 -8 67 -9 12 -2
25 -6 29 -10 4 -4 18 -7 31 -7 14 0 32 -4 41 -9 9 -5 31 -11 48 -14 17 -3 41
-10 53 -16 11 -7 21 -9 21 -5 0 3 6 1 13 -5 8 -6 22 -12 33 -14 46 -9 304
-135 304 -149 0 -5 4 -7 8 -4 5 3 20 -6 35 -20 15 -14 27 -22 27 -19 0 5 55
-33 87 -60 6 -5 26 -21 45 -35 42 -32 205 -195 238 -238 14 -18 37 -48 52 -65
15 -18 28 -36 28 -40 0 -5 7 -16 16 -25 15 -15 16 -13 9 19 -16 71 -65 210
-101 281 -80 159 -182 286 -314 389 -41 33 -81 64 -87 70 -7 5 -13 6 -13 2 0
-4 -4 -3 -8 2 -11 17 -168 95 -176 88 -3 -3 -6 -1 -6 5 0 7 -3 11 -7 10 -5 -1
-33 6 -63 15 -30 10 -64 20 -75 22 -11 2 -20 4 -20 5 0 1 -16 3 -35 6 -42 5
-75 12 -75 14 0 8 -227 4 -232 -3 -3 -5 -8 -4 -12 2 -4 6 -10 8 -14 5z"/>
<path d="M9311 10313 c3 -204 57 -400 154 -561 25 -41 45 -76 45 -78 0 -5 42
-54 105 -123 60 -64 161 -147 230 -186 28 -16 53 -34 57 -40 4 -5 8 -7 8 -3 0
4 23 -4 51 -18 28 -15 56 -27 63 -29 11 -2 17 -4 61 -21 11 -4 31 -9 45 -11
14 -2 32 -6 40 -10 24 -10 52 -15 92 -16 21 -1 38 -5 38 -8 0 -3 68 -6 150 -6
83 0 150 3 150 6 0 4 12 6 28 5 15 0 43 3 62 8 19 5 46 11 60 13 14 1 26 4 28
5 1 1 7 4 12 5 6 1 13 4 18 5 4 1 12 1 17 0 6 -1 6 2 2 6 -4 4 -22 9 -40 10
-18 1 -54 6 -82 10 -27 4 -58 7 -67 8 -10 0 -18 3 -18 7 0 3 -19 10 -42 15
-56 10 -62 11 -70 14 -10 3 -15 4 -53 15 -16 4 -50 16 -75 25 -65 26 -84 33
-91 34 -5 1 -63 28 -99 47 -8 4 -43 22 -77 40 -35 17 -63 37 -63 42 0 6 -3 7
-6 4 -6 -5 -58 25 -74 43 -3 3 -23 17 -45 32 -91 60 -260 223 -335 323 -25 33
-48 62 -51 65 -3 3 -33 50 -66 105 -56 95 -72 126 -109 213 -9 20 -20 45 -25
54 -5 10 -9 27 -9 37 0 11 -5 23 -10 26 -8 5 -10 -31 -9 -112z"/>
<path d="M13105 10112 c-2 -3 -22 -6 -44 -8 -21 -2 -52 -6 -68 -9 -15 -4 -34
-7 -40 -7 -18 -2 -5 -13 15 -14 10 0 40 -4 67 -9 28 -5 53 -8 58 -7 4 1 7 -3
7 -10 0 -6 3 -9 6 -5 3 3 27 -1 52 -9 26 -8 54 -17 62 -19 8 -2 16 -4 18 -5 1
-2 6 -3 11 -4 5 0 13 -4 17 -8 4 -5 17 -8 28 -8 12 0 32 -7 44 -16 12 -8 22
-13 22 -9 0 3 14 -1 30 -10 17 -9 30 -13 30 -10 0 3 20 -6 45 -20 25 -13 48
-25 50 -24 19 1 267 -138 273 -153 2 -4 8 -8 13 -8 12 0 123 -80 127 -92 2 -4
8 -8 14 -8 5 0 15 -6 22 -12 8 -7 37 -33 67 -58 106 -90 190 -179 314 -335 79
-99 157 -237 273 -485 10 -20 11 -7 7 70 -7 129 -13 172 -35 260 -40 155 -98
291 -175 406 -25 37 -45 68 -45 70 0 13 -206 226 -255 264 -42 32 -160 108
-169 108 -5 0 -12 4 -15 9 -8 11 -84 49 -85 43 -1 -3 -14 4 -31 16 -23 15
-102 46 -155 59 -3 1 -25 7 -50 15 -25 7 -52 14 -60 16 -8 1 -28 5 -44 9 -16
3 -52 8 -80 10 -28 2 -53 5 -56 6 -10 4 -261 5 -265 1z"/>
<path d="M9000 9872 c0 -7 14 -56 31 -109 109 -343 364 -637 689 -796 41 -20
77 -37 80 -36 3 0 18 -6 34 -15 16 -8 33 -13 38 -10 4 3 8 0 8 -7 0 -7 3 -9 7
-6 3 4 11 3 17 -2 10 -7 33 -14 131 -38 11 -2 36 -7 55 -9 19 -3 39 -9 46 -15
8 -7 14 -6 19 1 3 6 12 7 18 3 23 -15 198 -19 312 -8 44 5 90 9 103 9 12 1 22
4 22 8 0 3 8 5 18 4 9 -2 35 3 57 10 22 6 63 19 92 28 28 9 64 21 80 28 15 6
30 12 33 13 3 1 21 8 40 17 34 16 32 16 -90 16 -69 0 -152 3 -185 6 -80 7
-154 15 -185 20 -14 2 -44 7 -68 11 -55 9 -77 13 -77 15 0 1 -13 4 -30 6 -16
3 -41 9 -55 13 -14 5 -47 15 -75 22 -27 6 -55 16 -62 21 -7 6 -17 7 -23 3 -5
-3 -10 -1 -10 4 0 6 -3 10 -7 9 -5 0 -17 2 -28 6 -11 5 -45 17 -75 29 -30 11
-59 23 -65 27 -5 4 -20 11 -32 14 -33 10 -227 117 -235 130 -4 6 -8 7 -8 3 0
-4 -6 -3 -12 3 -7 5 -50 36 -94 68 -118 82 -157 115 -264 222 -97 97 -162 170
-218 249 -18 24 -32 39 -32 33z"/>
<path d="M13004 9778 c-4 -6 -2 -8 4 -4 6 3 13 2 17 -4 3 -5 14 -10 24 -10 10
0 36 -8 57 -17 22 -9 41 -17 44 -18 18 -4 106 -50 108 -57 2 -4 12 -8 23 -8
10 0 19 -5 19 -11 0 -5 4 -8 9 -4 5 3 12 1 16 -4 3 -5 19 -17 35 -25 17 -9 44
-23 60 -32 17 -8 30 -20 30 -25 0 -5 7 -9 15 -9 8 0 24 -9 35 -20 11 -11 23
-20 26 -20 29 0 264 -232 350 -345 137 -182 250 -414 289 -595 25 -112 35
-162 40 -200 9 -58 12 -60 24 -14 30 113 40 210 36 349 -3 139 -6 160 -36 275
-17 65 -110 276 -128 290 -3 3 -19 25 -35 49 -46 71 -220 239 -272 263 -13 6
-24 15 -24 20 0 4 -5 8 -11 8 -6 0 -24 9 -40 21 -16 11 -29 17 -29 12 0 -4 -4
-3 -8 2 -21 30 -229 103 -337 119 -16 3 -30 5 -30 6 0 14 -303 21 -311 8z"/>
<path d="M13047 9554 c-6 -6 35 -44 47 -44 21 0 272 -254 357 -360 60 -76 163
-233 168 -255 1 -5 8 -17 16 -25 49 -57 187 -413 211 -548 3 -14 11 -55 19
-92 29 -139 40 -425 22 -565 -8 -64 -2 -64 31 0 97 190 140 376 139 600 0 127
-9 200 -42 342 -25 106 -137 342 -202 423 -105 133 -192 222 -279 285 -15 11
-33 26 -40 33 -7 6 -15 12 -19 12 -3 0 -32 17 -63 38 -61 40 -132 77 -144 74
-5 -1 -8 3 -8 8 0 6 -3 9 -7 8 -5 -1 -25 6 -47 15 -21 9 -49 19 -61 21 -13 2
-33 9 -44 16 -12 6 -21 8 -21 4 0 -3 -6 -1 -13 5 -8 6 -17 8 -20 5z"/>
<path d="M10710 9481 c0 -5 7 -12 16 -15 14 -5 15 -4 4 9 -14 17 -20 19 -20 6z"/>
<path d="M12940 9246 c0 -2 12 -17 28 -34 66 -72 88 -100 158 -206 97 -149
164 -283 213 -431 58 -175 74 -279 75 -485 1 -183 -4 -249 -30 -365 -24 -110
-35 -146 -78 -260 l-27 -70 54 55 c29 30 66 73 82 95 16 22 32 42 35 45 3 3
25 38 48 78 98 173 154 371 153 547 -1 96 -3 117 -16 206 -16 104 -93 293
-156 383 -16 22 -37 52 -46 66 -18 26 -173 183 -209 211 -48 37 -144 99 -153
99 -6 0 -11 5 -11 10 0 6 -9 10 -20 10 -10 0 -24 8 -29 18 -6 9 -11 13 -11 8
0 -5 -6 -4 -12 1 -15 11 -48 24 -48 19z"/>
<path d="M9264 9075 c21 -38 45 -77 52 -86 8 -8 14 -21 14 -27 0 -7 4 -12 8
-12 4 0 19 -18 32 -39 31 -49 235 -251 254 -251 3 0 31 -18 64 -40 74 -49 211
-112 275 -126 4 -1 8 -2 10 -4 2 -2 33 -9 62 -14 11 -2 27 -6 35 -9 8 -3 22
-6 30 -6 35 -1 79 -9 90 -16 9 -6 11 -4 5 4 -5 10 -3 11 11 4 16 -8 159 -10
174 -3 3 1 21 3 40 5 55 3 118 16 178 34 18 5 33 10 35 10 1 0 15 4 30 10 16
6 32 11 36 11 5 0 48 20 97 44 104 51 229 134 297 197 49 46 63 72 25 45 -12
-9 -30 -16 -40 -16 -10 0 -18 -4 -18 -8 0 -5 -7 -9 -15 -10 -8 -1 -22 -3 -30
-4 -8 -1 -15 -6 -15 -11 0 -6 -3 -8 -6 -5 -3 4 -20 2 -37 -4 -18 -5 -41 -11
-52 -13 -11 -2 -35 -7 -54 -10 -19 -4 -44 -10 -55 -14 -12 -5 -29 -7 -38 -6
-10 2 -18 0 -18 -3 0 -4 -15 -8 -32 -9 -18 -1 -62 -5 -98 -9 -98 -11 -415 -6
-415 6 0 1 -11 3 -25 5 -62 8 -102 15 -142 26 -24 6 -47 12 -53 13 -5 1 -16 5
-22 9 -7 5 -13 6 -13 3 0 -7 -173 54 -184 65 -6 5 -20 9 -33 9 -13 0 -23 3
-23 8 0 4 -15 13 -32 21 -29 12 -165 88 -222 124 -11 7 -31 22 -45 35 -14 12
-29 22 -33 22 -3 0 -13 6 -20 13 -7 6 -37 32 -67 57 l-55 45 38 -70z"/>
<path d="M12889 8953 c64 -147 129 -407 147 -588 10 -93 10 -310 1 -410 -31
-329 -146 -656 -328 -927 -49 -75 -55 -88 -38 -88 11 0 22 7 25 15 4 8 13 15
20 15 8 0 17 7 20 15 4 8 12 15 20 15 8 0 19 9 26 20 7 11 17 20 22 20 4 0 26
18 47 40 22 22 39 38 39 35 0 -5 51 51 106 116 121 145 246 412 270 579 3 19
7 42 11 50 3 8 7 83 8 165 7 291 -61 525 -221 765 -69 104 -110 154 -183 223
l-30 29 38 -89z"/>
<path d="M12630 8817 c0 -2 9 -38 20 -80 39 -156 54 -372 37 -557 -21 -233
-93 -455 -217 -675 -24 -43 -91 -147 -100 -155 -3 -3 -23 -27 -44 -55 -44 -55
-204 -218 -251 -254 -29 -22 -29 -23 -5 -17 14 4 34 11 45 16 20 8 43 16 57
19 20 4 206 105 246 134 73 51 92 67 177 153 375 375 412 938 93 1402 -45 64
-58 80 -58 69z"/>
<path d="M12450 8619 c-1 -71 -7 -115 -31 -229 -28 -127 -64 -257 -95 -338
-33 -86 -144 -316 -155 -320 -5 -2 -9 -8 -9 -13 0 -10 -49 -86 -101 -159 -89
-125 -257 -302 -373 -395 -21 -16 -47 -38 -59 -48 -12 -10 -60 -44 -107 -75
-47 -31 -87 -60 -90 -63 -3 -4 -16 -10 -30 -14 -13 -4 -30 -14 -38 -21 -7 -8
-17 -12 -21 -9 -5 2 -16 -4 -26 -15 -10 -11 -21 -17 -26 -15 -4 3 -11 0 -15
-6 -14 -23 205 17 337 62 83 28 259 110 259 121 0 4 5 8 11 8 11 0 107 64 158
105 34 28 171 165 201 202 29 36 33 41 106 153 49 74 131 272 148 355 3 11 9
41 15 66 29 127 32 398 6 489 -2 8 -6 28 -9 43 -3 15 -13 54 -22 85 -10 31
-18 60 -18 64 -1 3 -4 10 -8 14 -5 4 -8 -17 -8 -47z"/>
<path d="M11380 8621 c0 -5 -8 -11 -17 -14 -10 -3 -43 -20 -73 -37 -30 -18
-64 -34 -75 -36 -11 -2 -21 -8 -23 -14 -2 -5 -12 -10 -21 -10 -10 0 -21 -3
-25 -7 -4 -5 -11 -8 -14 -9 -4 0 -20 -6 -37 -13 -57 -25 -160 -63 -175 -66 -8
-1 -23 -5 -32 -9 -9 -4 -22 -8 -30 -10 -7 -1 -19 -5 -25 -9 -7 -5 -13 -6 -13
-3 0 3 -18 -1 -40 -9 -22 -8 -43 -14 -45 -14 -12 0 -113 -17 -117 -20 -5 -4
-64 -12 -113 -15 -27 -2 -50 -5 -50 -6 0 -2 -61 -5 -200 -11 -39 -2 -76 0 -83
5 -7 4 -12 2 -12 -6 0 -8 -3 -9 -8 -3 -4 6 -32 11 -62 11 -83 2 -150 8 -150
14 0 3 -10 6 -22 6 -66 4 -108 10 -108 15 0 3 -12 6 -27 7 -26 1 -65 8 -70 12
-2 2 -7 4 -13 5 -5 1 -13 4 -17 5 -5 1 -12 3 -18 4 -58 11 -85 20 -85 29 0 6
-3 7 -7 4 -3 -4 -13 -1 -21 6 -13 10 -14 9 -7 -3 6 -12 5 -13 -6 -2 -7 6 -19
12 -27 12 -8 0 -28 6 -45 14 -90 41 -177 76 -186 76 -6 0 -11 4 -11 9 0 5 -8
11 -17 15 -10 3 -24 9 -32 12 -12 6 -12 4 0 -11 34 -42 195 -195 205 -195 2 0
33 -21 69 -46 36 -25 65 -42 65 -37 0 4 4 3 8 -3 13 -20 224 -118 247 -114 3
0 19 -7 35 -15 16 -8 32 -15 35 -15 3 0 6 0 8 -1 1 0 9 -2 17 -4 8 -2 29 -6
45 -10 17 -3 41 -8 55 -10 14 -2 39 -7 55 -10 17 -4 57 -8 90 -10 33 -2 62 -4
65 -5 15 -5 250 9 282 16 13 3 33 6 46 7 12 1 22 5 22 10 0 5 6 7 13 4 6 -2
31 2 55 8 23 7 42 11 42 8 0 -3 6 -1 13 4 6 6 37 18 67 28 30 10 64 23 75 28
11 6 22 12 25 13 31 9 90 39 90 46 0 5 5 6 10 3 6 -3 10 -1 10 4 0 6 5 11 10
11 9 0 88 47 100 60 3 3 17 13 33 23 85 54 306 287 273 287 -3 0 -6 -4 -6 -9z"/>
<path d="M11610 8570 c0 -12 -161 -180 -173 -180 -2 0 -20 -14 -38 -31 -69
-64 -286 -207 -341 -224 -12 -4 -25 -11 -28 -15 -7 -10 -100 -50 -116 -50 -8
0 -14 -4 -14 -10 0 -5 -3 -9 -7 -8 -5 1 -34 -6 -65 -16 -32 -9 -60 -17 -63
-16 -3 0 -18 -6 -33 -13 -15 -8 -33 -12 -39 -10 -7 3 -13 1 -13 -4 0 -5 -8 -9
-17 -10 -10 -1 -39 -4 -65 -6 -25 -3 -50 -7 -56 -11 -32 -19 -387 -28 -507
-11 -33 4 -70 8 -82 8 -13 1 -23 5 -23 9 0 5 -6 8 -12 7 -7 -2 -32 1 -55 5
-24 4 -46 8 -50 8 -5 0 -14 4 -21 10 -9 8 -11 7 -7 -3 3 -8 31 -30 63 -49 31
-18 59 -36 62 -39 8 -10 84 -45 93 -43 4 1 7 -3 7 -8 0 -5 3 -9 8 -8 4 1 21
-5 37 -12 17 -7 36 -12 43 -11 6 1 12 -3 12 -9 0 -5 3 -9 8 -8 4 0 14 -1 22
-5 24 -9 83 -26 110 -31 14 -3 36 -7 50 -11 98 -21 297 -27 387 -10 35 7 65
10 67 7 3 -2 11 0 18 4 7 5 24 10 38 12 14 2 27 7 28 13 2 5 7 7 12 4 5 -3 19
-1 32 4 32 13 62 24 68 25 3 1 11 5 18 9 6 5 12 5 12 0 0 -4 4 -3 8 4 4 6 14
13 22 15 8 2 39 18 68 36 29 17 55 32 58 32 8 0 78 54 82 63 2 4 8 7 13 7 9 0
135 123 175 172 43 51 104 148 142 224 44 88 77 182 68 191 -3 4 -6 1 -6 -7z"/>
<path d="M12147 8544 c-13 -80 -79 -259 -145 -389 -34 -69 -123 -216 -149
-245 -7 -8 -34 -42 -61 -75 -75 -92 -154 -168 -294 -280 -24 -20 -109 -75
-114 -75 -3 0 -20 -10 -37 -22 -18 -13 -34 -23 -37 -23 -3 0 -22 -11 -43 -23
-20 -13 -43 -25 -50 -26 -6 -2 -30 -11 -52 -21 -22 -11 -42 -19 -45 -20 -3 -1
-18 -7 -35 -14 -16 -6 -41 -16 -55 -21 -27 -11 -67 -21 -87 -22 -7 -1 -13 -5
-13 -9 0 -3 -21 -10 -47 -15 -27 -4 -50 -8 -53 -9 -3 0 -14 -6 -25 -12 -18
-11 -16 -12 12 -8 18 2 35 0 38 -4 5 -9 309 -6 365 3 55 9 64 11 75 17 6 3 20
4 33 3 12 0 22 3 22 8 0 6 7 8 15 4 8 -3 15 -1 15 5 0 6 5 7 10 4 6 -3 16 -3
23 2 6 4 14 8 17 9 3 0 14 4 25 8 61 23 75 28 82 28 4 0 15 5 23 12 15 13 38
23 54 24 5 0 12 4 15 9 3 5 33 26 66 48 74 48 73 46 171 144 45 45 99 107 120
138 22 32 42 60 47 61 4 2 7 10 7 17 0 8 9 29 20 48 42 71 92 219 105 312 3
22 8 50 10 63 14 60 4 292 -14 361 -7 24 -8 23 -14 -15z"/>
<path d="M11890 8458 c-110 -174 -314 -388 -505 -533 -33 -25 -64 -49 -70 -53
-5 -4 -25 -17 -42 -27 -18 -11 -33 -23 -33 -28 0 -4 -4 -5 -10 -2 -5 3 -10 1
-10 -5 0 -6 -4 -8 -10 -5 -5 3 -10 2 -10 -3 0 -5 -8 -12 -17 -15 -23 -7 -76
-39 -84 -50 -3 -5 -10 -9 -15 -9 -15 -1 -59 -22 -65 -31 -3 -5 -8 -8 -10 -7
-2 1 -24 -6 -49 -16 -25 -10 -48 -18 -52 -16 -5 1 -8 -3 -8 -8 0 -6 -9 -10
-20 -10 -11 0 -20 -5 -20 -12 0 -6 -3 -9 -6 -6 -3 4 -21 0 -40 -8 -19 -8 -34
-12 -34 -9 0 3 -11 -2 -25 -11 -14 -9 -25 -14 -25 -10 0 3 -17 -1 -37 -9 -21
-8 -49 -17 -63 -19 -14 -3 -40 -9 -59 -15 -18 -6 -36 -10 -40 -9 -3 0 -8 -1
-11 -2 -8 -3 -33 -8 -75 -14 -23 -4 -52 -9 -65 -11 -42 -8 -151 -17 -247 -19
-51 -1 -96 -6 -100 -11 -5 -4 -2 -5 5 -1 6 4 12 3 12 -2 0 -5 6 -9 13 -9 6 -1
28 -7 47 -14 19 -6 40 -13 45 -14 14 -3 21 -5 57 -16 18 -5 44 -11 58 -14 14
-3 36 -7 50 -10 119 -27 386 -24 512 4 20 5 39 6 42 3 4 -3 6 0 6 7 0 7 4 10
9 6 5 -3 29 1 52 9 24 8 46 13 51 10 4 -3 8 0 8 5 0 6 11 11 24 11 14 0 28 5
31 10 4 6 11 8 16 5 5 -4 9 -1 9 4 0 6 7 11 15 11 9 0 30 8 48 17 18 9 35 16
39 15 3 -1 12 5 18 13 7 8 21 15 31 15 10 0 21 5 24 10 4 6 25 20 48 31 23 12
46 28 50 35 4 8 13 14 18 14 11 0 71 43 105 75 152 144 155 147 230 252 86
119 187 344 207 459 3 16 9 44 12 62 4 17 5 32 3 32 -3 0 -20 -24 -38 -52z"/>
<path d="M5830 6755 c-61 -12 -140 -44 -140 -57 0 -4 -4 -8 -10 -8 -29 0 -105
-106 -130 -180 -19 -54 -21 -80 -17 -155 5 -105 33 -176 94 -241 35 -38 112
-93 137 -99 6 -1 18 -5 26 -8 8 -3 32 -8 52 -11 21 -3 41 -6 45 -7 4 -1 10 -1
13 0 3 2 28 4 55 6 199 12 350 193 339 406 -3 53 -22 139 -33 149 -3 3 -13 18
-21 35 -20 40 -107 124 -136 131 -13 4 -24 10 -24 15 0 5 -9 9 -21 9 -11 0
-29 5 -39 10 -29 15 -128 18 -190 5z m118 -89 c87 -5 167 -63 213 -154 33 -66
34 -195 2 -264 -35 -76 -108 -139 -176 -154 -45 -10 -117 -12 -117 -3 0 4 -6
6 -14 3 -22 -9 -100 30 -136 67 -87 90 -110 239 -54 353 27 56 94 126 121 126
7 0 13 4 13 8 0 4 8 9 18 10 34 4 52 8 58 15 4 3 11 4 16 1 5 -3 30 -7 56 -8z"/>
<path d="M8963 6755 c-96 -23 -162 -100 -168 -193 -4 -46 28 -152 45 -152 5 0
15 -6 22 -14 15 -15 77 -49 94 -52 27 -5 141 -48 161 -62 68 -44 31 -170 -56
-190 -36 -8 -111 -5 -124 6 -8 7 -16 10 -18 7 -3 -2 -20 9 -38 25 l-33 30 -28
-22 c-57 -45 -48 -73 38 -117 105 -53 252 -37 340 38 78 67 82 222 8 295 -21
22 -85 53 -98 48 -5 -1 -8 2 -8 6 0 8 -98 38 -112 34 -5 -1 -8 3 -8 8 0 6 -6
10 -14 10 -23 0 -66 59 -66 91 0 71 45 108 148 123 12 2 22 -1 22 -5 0 -5 3
-8 8 -7 12 2 62 -14 62 -21 0 -3 9 -12 19 -18 17 -10 25 -7 58 23 l38 36 -33
28 c-57 48 -169 67 -259 45z"/>
<path d="M14657 6764 c-1 -1 -18 -5 -39 -8 -43 -7 -86 -24 -110 -44 -10 -9
-18 -12 -18 -8 0 4 -23 -14 -51 -40 -75 -72 -111 -155 -115 -265 -4 -102 13
-172 58 -237 36 -52 84 -102 98 -102 5 0 10 -4 10 -10 0 -5 4 -10 9 -10 5 0
26 -8 47 -17 43 -18 52 -21 103 -28 18 -3 37 -8 42 -11 5 -3 9 -2 9 3 0 4 17
8 38 9 95 1 174 37 249 114 135 138 132 400 -6 541 -39 39 -112 89 -122 83 -5
-3 -9 0 -9 5 0 6 -3 10 -7 9 -5 -1 -25 2 -46 7 -37 7 -135 14 -140 9z m53 -93
c0 -3 16 -7 35 -8 52 -3 65 -5 65 -15 0 -4 8 -8 18 -8 27 0 102 -78 125 -130
29 -65 34 -177 12 -238 -23 -62 -56 -105 -108 -140 -55 -37 -100 -49 -167 -45
-77 5 -80 6 -80 13 0 4 -7 7 -14 7 -46 0 -131 97 -157 178 -46 147 41 334 174
370 4 2 8 3 10 4 1 2 13 5 26 7 14 2 26 6 28 8 5 5 33 3 33 -3z"/>
<path d="M16012 6752 c-110 -31 -171 -120 -159 -232 9 -79 57 -136 142 -167
17 -6 39 -15 50 -19 11 -4 22 -8 25 -8 35 -7 104 -43 120 -63 37 -48 19 -122
-39 -156 -17 -10 -31 -15 -31 -11 0 3 -6 2 -12 -3 -11 -8 -83 -10 -98 -3 -3 1
-8 2 -12 1 -5 0 -8 4 -8 10 0 5 -4 8 -9 5 -4 -3 -23 8 -41 24 l-32 29 -39 -31
c-22 -17 -39 -35 -39 -39 0 -13 61 -59 99 -75 20 -8 56 -17 80 -20 24 -2 47
-7 52 -9 4 -3 10 -2 13 3 2 4 17 7 33 6 15 -1 33 3 40 8 7 5 16 7 21 4 5 -3
19 4 30 15 12 11 22 17 22 13 0 -15 67 64 82 98 18 39 18 124 0 168 -11 29
-57 81 -75 84 -7 2 -25 8 -42 15 -16 7 -50 19 -75 27 -25 9 -52 18 -60 21 -8
4 -19 7 -23 7 -15 2 -67 59 -68 75 -7 70 18 109 85 133 26 10 46 13 46 7 0 -6
7 -6 20 1 11 6 20 7 20 2 0 -4 9 -8 20 -9 11 -1 27 -8 35 -15 46 -41 44 -41
82 -7 39 34 51 59 27 59 -8 0 -14 4 -14 9 0 17 -99 51 -157 54 -32 2 -82 -3
-111 -11z"/>
<path d="M235 6740 c-2 -3 -3 -169 -3 -368 0 -269 3 -362 11 -363 7 0 25 -2
40 -3 15 -1 32 1 37 4 8 5 16 543 11 711 -1 25 -4 27 -47 25 -25 0 -47 -3 -49
-6z"/>
<path d="M526 6741 c-6 -11 -4 -730 3 -729 3 0 8 -1 11 -2 17 -7 72 -5 77 3 3
5 6 142 6 303 0 162 4 291 8 287 6 -7 138 -201 347 -511 47 -70 60 -83 79 -79
12 2 20 1 18 -3 -5 -8 72 -6 81 2 4 5 7 492 5 699 l-1 37 -50 -1 -50 -2 0
-305 -1 -305 -24 40 c-13 22 -29 45 -34 52 -6 7 -11 16 -11 22 0 5 -4 11 -8
13 -4 2 -19 21 -32 43 -13 22 -28 45 -33 50 -5 6 -66 96 -136 200 l-128 190
-62 1 c-34 0 -63 -2 -65 -5z"/>
<path d="M1267 6744 c-1 -2 -1 -23 1 -47 l4 -45 114 2 c63 0 115 -1 115 -4 1
-3 3 -147 4 -320 1 -173 3 -317 4 -320 2 -8 80 -4 88 4 5 4 8 146 8 314 0 169
3 312 7 317 7 11 89 12 107 1 6 -4 11 -3 11 2 0 4 26 8 57 8 l57 -1 0 45 0 45
-287 1 c-158 0 -289 -1 -290 -2z"/>
<path d="M1950 6378 c0 -343 1 -368 18 -369 64 -4 94 -3 98 3 3 4 16 3 30 -2
32 -13 37 -12 28 1 -4 8 -1 8 12 2 11 -5 28 -8 39 -7 28 4 55 5 90 3 17 -1 32
0 35 1 15 5 58 5 54 -1 -6 -10 69 -5 81 5 9 7 10 27 6 81 -1 6 -72 9 -196 8
l-195 -1 0 118 0 119 153 0 c83 0 161 0 173 0 17 1 20 7 19 41 -1 22 -3 43 -3
48 -1 4 -78 7 -172 6 l-170 -1 0 109 c0 96 2 108 18 109 69 4 112 3 112 -4 0
-4 8 -4 18 1 9 4 63 7 120 6 56 -1 102 1 103 4 5 35 5 82 0 83 -3 1 -111 3
-238 3 l-233 2 0 -368z"/>
<path d="M2589 6736 c-1 -6 -2 -170 -3 -364 -1 -273 2 -356 11 -364 9 -8 13
-7 13 3 0 9 3 10 10 3 6 -6 23 -9 38 -6 l28 4 -1 146 c-1 81 1 154 3 163 3 13
14 16 52 14 60 -3 61 -4 88 -57 62 -120 159 -272 175 -274 9 -1 17 1 17 4 0 4
11 7 25 7 14 0 25 -2 25 -5 0 -3 9 -6 19 -6 16 0 18 3 9 21 -17 30 -157 256
-179 288 -19 26 -19 28 -2 33 113 34 172 118 160 226 -9 72 -49 125 -117 155
-44 19 -369 27 -371 9z m301 -89 c0 -6 3 -7 6 -4 13 12 64 -35 72 -66 10 -39
0 -92 -24 -118 -25 -27 -67 -36 -169 -35 l-90 1 0 110 c-1 61 0 113 2 117 6
11 203 6 203 -5z"/>
<path d="M3222 6375 l3 -370 45 0 45 0 5 303 5 302 45 -67 c25 -38 47 -70 50
-73 14 -14 50 -70 50 -79 0 -5 4 -11 8 -13 5 -1 63 -85 130 -184 66 -100 127
-184 134 -187 7 -2 20 -1 29 4 8 4 21 4 28 0 7 -4 23 -6 37 -3 l24 4 -2 367
-3 366 -45 0 -45 0 -3 -304 -2 -304 -187 279 c-102 153 -195 290 -205 304 -17
22 -28 25 -84 25 l-64 1 2 -371z"/>
<path d="M4270 6725 c-4 -11 -67 -155 -140 -320 -150 -338 -173 -395 -162
-396 44 -5 92 -3 92 4 0 4 3 6 8 4 4 -3 22 35 41 83 l34 88 49 4 c26 1 48 -1
48 -5 0 -5 5 -5 10 -2 9 6 134 9 226 6 17 -1 27 -17 52 -82 18 -44 38 -86 45
-92 12 -12 92 -15 103 -4 5 5 -182 457 -262 635 -8 18 -21 47 -29 65 -12 30
-17 32 -60 32 -38 0 -49 -3 -55 -20z m128 -297 l61 -148 -60 -1 c-32 0 -79 0
-104 0 -25 0 -60 0 -79 0 l-34 1 62 153 c74 182 77 187 87 161 4 -10 34 -85
67 -166z"/>
<path d="M4602 6699 l1 -46 119 1 118 1 0 -322 c0 -190 4 -323 9 -323 5 0 17
-3 27 -7 12 -5 15 -3 9 6 -6 10 -3 11 12 3 41 -22 43 -10 45 324 3 311 3 319
23 320 11 0 26 -4 33 -9 6 -5 12 -6 12 -1 0 5 38 9 85 8 l84 -1 -2 46 -2 46
-287 0 -287 1 1 -47z"/>
<path d="M5286 6741 c-3 -6 0 -732 3 -740 0 -2 7 1 14 7 6 5 21 6 32 2 50 -19
50 -18 49 362 -1 194 -2 358 -3 364 -1 12 -89 16 -95 5z"/>
<path d="M6440 6379 c0 -302 2 -368 14 -372 7 -3 19 0 25 6 7 7 11 7 11 1 0
-6 10 -10 23 -9 l22 2 5 302 5 302 35 -52 c19 -28 39 -59 45 -68 5 -9 21 -31
34 -49 13 -19 71 -104 129 -190 178 -265 164 -248 196 -245 15 1 31 4 33 7 3
3 13 1 22 -4 40 -21 41 -8 39 371 l-3 364 -47 0 -48 0 -1 -285 c-1 -157 0
-292 1 -300 1 -13 0 -13 -13 0 -8 8 -97 139 -198 290 -101 151 -187 279 -191
284 -3 5 -36 10 -72 11 l-66 2 0 -368z"/>
<path d="M7490 6726 c-4 -12 -19 -46 -33 -76 -13 -30 -65 -147 -115 -260 -49
-113 -104 -236 -121 -273 -38 -83 -42 -109 -18 -112 9 -2 17 1 17 5 0 5 12 5
28 1 31 -9 52 -4 52 12 0 6 14 45 32 88 29 72 33 77 65 81 18 2 33 1 33 -4 0
-4 6 -5 13 -3 25 10 187 10 191 0 3 -5 5 -4 5 2 1 9 8 10 25 3 15 -5 27 -5 34
2 12 12 16 5 61 -108 29 -72 35 -81 56 -79 13 2 29 6 34 10 6 3 11 2 11 -3 0
-5 11 -7 24 -5 23 5 23 5 6 41 -9 21 -79 183 -155 362 -76 179 -140 327 -142
330 -2 2 -25 5 -50 5 -37 1 -46 -3 -53 -19z m122 -281 l66 -165 -46 -1 c-100
-1 -225 0 -227 3 -4 4 129 328 135 328 3 0 35 -75 72 -165z"/>
<path d="M8003 6376 l2 -369 62 -1 c33 -1 59 3 56 7 -3 5 3 5 13 0 11 -5 28
-8 39 -7 35 5 59 5 93 1 18 -2 35 0 38 5 3 4 13 4 22 -1 9 -5 26 -5 37 -1 11
4 30 4 41 -1 29 -10 34 -4 34 48 0 27 -5 43 -12 44 -7 0 -83 1 -168 2 l-155 2
-3 321 -2 322 -50 -1 -50 -2 3 -369z"/>
<path d="M9329 6730 c0 -8 -2 -22 -3 -30 -2 -8 0 -25 5 -38 7 -17 13 -21 26
-15 23 10 54 10 72 -1 10 -6 12 -5 7 2 -8 13 20 12 42 -1 6 -5 12 -4 12 0 0
10 63 11 70 1 3 -3 5 -148 4 -323 0 -174 3 -318 8 -321 4 -3 8 0 8 7 0 7 4 8
13 2 13 -10 54 -10 64 1 4 4 7 145 8 314 0 169 4 312 8 319 8 12 25 12 45 0 6
-5 12 -4 12 0 0 5 36 8 81 7 88 -2 100 6 91 65 l-4 27 -284 0 c-248 0 -284 -2
-285 -16z"/>
<path d="M9995 6740 c-1 -3 -1 -124 -1 -270 2 -244 3 -269 22 -311 36 -78 105
-141 174 -156 30 -7 85 -14 100 -13 8 0 27 2 43 2 15 1 27 6 27 11 0 4 5 5 11
1 6 -3 15 -1 19 5 4 7 13 13 21 14 25 4 78 49 104 89 44 66 50 116 50 384 l0
249 -47 1 c-27 1 -49 -2 -49 -5 -1 -3 -2 -119 -3 -256 -2 -239 -3 -252 -25
-297 -24 -51 -64 -86 -108 -95 -96 -22 -174 11 -215 90 -21 40 -22 56 -24 297
-1 140 -3 258 -3 261 -1 8 -92 7 -96 -1z"/>
<path d="M10729 6746 c-6 -3 -4 -738 2 -742 4 -2 10 0 14 5 3 6 15 7 28 3 25
-9 78 -9 93 0 5 4 16 3 24 -2 7 -4 24 -4 37 1 18 7 22 6 17 -4 -6 -9 -5 -9 7
0 9 7 20 8 29 3 8 -5 18 -6 22 -4 8 5 32 10 88 17 30 5 110 46 150 78 158 127
171 392 25 533 -60 59 -85 79 -85 70 0 -3 -6 -1 -13 5 -8 6 -24 13 -38 15 -13
3 -24 5 -24 7 0 7 -361 21 -376 15z m213 -101 c5 -6 8 -6 8 2 0 8 11 10 33 7
17 -2 46 -7 63 -9 126 -19 214 -130 214 -270 0 -62 -14 -107 -49 -156 -26 -37
-96 -88 -128 -94 -10 -2 -18 -4 -18 -5 0 -15 -233 -21 -238 -6 -6 19 -2 520 5
531 8 14 101 13 110 0z"/>
<path d="M11515 6741 c-3 -2 -5 -168 -5 -368 0 -339 1 -363 18 -364 9 -1 21 0
27 1 14 2 34 2 73 -3 18 -2 35 0 38 5 3 4 16 3 30 -2 33 -13 37 -12 28 2 -5 7
-3 8 6 3 18 -11 51 -13 78 -3 17 6 21 5 16 -5 -5 -9 -4 -9 6 0 7 7 20 9 29 5
20 -9 42 -9 59 1 6 5 12 4 12 0 0 -8 11 -8 65 -4 15 1 17 91 2 92 -7 0 -95 2
-197 2 l-185 2 -3 118 -3 117 101 -2 c60 -2 102 1 104 7 3 7 5 7 5 0 1 -8 80
-11 132 -6 11 1 15 91 4 92 -5 0 -84 2 -175 2 l-165 2 0 110 c0 93 2 109 15
106 8 -2 24 -3 35 -2 88 5 249 5 257 0 6 -4 24 -2 40 3 26 9 28 14 26 52 l-3
41 -233 0 c-128 1 -235 -1 -237 -4z"/>
<path d="M12149 6506 c-1 -372 0 -488 5 -493 4 -4 56 -7 83 -4 9 1 12 67 12
264 0 144 0 280 0 301 l1 39 38 -55 c20 -30 42 -62 47 -70 48 -76 301 -447
314 -460 16 -17 110 -31 129 -19 6 4 9 144 9 371 l-2 365 -47 1 -48 1 -1 -66
c0 -36 -1 -171 -1 -298 0 -213 -6 -267 -23 -213 -3 11 -12 26 -19 32 -6 7 -90
130 -185 273 -96 143 -175 262 -178 265 -2 2 -33 5 -69 6 l-64 1 -1 -241z"/>
<path d="M12899 6745 c-1 0 -3 -24 -4 -52 -1 -33 1 -50 8 -46 16 10 70 10 90
1 9 -5 17 -5 17 0 0 4 19 7 43 6 23 -1 50 -3 60 -3 16 -1 17 -23 17 -325 l0
-325 30 9 c17 5 30 5 30 1 0 -3 9 -7 20 -7 20 0 20 7 20 323 0 301 1 323 18
324 9 1 24 2 32 3 8 1 23 -2 33 -7 9 -4 17 -4 17 0 0 5 30 8 68 8 l67 0 0 45
0 45 -282 0 c-156 1 -284 1 -284 0z"/>
<path d="M14104 6742 c-6 -4 -10 -96 -10 -267 -1 -143 -4 -277 -8 -298 -10
-55 -54 -94 -103 -92 -56 3 -73 14 -94 59 -10 23 -19 37 -19 31 0 -5 -16 -11
-37 -12 -49 -3 -59 -15 -43 -54 17 -40 58 -89 75 -89 7 0 15 -6 17 -12 3 -9
31 -13 89 -13 88 0 116 10 166 61 51 51 55 78 57 382 0 155 -1 288 -4 295 -6
14 -69 21 -86 9z"/>
<path d="M15232 6376 l3 -371 35 0 c19 0 45 3 58 7 17 6 21 5 16 -5 -5 -9 -4
-9 6 0 7 7 20 9 29 5 20 -9 42 -9 59 1 6 5 12 4 12 -1 0 -8 27 -8 100 2 74 11
137 50 168 105 37 65 33 144 -11 208 -19 28 -75 66 -99 68 -18 1 -18 15 0 15
12 0 22 4 22 9 0 5 8 12 18 15 28 9 62 78 62 127 0 51 -36 130 -62 137 -10 2
-18 8 -18 12 0 21 -84 34 -238 35 l-162 2 2 -371z m330 262 c59 -41 57 -139
-5 -176 -26 -15 -55 -20 -130 -21 l-97 -2 0 104 c0 57 3 106 6 110 3 3 50 5
103 5 75 -1 102 -5 123 -20z m3 -304 c20 -9 44 -28 53 -42 23 -35 21 -115 -4
-143 -23 -26 -69 -51 -78 -42 -3 4 -6 2 -6 -3 0 -5 -45 -9 -100 -9 l-100 0 0
126 c0 69 2 128 4 130 2 2 47 3 99 2 67 -1 106 -6 132 -19z"/>
</g>
</svg>
