<svg width="571" height="430" viewBox="0 0 571 430" fill="none" xmlns="http://www.w3.org/2000/svg">
<path opacity="0.45" d="M292.509 398.666C370.275 398.666 433.318 392.158 433.318 384.131C433.318 376.104 370.275 369.597 292.509 369.597C214.743 369.597 151.7 376.104 151.7 384.131C151.7 392.158 214.743 398.666 292.509 398.666Z" fill="#E6E6E6"/>
<path d="M245.53 235.582C245.53 235.582 201.677 256.22 207.059 274.092C212.441 291.963 239.82 287.128 239.82 287.128" stroke="#24285B" stroke-width="8.12" stroke-linecap="round" stroke-linejoin="round"/>
<path d="M226.53 167.647C226.53 167.647 184.719 131.404 171 79.2869" stroke="#24285B" stroke-width="8.12" stroke-linecap="round" stroke-linejoin="round"/>
<path d="M346.083 195.93C346.083 195.93 389.993 195.845 416.859 190.482C443.724 185.119 437.357 123.93 437.357 123.93" stroke="#24285B" stroke-width="8.12" stroke-linecap="round" stroke-linejoin="round"/>
<path d="M181.292 74.0238C181.292 74.0238 197.552 65.9224 192.27 57.3931C186.988 48.8638 179.722 51.9018 179.722 51.9018C179.722 51.9018 178.966 31.4343 162.735 37.7101C146.504 43.9858 146.461 67.8194 156.297 78.2457C166.132 88.672 181.292 74.0238 181.292 74.0238Z" fill="#FFD200"/>
<path d="M302.93 261.697C302.93 261.697 298.976 306.84 280.675 333.284" stroke="#24285B" stroke-width="8.12" stroke-linecap="round" stroke-linejoin="round"/>
<path d="M307.198 309.607L278.605 299.965L260.19 354.464L296.163 385.444L291.695 345.293L307.198 309.607Z" fill="#FFD200"/>
<path d="M288.369 263.994C337.415 263.994 377.174 224.268 377.174 175.263C377.174 126.258 337.415 86.5325 288.369 86.5325C239.324 86.5325 199.565 126.258 199.565 175.263C199.565 224.268 239.324 263.994 288.369 263.994Z" fill="#68E1FD"/>
<path opacity="0.09" d="M362.585 126.854C369.778 147.328 369.211 169.727 360.992 189.812C352.774 209.897 337.473 226.276 317.984 235.85C298.496 245.425 276.171 247.531 255.233 241.77C234.295 236.009 216.197 222.781 204.361 204.588C208.507 216.439 215.122 227.277 223.77 236.384C232.419 245.492 242.903 252.662 254.53 257.421C266.157 262.179 278.663 264.419 291.22 263.991C303.778 263.563 316.102 260.477 327.377 254.937C338.653 249.398 348.624 241.531 356.63 231.856C364.637 222.18 370.499 210.918 373.826 198.812C377.154 186.706 377.873 174.032 375.935 161.627C373.997 149.223 369.447 137.371 362.585 126.854Z" fill="black"/>
<path d="M331.023 201.436C331.023 201.436 323.129 238.634 278.063 232.116C232.997 225.598 236.965 185.048 236.965 185.048L331.023 201.436Z" fill="#24285B"/>
<path opacity="0.36" d="M254.76 174.988C255.3 171.277 250.046 167.442 243.025 166.421C236.003 165.4 229.873 167.58 229.333 171.29C228.792 175.001 234.046 178.837 241.068 179.858C248.089 180.879 254.219 178.698 254.76 174.988Z" fill="white"/>
<path opacity="0.36" d="M347.236 188.412C347.777 184.702 342.523 180.866 335.501 179.845C328.48 178.824 322.35 181.004 321.809 184.715C321.269 188.425 326.523 192.261 333.544 193.282C340.566 194.303 346.696 192.123 347.236 188.412Z" fill="white"/>
<path d="M161.45 97.0444C161.45 97.0444 202.705 94.3059 195.253 79.7576C187.802 65.2093 169.259 75.5928 157.596 77.8891C145.933 80.1855 145.705 96.3741 161.45 97.0444Z" fill="#FFD200"/>
<path opacity="0.44" d="M161.45 97.0444C161.45 97.0444 202.705 94.3059 195.253 79.7576C187.802 65.2093 169.259 75.5928 157.596 77.8891C145.933 80.1855 145.705 96.3741 161.45 97.0444Z" fill="white"/>
<path d="M426.066 123.716C426.066 123.716 408.579 118.81 412.176 109.453C415.774 100.097 423.482 101.723 423.482 101.723C423.482 101.723 420.399 81.4691 437.572 84.607C454.744 87.7449 459.184 111.151 451.461 123.231C443.738 135.312 426.066 123.716 426.066 123.716Z" fill="#FFD200"/>
<path d="M449.877 142.601C449.877 142.601 408.836 147.607 413.433 131.918C418.029 116.228 438.2 122.975 450.076 123.06C461.953 123.146 465.222 138.992 449.877 142.601Z" fill="#FFD200"/>
<path opacity="0.44" d="M449.877 142.601C449.877 142.601 408.836 147.607 413.433 131.918C418.029 116.228 438.2 122.975 450.076 123.06C461.953 123.146 465.222 138.992 449.877 142.601Z" fill="white"/>
<path opacity="0.58" d="M373.905 365.946C373.905 365.946 360.144 362.181 357.146 349.387C357.146 349.387 378.473 345.108 379.087 367.073L373.905 365.946Z" fill="#68E1FD"/>
<path opacity="0.73" d="M375.59 364.577C375.59 364.577 365.982 349.387 374.448 335.181C374.448 335.181 390.664 345.464 383.455 364.605L375.59 364.577Z" fill="#68E1FD"/>
<path d="M378.073 364.591C378.073 364.591 383.155 348.545 398.515 345.507C398.515 345.507 401.37 355.919 388.523 364.634L378.073 364.591Z" fill="#68E1FD"/>
<path d="M368.095 364.22L370.879 383.304L388.451 383.376L391.049 364.32L368.095 364.22Z" fill="#24285B"/>
<path d="M253.296 158.319C253.296 158.319 257.578 128.766 269.555 130.135C281.532 131.504 276.692 161.727 276.692 161.727" stroke="#24285B" stroke-width="3.045" stroke-linecap="round" stroke-linejoin="round"/>
<path d="M302.245 165.436C302.245 165.436 306.527 135.883 318.504 137.252C330.481 138.621 325.641 168.845 325.641 168.845" stroke="#24285B" stroke-width="3.045" stroke-linecap="round" stroke-linejoin="round"/>
<path d="M215.767 263.152L197.994 288.383C197.994 288.383 222.89 297.968 238.15 303.345L246.172 332.471L261.432 283.277C261.432 283.277 235.866 279.184 215.767 263.152Z" fill="#FFD200"/>
</svg>
