<svg width="594" height="489" viewBox="0 0 594 489" fill="none" xmlns="http://www.w3.org/2000/svg">
<g clip-path="url(#clip0_16_145)">
<path opacity="0.24" d="M573.048 300.79C569.149 306.027 564.996 311.032 560.607 315.784C548.367 329.18 534.745 341.183 522.587 354.695C502.332 377.167 486.22 403.687 466.283 426.482C446.347 449.276 421.075 468.809 392.333 471.426C370.048 473.45 348.187 465.109 326.043 461.486C252.128 449.418 175.073 489.85 103.259 467.017C60.1047 453.35 23.7728 416.232 8.40429 370.05C-6.96419 323.868 -0.967889 270.002 24.0206 229.222C38.5038 205.577 58.582 186.676 74.9774 164.681C111.852 115.069 134.634 45.4224 189.828 24.1493C206.908 17.5611 225.345 16.6715 243.464 15.8077C285.757 13.8222 330.812 12.5845 366.979 36.6037C393.655 54.4087 411.833 83.7011 433.693 108.043C459.225 136.407 485.972 152.871 519.341 165.055C548.851 175.846 584.262 192.903 592.442 229.364C592.911 231.428 593.27 233.52 593.516 235.63C596.337 258.772 586.599 282.443 573.048 300.79Z" fill="#000045"/>
<path opacity="0.24" d="M266.883 183.607C237.196 173.37 203.733 167.285 175.817 182.318C139.756 201.812 124.612 249.773 92.6948 276.551C85.0578 282.998 76.3466 288.258 70.6454 296.742C66.4197 303.098 64.1652 310.743 62.9848 318.479C59.125 343.852 66.9745 370.862 83.0512 389.699C99.1279 408.535 122.842 418.991 146.378 418.346C169.915 417.702 191.894 406.846 214.757 401.147C285.686 383.446 358.551 416.026 431.285 418.05C448.519 418.527 467.535 416.464 479.551 402.939C493.633 387.081 493.007 361.296 504.398 343.04C510.689 332.957 520.179 325.918 528.265 317.499C536.351 309.08 543.504 297.966 542.666 285.796C541.757 272.709 531.688 262.279 520.652 257.045C509.615 251.81 497.434 250.482 485.771 247.311C462.613 241.032 441.708 227.598 419.67 217.657C394.033 206.312 372.786 208.787 346.416 207.601C319.173 206.428 292.52 192.452 266.883 183.607Z" fill="#000045"/>
<path d="M424.722 238.453C403.665 236.261 381.769 235.243 362.009 243.481L371.051 248.162C372.041 248.772 373.14 249.142 374.273 249.245C375.481 249.143 376.658 248.775 377.732 248.162C385.133 244.822 393.407 244.797 401.422 245.145C434.402 246.576 467.204 253.383 500.172 251.784C506.074 251.488 512.094 250.895 517.429 248.162C509.426 245.493 501.199 241.831 492.995 240.052C486.822 238.763 480.814 241.096 474.522 241.509C457.679 242.605 441.342 238.453 424.722 238.453Z" fill="url(#paint0_linear_16_145)"/>
<path d="M427.992 239.987C406.934 237.796 385.038 236.777 365.279 245.016L374.32 249.696C375.311 250.306 376.41 250.676 377.543 250.779C378.75 250.672 379.926 250.304 381.001 249.696C388.402 246.344 396.677 246.331 404.692 246.679C437.671 248.11 470.474 254.917 503.442 253.306C509.344 253.022 515.363 252.429 520.699 249.683C512.696 247.027 504.469 243.353 496.265 241.586C490.092 240.297 484.083 242.631 477.792 243.043C460.984 244.126 444.647 239.987 427.992 239.987Z" fill="#000045"/>
<path d="M422.798 242.708C401.741 240.503 379.856 239.498 360.097 247.736L369.127 252.416C370.118 253.025 371.217 253.394 372.349 253.499C373.557 253.396 374.733 253.027 375.808 252.416C383.22 249.064 391.495 249.051 399.51 249.399C432.478 250.83 465.292 257.638 498.26 256.026C504.162 255.743 510.182 255.149 515.517 252.403C507.502 249.747 499.287 246.073 491.071 244.307C484.91 243.017 478.902 245.351 472.598 245.751C455.79 246.846 439.465 242.708 422.798 242.708Z" fill="#000045"/>
<path d="M422.798 242.708C401.741 240.503 379.856 239.498 360.097 247.736L369.127 252.416C370.118 253.025 371.217 253.394 372.349 253.499C373.557 253.396 374.733 253.027 375.808 252.416C383.22 249.064 391.495 249.051 399.51 249.399C432.478 250.83 465.292 257.638 498.26 256.026C504.162 255.743 510.182 255.149 515.517 252.403C507.502 249.747 499.287 246.073 491.071 244.307C484.91 243.017 478.902 245.351 472.598 245.751C455.79 246.846 439.465 242.708 422.798 242.708Z" fill="url(#paint1_linear_16_145)"/>
<path d="M426.104 244.242C405.046 242.037 383.161 241.019 363.402 249.27L372.432 254.015C373.423 254.624 374.522 254.993 375.654 255.098C376.862 254.994 378.038 254.626 379.113 254.015C386.526 250.663 394.8 250.637 402.815 250.985C435.783 252.429 468.597 259.224 501.565 257.625C507.467 257.341 513.487 256.735 518.822 254.002C510.807 251.282 502.627 247.568 494.365 245.828C488.191 244.539 482.195 246.872 475.892 247.285C459.095 248.381 442.77 244.242 426.104 244.242Z" fill="#000045"/>
<path d="M535.04 248.394C531.766 246.6 528.61 244.558 525.597 242.282C508.768 230.641 489.632 223.568 469.789 221.654C469.051 221.506 468.289 221.591 467.594 221.899C466.213 222.685 466.142 224.838 466.614 226.463C469.211 235.32 480.236 236.777 486.185 243.469C486.528 243.791 486.81 244.185 487.012 244.628C487.215 245.071 487.335 245.553 487.365 246.047C487.306 247.904 485.228 248.729 483.552 249.077C463.085 253.306 441.873 257.509 421.642 252.12C412.777 249.76 404.267 245.583 395.189 244.577C394.175 244.386 393.132 244.493 392.168 244.887C391.357 245.428 390.744 246.26 390.431 247.241C390.119 248.221 390.128 249.289 390.456 250.263C391.165 252.197 392.35 253.879 393.879 255.124C404.503 265.141 418.301 269.912 431.651 274.463C449.038 280.342 466.72 286.286 484.91 286.53C490.517 286.608 496.112 286.131 501.695 285.667L541.757 282.315C542.845 282.3 543.92 282.05 544.92 281.58C546.188 280.714 547.187 279.452 547.788 277.957C551.065 271.292 552.692 263.808 552.51 256.245C552.333 248.703 540.269 250.985 535.04 248.394Z" fill="url(#paint2_linear_16_145)"/>
<path d="M547.871 237.912C547.488 237.769 547.073 237.769 546.691 237.912C546.398 238.101 546.167 238.385 546.03 238.724C543.338 243.881 542.795 249.941 540.93 255.485C539.974 258.347 538.664 261.054 537.767 263.942C536.91 266.995 536.294 270.122 535.925 273.29C535.127 278.093 534.649 282.954 534.497 287.833C534.429 288.433 534.546 289.04 534.828 289.56C535.14 289.954 535.55 290.24 536.008 290.385C540.475 292.255 545.238 293.131 550.019 292.964C550.347 292.987 550.673 292.897 550.952 292.706C551.18 292.46 551.336 292.146 551.4 291.804C553.761 283.157 555.772 274.398 557.432 265.528C558.219 261.067 558.931 256.581 559.568 252.068C559.875 249.812 560.312 247.478 560.43 245.196C560.548 242.914 559.769 242.373 557.845 241.328C554.623 239.858 551.285 238.714 547.871 237.912Z" fill="white"/>
<path d="M161.086 199.865L160.897 196.242C160.918 194.872 161.396 193.556 162.241 192.543C163.086 191.529 164.241 190.887 165.489 190.737L173.149 189.86C174.422 189.709 175.701 190.086 176.731 190.918C177.761 191.749 178.467 192.973 178.709 194.347L179.299 197.867L176.667 198.395L176.077 194.901C175.961 194.245 175.624 193.66 175.132 193.264C174.64 192.867 174.029 192.688 173.421 192.761L165.76 193.638C165.173 193.709 164.629 194.009 164.228 194.482C163.827 194.956 163.595 195.572 163.576 196.216L163.765 199.698L161.086 199.865Z" fill="#606161"/>
<path d="M183.607 259.172C181.388 267.707 177.705 275.701 175.345 284.223C172.712 294.111 172.11 304.477 171.52 314.753C172.476 316.506 174.873 316.687 176.501 315.668C178.028 314.496 179.248 312.91 180.043 311.065C196.26 280.671 210.051 248.807 221.261 215.826L253.969 221.783C254.472 221.727 254.98 221.804 255.451 222.006C255.922 222.208 256.341 222.53 256.675 222.945C257.008 223.36 257.247 223.855 257.369 224.391C257.492 224.927 257.496 225.487 257.381 226.025L256.85 263.581L264.805 263.775C265.149 263.896 265.515 263.924 265.871 263.857C266.228 263.79 266.564 263.63 266.851 263.391C267.139 263.152 267.369 262.84 267.523 262.483C267.676 262.125 267.748 261.732 267.733 261.338L275.346 210.347C275.771 207.523 276.16 204.455 274.874 201.954C273.839 200.259 272.431 198.876 270.778 197.931C255.258 187.514 237.299 182.255 219.089 182.795C213.896 182.95 208.619 183.582 203.579 182.215C195.553 180.023 192.118 174.273 189.415 185.374C187.444 193.432 187.054 201.876 186.818 210.179C186.464 226.502 187.762 243.262 183.607 259.172Z" fill="#606161"/>
<path d="M183.607 259.172C181.388 267.707 177.705 275.701 175.345 284.223C172.712 294.111 172.11 304.477 171.52 314.753C172.476 316.506 174.873 316.687 176.501 315.668C178.028 314.496 179.248 312.91 180.043 311.065C196.26 280.671 210.051 248.807 221.261 215.826L253.969 221.783C254.472 221.727 254.98 221.804 255.451 222.006C255.922 222.208 256.341 222.53 256.675 222.945C257.008 223.36 257.247 223.855 257.369 224.391C257.492 224.927 257.496 225.487 257.381 226.025L256.85 263.581L264.805 263.775C265.149 263.896 265.515 263.924 265.871 263.857C266.228 263.79 266.564 263.63 266.851 263.391C267.139 263.152 267.369 262.84 267.523 262.483C267.676 262.125 267.748 261.732 267.733 261.338L275.346 210.347C275.771 207.523 276.16 204.455 274.874 201.954C273.839 200.259 272.431 198.876 270.778 197.931C255.258 187.514 237.299 182.255 219.089 182.795C213.896 182.95 208.619 183.582 203.579 182.215C195.553 180.023 192.118 174.273 189.415 185.374C187.444 193.432 187.054 201.876 186.818 210.179C186.464 226.502 187.762 243.262 183.607 259.172Z" fill="url(#paint3_linear_16_145)"/>
<path d="M279.3 150.331C279.3 151.62 279.3 152.794 279.3 153.993C279.3 154.508 279.3 154.972 279.3 155.437L260.863 160.697C257.227 161.715 253.344 162.721 249.815 161.432C247.594 160.486 245.558 159.085 243.818 157.306C240.092 154.126 236.664 150.55 233.584 146.631C233.018 145.896 232.475 145.122 231.944 144.297C229.371 140.392 227.497 135.992 226.419 131.327C226.065 129.728 225.133 128.607 226.065 127.317C226.809 126.312 228.981 126.196 230.055 126.312C231.902 126.621 233.673 127.336 235.261 128.413C243.11 133.197 249.555 140.172 256.401 146.553C256.947 147.104 257.563 147.564 258.231 147.92C259.197 148.32 260.219 148.534 261.252 148.552L278.474 149.48C278.586 149.467 278.699 149.48 278.805 149.52C278.911 149.561 279.008 149.626 279.088 149.712C279.164 149.791 279.223 149.887 279.26 149.995C279.297 150.102 279.311 150.217 279.3 150.331Z" fill="#000045"/>
<path d="M224.495 184.961C222.607 188.275 211.759 186.947 204.169 184.69C201.744 184.113 199.42 183.112 197.288 181.725C195.718 180.436 194.042 178.889 193.747 176.787C193.633 175.663 193.717 174.525 193.995 173.435C195.812 163.817 197.666 154.199 199.483 144.568C199.908 142.389 200.31 140.172 200.735 137.993C201.107 135.682 201.704 133.421 202.517 131.25C203.383 129.25 204.461 127.368 205.728 125.641C206.908 123.927 205.338 121.013 207.297 120.858C212.999 120.381 215.82 120.265 218.629 121.593C222.17 123.308 227.73 124.636 231.224 126.544C232.251 127.085 231.33 128.22 232.038 129.264C232.542 130.157 232.871 131.153 233.006 132.191C235.721 145.857 231.2 173.009 224.495 184.961Z" fill="#000045"/>
<path d="M212.597 120.497L213.435 134.615L219.502 131.147L223.315 134.344L223.103 132.475L213.435 120.549L212.597 120.497Z" fill="#606161"/>
<path d="M222.772 122.973L223.421 133.493L219.55 130.051L222.772 122.973Z" fill="#000045"/>
<path d="M213.99 121.915C213.778 122.633 213.747 123.4 213.901 124.135C214.055 124.87 214.387 125.547 214.864 126.093C215.42 126.594 216.081 126.939 216.788 127.098C217.59 127.317 218.712 130.038 219.55 130.051C219.975 130.051 220.435 128.091 220.801 127.859C221.167 127.627 221.179 126.428 221.415 125.964L223.008 122.882C223.328 122.403 223.464 121.806 223.386 121.219C223.178 120.726 222.813 120.332 222.359 120.11L219.408 118.215C218.31 117.493 214.923 115.031 214.793 116.642C214.641 118.419 214.373 120.181 213.99 121.915Z" fill="url(#paint4_linear_16_145)"/>
<path d="M217.354 120.02C217.354 120.02 217.26 126.067 220.494 127.188C221.519 125.976 222.296 124.539 222.772 122.973C223.834 119.93 217.354 120.02 217.354 120.02Z" fill="url(#paint5_linear_16_145)"/>
<path d="M261.831 53.6093C254.855 54.5247 248.032 58.1992 241.103 56.9357C237.657 56.3039 234.505 54.4732 231.224 53.1839C226.553 51.378 221.598 50.6152 216.653 50.9407C211.707 51.2663 206.872 52.6736 202.434 55.0791C208.206 56.7681 214.238 59.179 217.874 64.3232C222.253 70.4215 222.501 79.1242 226.774 85.2998C230.138 90.1733 235.626 92.8421 241.151 93.7317C246.675 94.6213 252.293 93.9122 257.829 93.1773C260.072 92.8808 262.551 92.61 264.451 93.9122C266.352 95.2144 267.201 97.5093 268.346 99.5206C272.041 105.967 280.764 108.997 287.646 107.656C288.059 96.2587 292.934 75.9783 288.554 66.154C284.399 56.7552 270.506 52.4748 261.831 53.6093Z" fill="#000045"/>
<path d="M575.81 295.865C572.607 300.17 569.195 304.284 565.588 308.19C561.693 307.198 557.739 306.398 553.785 305.792C552.858 305.743 551.967 305.383 551.235 304.761C550.892 304.247 550.65 303.661 550.524 303.039C550.398 302.418 550.391 301.775 550.503 301.151C551.632 279.397 553.93 257.734 557.385 236.274L579.068 239.665C580.119 239.859 588.995 241.135 592.631 242.36C594.885 261.338 586.894 280.793 575.81 295.865Z" fill="#000045"/>
<path d="M351.704 272.31H245.671V303.433H351.704V272.31Z" fill="#000045"/>
<path d="M245.671 327.916H139.638V359.04H245.671V327.916Z" fill="#000045"/>
<path d="M149.731 375.555H43.6975V406.678H149.731V375.555Z" fill="#000045"/>
<path d="M203.78 428.919H97.7468V460.042H203.78V428.919Z" fill="#000045"/>
<path d="M231.377 113.11C231.637 113.536 231.791 114.029 231.826 114.541C231.826 115.34 231.141 115.894 230.551 116.359C229.177 117.298 228.018 118.568 227.163 120.072C226.597 121.206 226.29 122.65 225.334 123.334C224.035 124.352 222.241 123.707 220.777 123.037C218.948 122.199 214.557 117.88 214.462 116.926C214.191 114.347 215.43 111.395 216.28 108.997C217.283 106.199 218.901 103.44 221.427 102.228C222.333 101.798 223.314 101.582 224.302 101.595C225.291 101.609 226.266 101.851 227.163 102.305C231.967 104.794 229.453 108.984 231.377 113.11Z" fill="url(#paint6_linear_16_145)"/>
<path d="M224.956 96.2716C228.129 97.0234 231.014 98.824 233.218 101.429C233.648 101.903 233.932 102.511 234.033 103.169C234.035 103.548 233.966 103.923 233.83 104.271C233.694 104.619 233.494 104.933 233.242 105.193C232.453 106.039 231.479 106.649 230.413 106.967C229.347 107.286 228.224 107.301 227.151 107.011C226.018 106.565 224.813 106.372 223.61 106.444C222.438 106.838 221.444 107.699 220.825 108.855C219.908 110.272 219.184 111.826 218.676 113.471C218.393 113.471 218.204 113.135 218.192 112.826C218.23 112.512 218.193 112.192 218.086 111.898C217.972 111.74 217.807 111.636 217.624 111.607C217.442 111.578 217.257 111.627 217.106 111.743C216.815 111.991 216.621 112.35 216.563 112.749C216.473 113.24 216.486 113.748 216.603 114.233C216.72 114.717 216.936 115.167 217.236 115.546C216.763 115.522 216.291 115.627 215.865 115.852C215.438 116.077 215.07 116.415 214.793 116.836C214.71 116.964 214.604 117.106 214.474 117.068C214.411 117.039 214.357 116.989 214.321 116.926C213.428 115.439 212.84 113.759 212.598 112.001C212.355 110.243 212.464 108.448 212.916 106.741C213.132 105.667 213.533 104.648 214.096 103.736C214.487 103.103 215.019 102.588 215.643 102.241C216.162 101.97 217.095 102.035 217.472 101.558C218.074 100.81 217.767 98.9791 218.133 98.0637C219.113 95.2788 222.878 95.7043 224.956 96.2716Z" fill="#606161"/>
<path d="M224.956 96.2716C228.129 97.0234 231.014 98.824 233.218 101.429C233.648 101.903 233.932 102.511 234.033 103.169C234.035 103.548 233.966 103.923 233.83 104.271C233.694 104.619 233.494 104.933 233.242 105.193C232.453 106.039 231.479 106.649 230.413 106.967C229.347 107.286 228.224 107.301 227.151 107.011C226.018 106.565 224.813 106.372 223.61 106.444C222.438 106.838 221.444 107.699 220.825 108.855C219.908 110.272 219.184 111.826 218.676 113.471C218.393 113.471 218.204 113.135 218.192 112.826C218.23 112.512 218.193 112.192 218.086 111.898C217.972 111.74 217.807 111.636 217.624 111.607C217.442 111.578 217.257 111.627 217.106 111.743C216.815 111.991 216.621 112.35 216.563 112.749C216.473 113.24 216.486 113.748 216.603 114.233C216.72 114.717 216.936 115.167 217.236 115.546C216.763 115.522 216.291 115.627 215.865 115.852C215.438 116.077 215.07 116.415 214.793 116.836C214.71 116.964 214.604 117.106 214.474 117.068C214.411 117.039 214.357 116.989 214.321 116.926C213.428 115.439 212.84 113.759 212.598 112.001C212.355 110.243 212.464 108.448 212.916 106.741C213.132 105.667 213.533 104.648 214.096 103.736C214.487 103.103 215.019 102.588 215.643 102.241C216.162 101.97 217.095 102.035 217.472 101.558C218.074 100.81 217.767 98.9791 218.133 98.0637C219.113 95.2788 222.878 95.7043 224.956 96.2716Z" fill="url(#paint7_linear_16_145)"/>
<path d="M285.438 147.005C285.414 147.221 285.336 147.426 285.214 147.598C285.058 147.726 284.876 147.81 284.683 147.843L281.307 148.694C280.544 148.842 279.807 149.12 279.123 149.519C278.78 149.719 278.487 150.008 278.271 150.361C278.055 150.714 277.922 151.12 277.884 151.543C277.903 152.082 278.071 152.602 278.366 153.035C278.661 153.468 279.069 153.793 279.536 153.967C280.443 154.327 281.405 154.489 282.369 154.444C284.298 154.526 286.23 154.478 288.153 154.302C289.512 154.237 290.832 153.794 291.989 153.013C292.671 152.466 293.208 151.732 293.546 150.885C293.884 150.038 294.011 149.109 293.913 148.191C293.713 146.373 291.989 143.498 290.266 142.931C287.693 142.054 285.993 144.71 285.438 147.005Z" fill="url(#paint8_linear_16_145)"/>
<path d="M211.653 124.636C211.058 126.562 210.569 128.525 210.189 130.515C209.981 133.595 208.886 136.523 207.061 138.882C205.999 140.415 204.691 141.725 203.202 142.75C197.961 146.334 190.937 145.058 185.496 148.126C184.522 148.621 183.647 149.322 182.923 150.189C181.435 152.059 181.034 154.637 180.645 157.087C179.425 164.599 177.961 172.051 176.254 179.443C176.086 180.592 175.66 181.677 175.014 182.602C173.303 184.665 170.293 184.046 167.932 183.259L168.357 163.52C168.298 158.998 168.73 154.484 169.643 150.073C170.741 145.677 173.491 142.209 176.383 138.973C180.338 134.537 190.819 125.229 202.352 121.838L204.559 121.258C206.747 120.722 208.986 120.471 211.228 120.51C211.339 120.512 211.449 120.543 211.547 120.6C212.255 120.974 212.09 122.689 211.653 124.636Z" fill="#000045"/>
<path d="M211.653 124.636C209.764 124.984 206.932 125.487 202.67 126.312C189.981 128.684 175.746 144.968 173.397 150.06C171.048 155.153 170.788 180.487 170.788 180.487L167.838 183.285L168.262 163.546C168.204 159.024 168.636 154.51 169.549 150.099C170.647 145.703 173.397 142.234 176.289 138.998C180.243 134.563 190.725 125.255 202.257 121.864L204.465 121.284C206.653 120.748 208.891 120.497 211.134 120.536C211.245 120.538 211.354 120.569 211.452 120.626C212.255 120.974 212.09 122.689 211.653 124.636Z" fill="url(#paint9_linear_16_145)"/>
<path d="M219.184 136.433C219.184 136.433 217.472 146.167 211.547 146.321C208.962 146.309 206.396 145.825 203.957 144.89C204.205 148.939 196.462 176.31 198.504 179.082C200.192 181.179 202.093 183.061 204.169 184.69C201.744 184.113 199.42 183.112 197.288 181.725C195.718 180.436 194.042 178.889 193.747 176.787C193.633 175.663 193.717 174.525 193.995 173.435C195.812 163.817 197.666 154.199 199.483 144.568C199.998 144.304 200.536 144.097 201.089 143.949C199.092 143.198 197.054 142.587 194.986 142.118C190.203 141.298 185.333 141.298 180.55 142.118L177.658 137.877L181.117 134.563L211.712 142.699L219.184 136.433Z" fill="url(#paint10_linear_16_145)"/>
<path d="M173.303 185.258C172.948 186.592 173.014 188.018 173.491 189.306C173.666 189.58 173.805 189.88 173.905 190.196C173.953 190.413 173.945 190.641 173.88 190.853C173.815 191.065 173.697 191.253 173.539 191.395C173.369 191.526 173.17 191.606 172.963 191.626C172.756 191.647 172.547 191.607 172.358 191.511C172.177 191.348 171.968 191.226 171.745 191.15C171.19 191.021 170.836 191.768 170.706 192.374C170.446 193.561 170.151 194.953 169.136 195.43C168.548 195.603 167.922 195.542 167.371 195.259C166.82 194.976 166.379 194.488 166.126 193.883C165.579 192.841 165.371 191.628 165.536 190.441C165.961 187.372 168.664 185.283 169.821 182.473C170.092 181.777 169.927 182.112 170.423 181.583C170.658 181.338 170.944 181.16 171.257 181.063C171.569 180.966 171.899 180.955 172.217 181.029C174.483 181.583 173.551 183.607 173.303 185.258Z" fill="url(#paint11_linear_16_145)"/>
<path d="M257.109 270.995C264.853 271.562 272.612 271.828 280.386 271.794C280.386 270.376 279.206 269.357 278.025 268.648C275.275 266.882 272.454 265.232 269.822 263.259C267.827 261.763 265.183 258.012 262.633 257.973C258.443 257.883 254.442 270.776 257.109 270.995Z" fill="#606161"/>
<path d="M163.86 323.107C163.492 323.667 163.332 324.358 163.411 325.041C163.544 325.385 163.744 325.694 163.996 325.945C164.249 326.197 164.549 326.386 164.875 326.498C167.939 327.762 171.196 328.379 174.471 328.316C179.326 328.497 184.174 328.449 189.013 328.174C189.437 328.216 189.863 328.149 190.259 327.979C190.654 327.809 191.008 327.54 191.292 327.194C191.461 326.83 191.525 326.417 191.474 326.011C191.424 325.606 191.261 325.227 191.008 324.925C190.469 324.367 189.836 323.929 189.143 323.636C186.414 322.292 183.816 320.651 181.388 318.737C179.098 316.841 177.245 313.58 174.601 312.29C169.537 309.763 165.819 319.265 163.86 323.107Z" fill="#606161"/>
<path d="M283.089 271.742L286.158 271.871L291.93 66.9147L288.602 66.1411L283.089 271.742Z" fill="#000045"/>
<path d="M283.089 271.742L286.158 271.871L291.93 66.9147L288.602 66.1411L283.089 271.742Z" fill="url(#paint12_linear_16_145)"/>
<path d="M214.061 120.265L219.55 130.051L214.321 133.429L212.184 120.678L214.061 120.265Z" fill="#000045"/>
<path d="M218.157 134.112C218.103 134.398 218.007 134.672 217.874 134.924C216.917 136.961 215.867 139.114 214.049 140.249C212.624 141.06 210.99 141.324 209.41 140.997C207.849 140.664 206.334 140.114 204.901 139.359C201.962 137.956 199.09 136.39 196.296 134.666C193.416 132.887 190.536 130.902 187.266 130.334C185.607 130.104 183.93 130.061 182.262 130.205L178.721 130.386C178.431 130.371 178.142 130.438 177.882 130.579C177.734 130.69 177.606 130.83 177.505 130.992L173.586 136.149L180.786 139.746C181.157 139.954 181.555 140.097 181.967 140.172C182.439 140.208 182.913 140.16 183.371 140.03C187.829 139.089 192.42 139.217 196.827 140.404C200.947 141.512 204.866 143.537 209.068 144.271C210.634 144.585 212.243 144.532 213.789 144.117C215.277 143.607 216.588 142.615 217.547 141.272C218.506 139.93 219.069 138.3 219.16 136.6C219.149 136.201 219.205 135.804 219.325 135.427C219.573 134.86 220.14 134.576 220.506 134.138C220.769 133.834 220.951 133.457 221.032 133.047C221.113 132.638 221.09 132.213 220.966 131.817C220.831 131.424 220.6 131.078 220.298 130.817C219.997 130.556 219.636 130.389 219.255 130.334C218.688 130.747 217.697 131.147 217.59 131.972C217.484 132.797 218.157 133.287 218.157 134.112Z" fill="#606161"/>
<path d="M218.157 134.112C218.103 134.398 218.007 134.672 217.874 134.924C216.917 136.961 215.867 139.114 214.049 140.249C212.624 141.06 210.99 141.324 209.41 140.997C207.849 140.664 206.334 140.114 204.901 139.359C201.962 137.956 199.09 136.39 196.296 134.666C193.416 132.887 190.536 130.902 187.266 130.334C185.607 130.104 183.93 130.061 182.262 130.205L178.721 130.386C178.431 130.371 178.142 130.438 177.882 130.579C177.734 130.69 177.606 130.83 177.505 130.992L173.586 136.149L180.786 139.746C181.157 139.954 181.555 140.097 181.967 140.172C182.439 140.208 182.913 140.16 183.371 140.03C187.829 139.089 192.42 139.217 196.827 140.404C200.947 141.512 204.866 143.537 209.068 144.271C210.634 144.585 212.243 144.532 213.789 144.117C215.277 143.607 216.588 142.615 217.547 141.272C218.506 139.93 219.069 138.3 219.16 136.6C219.149 136.201 219.205 135.804 219.325 135.427C219.573 134.86 220.14 134.576 220.506 134.138C220.769 133.834 220.951 133.457 221.032 133.047C221.113 132.638 221.09 132.213 220.966 131.817C220.831 131.424 220.6 131.078 220.298 130.817C219.997 130.556 219.636 130.389 219.255 130.334C218.688 130.747 217.697 131.147 217.59 131.972C217.484 132.797 218.157 133.287 218.157 134.112Z" fill="url(#paint13_linear_16_145)"/>
<path d="M217.779 113.703C217.779 113.522 217.909 113.38 217.909 113.2C217.884 113.02 217.795 112.858 217.661 112.749C217.606 112.678 217.531 112.628 217.449 112.607C217.376 112.607 217.305 112.634 217.248 112.684C217.173 112.773 217.117 112.88 217.084 112.996C217.051 113.112 217.043 113.234 217.059 113.355C217.065 113.798 217.149 114.235 217.307 114.644C217.401 114.889 217.567 115.16 217.815 115.185C217.925 115.191 218.035 115.164 218.133 115.108C218.346 115.005 218.653 114.631 218.428 114.373C218.204 114.115 218.121 114.257 217.992 114.154C217.925 114.103 217.871 114.036 217.834 113.957C217.797 113.878 217.778 113.791 217.779 113.703Z" fill="url(#paint14_linear_16_145)"/>
<path opacity="0.22" d="M279.536 153.954L279.288 155.437L260.851 160.697C257.215 161.715 253.332 162.721 249.803 161.432C247.582 160.486 245.547 159.085 243.806 157.306C240.081 154.126 236.652 150.55 233.573 146.631L233.962 143.833C233.962 143.833 247.902 157.809 252.931 157.538C257.652 157.267 277.046 154.354 279.324 153.993L279.536 153.954Z" fill="#606161"/>
<path d="M200.812 193.521L152.866 198.462C151.074 198.647 149.759 200.382 149.928 202.339L152.985 237.727C153.154 239.684 154.743 241.12 156.535 240.936L204.481 235.995C206.272 235.81 207.587 234.074 207.418 232.118L204.361 196.729C204.192 194.773 202.603 193.336 200.812 193.521Z" fill="#606161"/>
<path d="M199.682 193.637L151.736 198.578C149.944 198.762 148.629 200.498 148.798 202.455L151.855 237.843C152.024 239.8 153.613 241.236 155.405 241.051L203.351 236.11C205.142 235.926 206.457 234.19 206.288 232.233L203.231 196.845C203.062 194.889 201.473 193.452 199.682 193.637Z" fill="url(#paint15_linear_16_145)"/>
<path d="M191.815 194.542L143.869 199.484C142.077 199.668 140.762 201.404 140.931 203.361L143.988 238.749C144.157 240.705 145.746 242.142 147.538 241.957L195.484 237.016C197.275 236.831 198.59 235.096 198.421 233.139L195.365 197.751C195.196 195.794 193.606 194.358 191.815 194.542Z" fill="#606161"/>
<path d="M167.838 183.285L168.758 184.213C168.758 184.213 171.65 180.345 173.716 183.878L174.967 182.589C174.967 182.589 170.942 177.006 167.838 183.285Z" fill="#000045"/>
<path d="M167.838 183.285L168.758 184.213C168.758 184.213 171.65 180.345 173.716 183.878L174.967 182.589C174.967 182.589 170.942 177.006 167.838 183.285Z" fill="url(#paint16_linear_16_145)"/>
<path d="M279.17 149.583L277.848 149.454C277.848 149.454 277.66 154.831 278.545 155.553L279.229 155.488L279.761 154.199C279.159 152.755 278.954 151.152 279.17 149.583Z" fill="#000045"/>
<path opacity="0.22" d="M279.17 149.583L277.848 149.454C277.848 149.454 277.66 154.831 278.545 155.553L279.229 155.488L279.761 154.199C279.159 152.755 278.954 151.152 279.17 149.583Z" fill="#606161"/>
<path d="M555.52 279.955C555.191 279.822 554.836 279.781 554.489 279.837C554.142 279.893 553.813 280.043 553.533 280.275C553.253 280.506 553.031 280.81 552.887 281.16C552.743 281.51 552.683 281.894 552.711 282.276C551.965 288.658 551.78 295.104 552.156 301.525C552.141 302.395 552.327 303.256 552.699 304.026C553.726 305.767 556.039 305.612 557.916 305.87C560.076 306.153 562.236 307.159 564.337 306.617C565.987 305.951 567.42 304.767 568.457 303.214C574.087 296.226 581.547 287.871 584.982 279.285C581.087 278.06 574.606 280.045 570.345 280.2C565.403 280.381 560.462 280.299 555.52 279.955Z" fill="url(#paint17_linear_16_145)"/>
<path d="M287.02 89.2063C287.02 89.2063 279.076 69.8671 261.252 76.9582C243.429 84.0492 222.43 65.4449 222.43 65.4449C222.43 65.4449 226.113 88.1104 239.168 90.2764C252.222 92.4424 263.849 85.996 268.453 95.2144C275.476 109.28 287.02 104.897 287.02 104.897V89.2063Z" fill="url(#paint18_linear_16_145)"/>
</g>
<defs>
<linearGradient id="paint0_linear_16_145" x1="48828.2" y1="3436.69" x2="69292.3" y2="3436.69" gradientUnits="userSpaceOnUse">
<stop stop-color="#010101" stop-opacity="0"/>
<stop offset="0.95" stop-color="#010101"/>
</linearGradient>
<linearGradient id="paint1_linear_16_145" x1="48579.1" y1="3490.06" x2="69043.3" y2="3490.06" gradientUnits="userSpaceOnUse">
<stop stop-color="#010101" stop-opacity="0"/>
<stop offset="0.95" stop-color="#010101"/>
</linearGradient>
<linearGradient id="paint2_linear_16_145" x1="480.873" y1="316.635" x2="462.6" y2="213.215" gradientUnits="userSpaceOnUse">
<stop stop-color="#E5C6D6"/>
<stop offset="0.42" stop-color="#EAD4D0"/>
<stop offset="1" stop-color="#F0E9CB"/>
</linearGradient>
<linearGradient id="paint3_linear_16_145" x1="20137.1" y1="30445.6" x2="15583.9" y2="27817.6" gradientUnits="userSpaceOnUse">
<stop stop-color="#010101" stop-opacity="0"/>
<stop offset="0.95" stop-color="#010101"/>
</linearGradient>
<linearGradient id="paint4_linear_16_145" x1="2003.17" y1="1753.84" x2="2081.24" y2="1753.84" gradientUnits="userSpaceOnUse">
<stop stop-color="#E5C6D6"/>
<stop offset="0.42" stop-color="#EAD4D0"/>
<stop offset="1" stop-color="#F0E9CB"/>
</linearGradient>
<linearGradient id="paint5_linear_16_145" x1="1278.03" y1="974.596" x2="1281.28" y2="849.107" gradientUnits="userSpaceOnUse">
<stop stop-color="#010101" stop-opacity="0"/>
<stop offset="0.95" stop-color="#010101"/>
</linearGradient>
<linearGradient id="paint6_linear_16_145" x1="3465.71" y1="2538.09" x2="3722.21" y2="2538.09" gradientUnits="userSpaceOnUse">
<stop stop-color="#E5C6D6"/>
<stop offset="0.42" stop-color="#EAD4D0"/>
<stop offset="1" stop-color="#F0E9CB"/>
</linearGradient>
<linearGradient id="paint7_linear_16_145" x1="4440" y1="2392.24" x2="4244.26" y2="2156.8" gradientUnits="userSpaceOnUse">
<stop stop-color="#010101" stop-opacity="0"/>
<stop offset="0.95" stop-color="#010101"/>
</linearGradient>
<linearGradient id="paint8_linear_16_145" x1="4142.73" y1="1751.7" x2="4360.2" y2="1751.7" gradientUnits="userSpaceOnUse">
<stop stop-color="#E5C6D6"/>
<stop offset="0.42" stop-color="#EAD4D0"/>
<stop offset="1" stop-color="#F0E9CB"/>
</linearGradient>
<linearGradient id="paint9_linear_16_145" x1="192.354" y1="155.321" x2="148.261" y2="108.375" gradientUnits="userSpaceOnUse">
<stop stop-color="white" stop-opacity="0"/>
<stop offset="0.95" stop-color="white"/>
</linearGradient>
<linearGradient id="paint10_linear_16_145" x1="8684.59" y1="8797.04" x2="-4943.29" y2="-4385.39" gradientUnits="userSpaceOnUse">
<stop stop-color="#010101" stop-opacity="0"/>
<stop offset="0.95" stop-color="#010101"/>
</linearGradient>
<linearGradient id="paint11_linear_16_145" x1="1394.63" y1="2625.01" x2="1455" y2="2625.01" gradientUnits="userSpaceOnUse">
<stop stop-color="#E5C6D6"/>
<stop offset="0.42" stop-color="#EAD4D0"/>
<stop offset="1" stop-color="#F0E9CB"/>
</linearGradient>
<linearGradient id="paint12_linear_16_145" x1="2431.1" y1="24657.1" x2="2482.33" y2="24657.1" gradientUnits="userSpaceOnUse">
<stop stop-color="#010101" stop-opacity="0"/>
<stop offset="0.95" stop-color="#010101"/>
</linearGradient>
<linearGradient id="paint13_linear_16_145" x1="7405.95" y1="1972.46" x2="9317.58" y2="1972.46" gradientUnits="userSpaceOnUse">
<stop stop-color="#010101" stop-opacity="0"/>
<stop offset="0.95" stop-color="#010101"/>
</linearGradient>
<linearGradient id="paint14_linear_16_145" x1="492.505" y1="397.202" x2="498.564" y2="397.104" gradientUnits="userSpaceOnUse">
<stop stop-color="#010101" stop-opacity="0"/>
<stop offset="0.95" stop-color="#010101"/>
</linearGradient>
<linearGradient id="paint15_linear_16_145" x1="9244.84" y1="8259.18" x2="10720.6" y2="7984.64" gradientUnits="userSpaceOnUse">
<stop stop-color="#010101" stop-opacity="0"/>
<stop offset="0.95" stop-color="#010101"/>
</linearGradient>
<linearGradient id="paint16_linear_16_145" x1="1240.18" y1="809.98" x2="1239.41" y2="1008.22" gradientUnits="userSpaceOnUse">
<stop stop-color="#010101" stop-opacity="0"/>
<stop offset="0.95" stop-color="#010101"/>
</linearGradient>
<linearGradient id="paint17_linear_16_145" x1="16304.5" y1="6933.64" x2="18218.6" y2="9119.55" gradientUnits="userSpaceOnUse">
<stop stop-color="#010101" stop-opacity="0"/>
<stop offset="0.95" stop-color="#010101"/>
</linearGradient>
<linearGradient id="paint18_linear_16_145" x1="10894.7" y1="3444.52" x2="23251.7" y2="4936.7" gradientUnits="userSpaceOnUse">
<stop stop-color="#010101" stop-opacity="0"/>
<stop offset="0.95" stop-color="#010101"/>
</linearGradient>
<clipPath id="clip0_16_145">
<rect width="594" height="489" fill="white"/>
</clipPath>
</defs>
</svg>
