<svg width="3188" height="781" viewBox="0 0 3188 781" fill="none" xmlns="http://www.w3.org/2000/svg">
<path d="M413.16 168.319L319.074 234.018C321.515 235.161 323.927 236.352 326.3 237.562C328.672 238.763 331.016 240.032 333.339 241.291C335.624 242.56 337.899 243.868 340.116 245.196C342.342 246.543 344.539 247.881 346.677 249.267L439.122 182.23C436.838 181.176 434.582 180.073 432.346 178.979C430.11 177.866 427.903 176.744 425.716 175.592C423.549 174.401 421.43 173.229 419.331 172.028C417.241 170.808 415.181 169.588 413.16 168.319Z" fill="white"/>
<path d="M579.665 361.815L479.037 469.531C481.81 470.819 484.544 472.127 487.249 473.504C489.953 474.861 492.619 476.257 495.275 477.702C497.911 479.176 500.508 480.66 503.066 482.183C505.634 483.686 508.163 485.258 510.643 486.878L609.357 376.439C606.789 375.365 604.231 374.232 601.692 373.08C599.163 371.948 596.664 370.767 594.184 369.556C591.694 368.316 589.243 367.057 586.822 365.768C584.39 364.48 582.008 363.172 579.665 361.815ZM735.459 195.028L676.074 258.609C678.31 259.712 680.507 260.844 682.704 261.987C684.911 263.168 687.088 264.33 689.207 265.54C691.365 266.751 693.464 267.981 695.553 269.23C697.623 270.49 699.674 271.778 701.705 273.096L760.103 207.748C757.984 206.782 755.846 205.786 753.747 204.771C751.667 203.755 749.568 202.73 747.498 201.676C745.447 200.602 743.416 199.518 741.405 198.415C739.393 197.312 737.402 196.18 735.459 195.028Z" fill="white"/>
<path d="M908.047 370.24L850.664 470.771C853.173 471.913 855.712 473.075 858.212 474.295C860.711 475.496 863.211 476.745 865.691 478.024C868.151 479.332 870.612 480.65 873.024 481.997C875.445 483.364 877.857 484.779 880.249 486.205L935.21 384.18C932.906 383.145 930.573 382.081 928.268 380.978C925.964 379.885 923.669 378.743 921.424 377.581C919.139 376.429 916.874 375.248 914.657 374.008C912.441 372.768 910.234 371.538 908.047 370.24Z" fill="white"/>
<path d="M335.186 382.55C332.745 382.94 330.216 383.253 327.648 383.546C325.061 383.829 322.454 384.043 319.749 384.219C317.084 384.395 314.32 384.512 311.538 384.571C308.735 384.639 305.875 384.639 302.984 384.6L343.534 448.63C346.083 448.161 348.68 447.781 351.316 447.4C353.952 447.078 356.667 446.785 359.391 446.56C362.115 446.326 364.878 446.15 367.71 446.033C370.532 445.936 373.373 445.877 376.302 445.887L335.186 382.55Z" fill="white"/>
<path d="M712.787 393.571C711.03 393.825 709.223 394.049 707.368 394.215C705.513 394.391 703.628 394.547 701.685 394.664C699.742 394.742 697.76 394.821 695.729 394.84C693.698 394.879 691.638 394.86 689.519 394.821C689.246 394.791 688.963 394.811 688.67 394.772C688.436 394.772 688.114 394.752 687.84 394.752C687.576 394.742 687.274 394.733 687 394.733C686.727 394.723 686.463 394.694 686.17 394.674L735.42 453.482C737.343 453.032 739.326 452.613 741.386 452.251C743.407 451.89 745.506 451.588 747.654 451.334C749.812 451.08 751.989 450.885 754.255 450.729C756.481 450.563 758.785 450.485 761.099 450.426L712.787 393.571ZM552.033 204.351C550.178 204.565 548.284 204.761 546.341 204.897C544.378 205.053 542.376 205.132 540.316 205.21C538.276 205.258 536.147 205.278 533.999 205.258C531.831 205.229 529.644 205.161 527.389 205.053L552.892 235.531C554.699 235.17 556.554 234.877 558.458 234.613C560.362 234.35 562.295 234.145 564.277 233.959C566.259 233.784 568.29 233.666 570.389 233.549C572.449 233.442 574.568 233.413 576.736 233.413L552.033 204.351Z" fill="white"/>
<path d="M859.51 226.862C858.065 227.106 856.562 227.321 854.999 227.487C853.447 227.682 851.826 227.829 850.195 227.936C848.545 228.024 846.817 228.112 845.069 228.131C843.312 228.161 841.496 228.141 839.631 228.092L867.634 255.719C869.108 255.446 870.631 255.202 872.194 254.968C873.775 254.772 875.396 254.616 877.046 254.479C878.696 254.372 880.425 254.294 882.172 254.255C883.901 254.206 885.697 254.206 887.562 254.245L859.51 226.862Z" fill="white"/>
<path d="M681.903 146.12L582.604 136.905C583.141 137.549 583.668 138.184 584.166 138.838C584.683 139.472 585.181 140.126 585.669 140.761C586.148 141.415 586.617 142.069 587.095 142.704C587.544 143.367 588.013 144.041 588.423 144.685C588.872 145.32 589.302 145.974 589.682 146.638C590.083 147.282 590.473 147.917 590.854 148.571C591.215 149.205 591.577 149.849 591.899 150.484C592.241 151.109 592.553 151.743 592.865 152.378L692.751 161.291C692.214 160.666 691.648 160.012 691.111 159.368C690.574 158.743 690.037 158.098 689.548 157.454C689.011 156.81 688.533 156.185 688.054 155.551C687.556 154.936 687.107 154.272 686.629 153.618C686.18 152.983 685.731 152.339 685.321 151.724C684.871 151.06 684.461 150.435 684.061 149.81C683.69 149.195 683.309 148.571 682.948 147.956C682.587 147.341 682.235 146.745 681.903 146.12Z" fill="white"/>
<path d="M512.665 294.612L389.209 288.315C389.824 289.223 390.449 290.121 391.035 291.029C391.621 291.937 392.207 292.845 392.734 293.752C393.29 294.69 393.818 295.588 394.335 296.515C394.853 297.443 395.341 298.36 395.819 299.288C396.2 300.069 396.571 300.82 396.923 301.591C397.303 302.353 397.645 303.095 397.948 303.856C398.28 304.628 398.582 305.389 398.866 306.131C399.158 306.892 399.432 307.625 399.705 308.366L523.434 314.058C522.917 313.335 522.39 312.574 521.862 311.842C521.384 311.11 520.886 310.368 520.407 309.606C519.929 308.864 519.46 308.132 519.011 307.371C518.562 306.639 518.113 305.897 517.703 305.135C517.166 304.257 516.687 303.339 516.219 302.451C515.74 301.552 515.311 300.674 514.881 299.805C514.471 298.907 514.09 298.038 513.709 297.169C513.338 296.349 512.997 295.451 512.665 294.612ZM843.859 311.442L740.722 306.219C741.444 307.009 742.138 307.859 742.802 308.689C743.475 309.518 744.188 310.358 744.823 311.197C745.448 312.027 746.111 312.886 746.707 313.736C747.322 314.565 747.928 315.444 748.543 316.303C749.021 316.996 749.49 317.719 749.958 318.412C750.398 319.124 750.867 319.817 751.286 320.501C751.716 321.204 752.126 321.907 752.536 322.58C752.917 323.263 753.317 323.976 753.688 324.64L856.864 329.404C856.259 328.701 855.693 328.066 855.117 327.364C854.531 326.68 853.964 325.997 853.418 325.294C852.861 324.62 852.314 323.937 851.797 323.254C851.26 322.57 850.752 321.897 850.235 321.204C849.619 320.384 849.024 319.534 848.438 318.714C847.862 317.875 847.325 317.084 846.798 316.254C846.261 315.444 845.733 314.634 845.255 313.843C844.757 313.043 844.308 312.242 843.859 311.442Z" fill="white"/>
<path d="M695.661 535.933L564.434 537.436C565.137 538.452 565.83 539.487 566.484 540.512C567.158 541.546 567.812 542.601 568.447 543.626C569.101 544.69 569.696 545.734 570.282 546.798C570.897 547.853 571.493 548.936 572.059 549.991C572.626 551.055 573.172 552.138 573.69 553.202C574.227 554.266 574.735 555.35 575.203 556.424C575.701 557.468 576.15 558.552 576.599 559.606C577.029 560.651 577.459 561.725 577.849 562.769L710.151 560.378C709.38 559.382 708.657 558.347 707.944 557.332C707.222 556.307 706.519 555.291 705.826 554.257C705.142 553.232 704.459 552.207 703.824 551.172C703.199 550.147 702.555 549.102 701.959 548.077C701.344 547.052 700.729 546.017 700.162 544.992C699.586 543.977 699.079 542.942 698.542 541.947C698.024 540.922 697.516 539.916 697.028 538.901C696.55 537.905 696.091 536.9 695.661 535.933Z" fill="white"/>
<path d="M468.346 641.12C451.963 641.735 435.042 639.705 418.531 635.517C401.971 631.28 385.909 624.895 371.263 616.871C356.666 608.846 343.573 599.182 332.842 588.453C322.229 577.773 314.007 566.117 309.037 553.905C304.155 541.829 302.896 530.427 304.78 520.167C306.655 510.004 311.576 500.955 319.046 493.457C326.447 486.038 336.318 480.122 348.259 476.081C360.035 472.107 373.86 469.94 389.297 470.018C404.597 470.126 420.161 472.391 435.168 476.452C450.166 480.474 464.704 486.282 478.062 493.438C491.438 500.633 503.702 509.204 514.071 518.79C524.479 528.435 533.023 539.135 538.872 550.488C544.779 562.007 547.396 573.136 547.064 583.465C546.722 593.91 543.314 603.536 537.153 611.795C530.914 620.18 521.863 627.16 510.371 632.237C498.732 637.352 484.594 640.495 468.346 641.12ZM378.166 445.886C378.03 445.886 377.854 445.886 377.707 445.876C377.551 445.886 377.375 445.876 377.229 445.886C377.073 445.886 376.917 445.876 376.76 445.876C376.604 445.876 376.448 445.876 376.301 445.886C373.372 445.876 370.531 445.935 367.709 446.033C364.887 446.15 362.114 446.316 359.39 446.56C356.676 446.775 353.952 447.077 351.315 447.399C348.679 447.78 346.082 448.161 343.534 448.629C328.8 451.285 315.696 455.814 304.653 461.886C293.464 468.085 284.344 475.876 277.666 484.984C270.919 494.209 266.681 504.801 265.393 516.428C264.123 528.181 265.871 540.989 271.085 554.452C277.373 570.618 288.035 586.149 301.998 600.334C316.077 614.665 333.408 627.512 352.809 638.221C372.24 648.93 393.623 657.443 415.66 662.987C437.609 668.513 460.047 671.09 481.743 670.104C501.642 669.206 519.061 665.399 533.589 659.307C547.952 653.255 559.464 645.006 567.812 635.107C576.004 625.364 581.13 614.059 582.868 601.72C584.567 589.586 582.985 576.436 577.859 562.788C577.459 561.744 577.039 560.67 576.609 559.625C576.16 558.571 575.711 557.488 575.213 556.443C574.754 555.369 574.237 554.286 573.7 553.221C573.182 552.157 572.635 551.074 572.069 550.01C571.503 548.955 570.917 547.872 570.292 546.818C569.706 545.753 569.101 544.709 568.456 543.645C567.822 542.62 567.168 541.565 566.494 540.531C565.84 539.506 565.146 538.471 564.443 537.456C561.163 532.643 557.511 527.947 553.547 523.418C549.592 518.878 545.355 514.495 540.805 510.268C536.284 506.021 531.461 501.96 526.413 498.075C521.384 494.18 516.102 490.431 510.644 486.887C508.164 485.267 505.635 483.695 503.067 482.192C500.499 480.669 497.902 479.185 495.275 477.711C492.629 476.276 489.954 474.87 487.249 473.513C484.555 472.127 481.811 470.829 479.038 469.54C471.246 465.948 463.181 462.677 454.98 459.846C446.749 456.986 438.371 454.536 429.906 452.505C421.401 450.455 412.809 448.883 404.168 447.751C395.517 446.628 386.827 446.003 378.166 445.886Z" fill="white"/>
<path d="M879.525 625.706C866.353 626.204 852.273 624.359 838.057 620.571C823.811 616.774 809.507 611.053 796.004 603.888C782.529 596.703 769.914 588.112 759.018 578.496C748.18 568.988 739.05 558.533 732.421 547.628C725.918 536.841 722.452 526.63 721.797 517.424C721.143 508.297 723.194 500.155 727.656 493.409C732.04 486.732 738.816 481.392 747.643 477.751C756.372 474.119 767.122 472.176 779.727 472.245C792.186 472.313 805.338 474.383 818.451 478.053C831.535 481.665 844.618 486.908 857.009 493.409C869.429 499.891 881.214 507.633 891.642 516.311C902.138 525 911.297 534.645 918.385 544.885C925.562 555.233 929.985 565.23 931.781 574.474C933.607 583.817 932.777 592.417 929.438 599.797C926.04 607.266 920.133 613.465 911.795 617.945C903.398 622.485 892.56 625.208 879.525 625.706ZM765.491 450.426C765.13 450.426 764.769 450.426 764.407 450.426C764.027 450.426 763.665 450.426 763.304 450.436C762.943 450.407 762.591 450.426 762.21 450.426C761.849 450.426 761.507 450.436 761.107 450.436C758.793 450.495 756.479 450.583 754.263 450.739C752.007 450.895 749.82 451.08 747.662 451.344C745.514 451.588 743.415 451.9 741.394 452.262C739.333 452.623 737.351 453.043 735.428 453.492C725.43 455.883 716.857 459.622 709.885 464.503C702.845 469.404 697.446 475.486 693.814 482.554C690.143 489.69 688.356 497.841 688.561 506.754C688.785 515.774 691.099 525.566 695.679 535.943C696.108 536.919 696.577 537.915 697.055 538.92C697.544 539.936 698.061 540.932 698.569 541.966C699.106 542.972 699.614 543.997 700.19 545.012C700.756 546.037 701.361 547.072 701.986 548.097C702.592 549.122 703.226 550.167 703.851 551.192C704.486 552.226 705.169 553.251 705.853 554.276C706.536 555.311 707.249 556.326 707.972 557.351C708.675 558.367 709.397 559.402 710.178 560.397C719.845 573.479 732.176 585.867 746.344 597.123C760.56 608.408 776.554 618.473 793.436 626.809C810.327 635.127 828.01 641.658 845.517 645.953C862.984 650.229 880.208 652.201 896.299 651.469C913.454 650.697 927.642 646.929 938.567 640.769C949.347 634.727 956.953 626.409 961.142 616.491C965.262 606.729 966.121 595.375 963.505 583.094C960.917 570.999 954.981 557.918 945.48 544.495C941.506 538.852 937.064 533.366 932.231 528.055C927.427 522.793 922.213 517.698 916.667 512.797C911.16 507.906 905.321 503.24 899.209 498.788C893.116 494.366 886.789 490.158 880.267 486.214C877.875 484.789 875.463 483.374 873.041 482.007C870.63 480.65 868.169 479.342 865.709 478.034C863.229 476.755 860.729 475.505 858.229 474.305C855.72 473.084 853.181 471.923 850.682 470.78C843.671 467.696 836.602 464.874 829.455 462.405C822.337 459.954 815.17 457.826 808.013 456.088C800.798 454.321 793.631 452.984 786.562 451.998C779.434 451.061 772.394 450.504 765.491 450.426Z" fill="white"/>
<path d="M291.315 362.118C276.132 361.64 260.715 359.151 245.854 355.06C230.964 350.97 216.719 345.279 203.908 338.387C191.117 331.543 179.84 323.577 170.857 314.889C161.904 306.279 155.274 297.014 151.661 287.526C148.097 278.154 147.844 269.465 150.392 261.773C152.921 254.188 158.193 247.569 165.712 242.268C173.132 237.026 182.769 233.033 194.154 230.612C205.422 228.21 218.418 227.342 232.761 228.25C246.977 229.157 261.233 231.744 274.863 235.649C288.464 239.554 301.509 244.787 313.314 251.005C325.157 257.214 335.8 264.428 344.588 272.306C353.424 280.223 360.405 288.843 364.779 297.815C369.232 306.864 370.648 315.445 369.369 323.236C368.099 331.114 364.037 338.152 357.564 344.058C351.003 350.003 342 354.738 330.898 357.891C319.68 361.074 306.362 362.597 291.315 362.118ZM224.422 209.184C205.822 207.915 188.862 208.979 174.099 211.966C159.16 215.032 146.437 220.088 136.537 226.815C126.499 233.648 119.362 242.18 115.788 252.05C112.176 262.095 112.244 273.507 116.735 285.837C121.256 298.362 129.868 310.642 141.585 322.054C153.38 333.593 168.28 344.205 185.22 353.313C202.19 362.45 221.103 370.006 240.865 375.405C260.588 380.813 281.034 384.034 301.089 384.552C301.245 384.571 301.402 384.552 301.548 384.571C301.724 384.571 301.86 384.581 302.026 384.571C302.183 384.571 302.319 384.581 302.495 384.581C302.651 384.581 302.808 384.601 302.954 384.601C305.844 384.64 308.705 384.64 311.507 384.571C314.3 384.513 317.053 384.386 319.719 384.22C322.423 384.034 325.03 383.829 327.618 383.546C330.186 383.263 332.705 382.941 335.156 382.551C348.171 380.52 359.566 377.074 369.105 372.486C378.556 367.937 386.182 362.236 391.777 355.656C397.303 349.174 400.848 341.803 402.224 333.789C403.572 325.891 402.781 317.339 399.695 308.378C399.422 307.626 399.149 306.894 398.856 306.142C398.582 305.39 398.27 304.629 397.938 303.867C397.625 303.106 397.284 302.364 396.913 301.603C396.561 300.831 396.19 300.08 395.809 299.299C395.331 298.371 394.843 297.454 394.325 296.526C393.808 295.599 393.281 294.701 392.724 293.764C392.187 292.856 391.611 291.948 391.025 291.04C390.439 290.132 389.814 289.234 389.199 288.326C386.67 284.743 383.868 281.229 380.802 277.773C377.707 274.347 374.368 270.979 370.784 267.708C367.22 264.448 363.383 261.255 359.37 258.171C355.328 255.115 351.09 252.128 346.667 249.268C344.529 247.881 342.332 246.544 340.106 245.197C337.89 243.869 335.615 242.561 333.33 241.292C331.006 240.032 328.663 238.763 326.29 237.563C323.917 236.342 321.506 235.161 319.065 234.019C311.937 230.671 304.516 227.586 296.91 224.784C289.304 222.012 281.473 219.542 273.506 217.423C265.519 215.285 257.415 213.518 249.223 212.142C241.021 210.726 232.722 209.74 224.422 209.184Z" fill="white"/>
<path d="M676.63 374.359C664.171 373.989 651.077 371.743 638.081 368.053C625.066 364.343 612.207 359.199 600.275 352.961C588.383 346.742 577.418 339.489 568.171 331.591C558.964 323.713 551.475 315.24 546.417 306.551C541.369 297.951 539.192 289.965 539.514 282.878C539.856 275.869 542.648 269.758 547.569 264.818C552.422 259.927 559.394 256.198 568.123 253.875C576.793 251.59 587.231 250.692 599.133 251.454C610.977 252.186 623.25 254.509 635.299 258.043C647.299 261.606 659.172 266.37 670.224 272.042C681.307 277.733 691.627 284.372 700.561 291.605C709.534 298.898 717.15 306.805 722.725 315.064C728.31 323.381 731.347 331.299 731.982 338.454C732.626 345.698 730.849 352.209 726.836 357.608C722.755 363.074 716.428 367.448 708.04 370.357C699.565 373.305 689.03 374.76 676.63 374.359ZM588.012 233.813C587.065 233.735 586.098 233.686 585.151 233.628C584.184 233.599 583.237 233.52 582.3 233.511C581.372 233.462 580.425 233.462 579.488 233.442C578.56 233.413 577.652 233.413 576.734 233.413C574.567 233.413 572.448 233.442 570.388 233.55C568.288 233.657 566.258 233.784 564.275 233.96C562.293 234.145 560.37 234.35 558.456 234.614C556.562 234.877 554.697 235.17 552.891 235.531C544.308 237.22 536.8 239.798 530.57 243.224C524.263 246.699 519.244 251.014 515.661 256.042C512.028 261.128 509.841 266.946 509.275 273.409C508.689 279.901 509.793 286.988 512.663 294.612C512.985 295.452 513.337 296.35 513.708 297.189C514.089 298.058 514.469 298.927 514.88 299.825C515.309 300.704 515.739 301.582 516.217 302.471C516.686 303.359 517.164 304.277 517.701 305.155C518.111 305.917 518.561 306.659 519.01 307.391C519.459 308.152 519.928 308.885 520.406 309.626C520.884 310.388 521.382 311.13 521.861 311.862C522.378 312.594 522.915 313.346 523.433 314.078C526.596 318.451 530.199 322.766 534.212 326.993C538.245 331.25 542.648 335.369 547.403 339.401C552.168 343.433 557.285 347.328 562.664 351.086C568.074 354.835 573.747 358.428 579.654 361.825C581.997 363.182 584.38 364.49 586.811 365.779C589.242 367.067 591.683 368.326 594.173 369.566C596.653 370.777 599.152 371.958 601.681 373.09C604.22 374.242 606.778 375.365 609.346 376.449C615.615 379.075 622 381.427 628.444 383.546C634.869 385.664 641.352 387.499 647.845 389.071C654.338 390.633 660.783 391.892 667.207 392.82C673.603 393.786 679.949 394.401 686.149 394.684C686.442 394.704 686.706 394.733 686.979 394.743C687.253 394.743 687.555 394.753 687.819 394.762C688.092 394.762 688.415 394.782 688.649 394.782C688.942 394.821 689.225 394.802 689.499 394.831C691.617 394.87 693.678 394.889 695.708 394.85C697.739 394.831 699.721 394.753 701.664 394.675C703.607 394.557 705.492 394.401 707.347 394.226C709.192 394.05 711.009 393.835 712.766 393.581C723.711 392 732.958 388.983 740.379 384.834C747.692 380.715 753.189 375.463 756.714 369.332C760.17 363.27 761.742 356.319 761.254 348.783C760.776 341.275 758.276 333.183 753.667 324.67C753.296 323.996 752.896 323.294 752.515 322.61C752.105 321.927 751.695 321.234 751.265 320.531C750.846 319.847 750.377 319.145 749.938 318.442C749.469 317.749 749 317.026 748.522 316.333C747.916 315.474 747.311 314.605 746.686 313.766C746.081 312.916 745.427 312.067 744.802 311.227C744.167 310.398 743.454 309.548 742.78 308.719C742.117 307.889 741.423 307.04 740.701 306.249C738.113 303.213 735.331 300.255 732.362 297.355C729.404 294.456 726.289 291.615 722.999 288.823C719.728 286.07 716.301 283.356 712.737 280.73C709.183 278.134 705.482 275.566 701.674 273.106C699.643 271.788 697.593 270.5 695.523 269.24C693.424 267.991 691.324 266.761 689.176 265.55C687.057 264.33 684.88 263.168 682.673 261.997C680.477 260.855 678.28 259.722 676.044 258.619C669.121 255.222 662.003 252.098 654.749 249.286C647.504 246.485 640.112 243.995 632.672 241.887C625.242 239.759 617.733 238.001 610.283 236.625C602.843 235.268 595.374 234.311 588.012 233.813Z" fill="white"/>
<path d="M996.139 384.512C985.731 384.209 974.395 382.178 962.893 378.82C951.352 375.433 939.665 370.708 928.504 365.016C917.364 359.325 906.828 352.667 897.504 345.404C888.277 338.18 880.339 330.39 874.314 322.365C868.329 314.419 864.863 307.029 863.623 300.459C862.431 293.948 863.466 288.256 866.503 283.629C869.51 279.07 874.5 275.546 881.256 273.359C887.974 271.163 896.469 270.274 906.555 270.909C916.553 271.534 927.264 273.623 938.024 276.874C948.804 280.125 959.661 284.508 970.06 289.75C980.468 295.002 990.457 301.113 999.371 307.81C1008.33 314.546 1016.27 321.877 1022.59 329.521C1028.94 337.224 1033.06 344.545 1035.01 351.174C1036.99 357.861 1036.81 363.894 1034.53 368.902C1032.23 373.988 1027.83 378.029 1021.43 380.743C1014.97 383.467 1006.51 384.834 996.139 384.512ZM893.627 254.528C893.09 254.47 892.573 254.44 892.075 254.421C891.557 254.391 891.05 254.362 890.532 254.343C890.044 254.343 889.527 254.294 889.038 254.274C888.531 254.274 888.052 254.245 887.574 254.245C885.719 254.206 883.912 254.206 882.184 254.255C880.426 254.294 878.708 254.372 877.058 254.479C875.408 254.616 873.787 254.782 872.205 254.967C870.643 255.202 869.13 255.436 867.645 255.719C860.313 257.115 854.142 259.468 849.279 262.64C844.388 265.872 840.775 269.913 838.598 274.677C836.391 279.47 835.659 285.025 836.479 291.166C837.309 297.374 839.73 304.179 843.87 311.442C844.319 312.232 844.768 313.033 845.266 313.843C845.745 314.634 846.282 315.444 846.809 316.254C847.336 317.084 847.873 317.875 848.449 318.714C849.035 319.534 849.621 320.384 850.246 321.204C850.764 321.897 851.271 322.57 851.808 323.254C852.326 323.937 852.872 324.621 853.429 325.294C853.976 325.997 854.542 326.68 855.128 327.364C855.704 328.067 856.261 328.701 856.876 329.404C860.127 333.104 863.671 336.774 867.489 340.357C871.317 343.95 875.427 347.493 879.733 350.92C884.068 354.366 888.609 357.714 893.354 360.946C898.08 364.177 903.011 367.252 908.068 370.229C910.265 371.518 912.462 372.748 914.679 373.998C916.905 375.237 919.16 376.419 921.445 377.571C923.691 378.723 925.985 379.865 928.289 380.968C930.594 382.071 932.927 383.135 935.232 384.17C941.647 387.02 948.14 389.588 954.643 391.872C961.145 394.166 967.619 396.129 974.044 397.769C980.458 399.418 986.795 400.717 992.966 401.634C999.147 402.572 1005.15 403.108 1010.96 403.274C1024.58 403.626 1035.65 401.742 1044.06 398.042C1052.34 394.371 1057.97 388.973 1060.82 382.227C1063.62 375.589 1063.73 367.652 1060.97 358.857C1058.27 350.149 1052.78 340.572 1044.38 330.556C1036.06 320.628 1025.67 311.1 1014 302.402C1002.4 293.733 989.432 285.826 975.957 279.031C962.493 272.266 948.423 266.575 934.509 262.357C920.508 258.16 906.653 255.387 893.627 254.528Z" fill="white"/>
<path d="M512.84 187.784C500.889 186.837 488.538 184.416 476.43 180.814C464.294 177.202 452.489 172.448 441.641 166.893C430.833 161.319 421.059 154.964 412.965 148.16C404.909 141.434 398.563 134.258 394.53 127.025C390.517 119.859 389.209 113.299 390.214 107.637C391.23 101.975 394.501 97.1718 399.715 93.4231C404.86 89.7037 411.939 87.0093 420.6 85.5548C429.173 84.1002 439.327 83.8659 450.751 85.0374C462.116 86.2088 473.716 88.6884 484.984 92.115C496.241 95.561 507.226 100.013 517.322 105.138C527.467 110.263 536.752 116.101 544.642 122.397C552.56 128.723 559.073 135.479 563.574 142.41C568.124 149.399 570.184 155.901 570.028 161.68C569.852 167.557 567.431 172.673 562.968 176.831C558.458 181.039 551.867 184.211 543.48 186.144C535.034 188.077 524.713 188.702 512.84 187.784ZM441.807 70.2281C426.917 68.6467 413.668 68.8907 402.419 70.687C391.044 72.5223 381.71 75.9488 374.826 80.7127C367.855 85.5548 363.383 91.7635 361.918 99.1144C360.425 106.543 361.967 115.124 367.084 124.545C369.163 128.362 371.751 132.198 374.797 135.986C377.844 139.803 381.349 143.552 385.264 147.252C389.189 150.952 393.495 154.573 398.172 158.117C402.849 161.622 407.848 165.068 413.16 168.319C415.181 169.588 417.241 170.808 419.34 172.018C421.44 173.219 423.558 174.391 425.726 175.582C427.913 176.734 430.11 177.856 432.356 178.969C434.592 180.072 436.847 181.166 439.132 182.22C445.723 185.246 452.528 188.038 459.461 190.576C466.413 193.095 473.472 195.331 480.619 197.273C487.727 199.196 494.884 200.817 502.012 202.105C509.11 203.345 516.18 204.243 523.112 204.761C523.493 204.8 523.834 204.81 524.176 204.829C524.557 204.858 524.899 204.897 525.26 204.897C525.621 204.937 525.963 204.946 526.305 204.985C526.666 204.995 527.027 205.005 527.369 205.034C529.625 205.142 531.812 205.21 533.979 205.239C536.127 205.259 538.256 205.239 540.297 205.19C542.357 205.122 544.358 205.034 546.321 204.878C548.264 204.751 550.158 204.546 552.013 204.331C561.494 203.189 569.657 201.022 576.296 197.966C582.907 194.94 588.033 191.074 591.567 186.496C595.072 181.937 596.986 176.724 597.24 170.964C597.465 165.243 596.059 159.015 592.837 152.367C592.534 151.733 592.221 151.108 591.87 150.473C591.548 149.839 591.186 149.204 590.825 148.56C590.444 147.906 590.054 147.271 589.653 146.627C589.273 145.963 588.843 145.309 588.394 144.675C587.984 144.03 587.515 143.357 587.066 142.693C586.588 142.058 586.119 141.404 585.64 140.75C585.152 140.116 584.654 139.462 584.137 138.827C583.639 138.173 583.112 137.538 582.575 136.894C575.72 128.694 566.864 120.806 556.583 113.455C546.38 106.192 534.76 99.4366 522.292 93.5207C509.882 87.6244 496.573 82.5285 483.011 78.5358C469.43 74.5626 455.487 71.673 441.807 70.2281Z" fill="white"/>
<path d="M821.314 211.917C811.208 211.126 800.409 208.94 789.571 205.62C778.753 202.35 767.915 197.977 757.711 192.822C747.537 187.678 738.047 181.791 729.855 175.475C721.692 169.198 714.848 162.511 709.907 155.755C705.015 149.029 702.467 142.869 702.066 137.49C701.617 132.16 703.287 127.582 706.782 123.979C710.258 120.397 715.511 117.8 722.376 116.335C729.191 114.871 737.627 114.549 747.401 115.564C757.126 116.55 767.348 118.796 777.523 121.949C787.667 125.102 797.783 129.202 807.342 133.976C816.91 138.759 825.942 144.236 833.88 150.103C841.848 155.999 848.731 162.335 853.974 168.837C859.257 175.387 862.352 181.508 863.445 186.975C864.559 192.481 863.602 197.332 860.76 201.237C857.909 205.23 853.086 208.276 846.495 210.131C839.846 212.015 831.4 212.708 821.314 211.917ZM736.699 101.614C724.865 100.355 714.574 100.579 705.972 102.034C697.331 103.557 690.408 106.368 685.468 110.283C680.478 114.237 677.52 119.303 676.788 125.307C676.085 131.379 677.705 138.398 681.904 146.13C682.226 146.745 682.568 147.35 682.929 147.965C683.29 148.58 683.671 149.205 684.042 149.82C684.443 150.435 684.853 151.069 685.302 151.733C685.712 152.338 686.161 152.992 686.61 153.627C687.098 154.281 687.547 154.935 688.036 155.56C688.524 156.194 689.002 156.819 689.53 157.464C690.018 158.098 690.555 158.742 691.092 159.377C691.629 160.021 692.195 160.666 692.732 161.3C695.368 164.307 698.288 167.265 701.422 170.184C704.595 173.132 707.983 176.012 711.586 178.862C715.179 181.703 719.007 184.456 722.981 187.17C726.965 189.884 731.153 192.5 735.44 195.038C737.383 196.19 739.375 197.313 741.386 198.426C743.397 199.539 745.428 200.622 747.479 201.686C749.549 202.741 751.648 203.766 753.728 204.781C755.837 205.796 757.975 206.802 760.084 207.758C766.118 210.492 772.27 212.991 778.479 215.246C784.699 217.501 790.938 219.522 797.138 221.22C803.377 222.929 809.568 224.354 815.631 225.477C821.705 226.58 827.68 227.351 833.48 227.79C833.997 227.81 834.505 227.859 835.042 227.898C835.56 227.907 836.077 227.966 836.595 227.976C837.092 228.005 837.61 228.015 838.108 228.054C838.606 228.083 839.123 228.083 839.602 228.103C841.457 228.152 843.283 228.171 845.04 228.142C846.798 228.122 848.516 228.034 850.166 227.947C851.797 227.839 853.418 227.693 854.97 227.497C856.533 227.322 858.026 227.107 859.481 226.873C867.429 225.447 873.834 222.978 878.58 219.58C883.315 216.212 886.42 211.976 887.768 207.026C889.154 202.116 888.832 196.503 886.742 190.372C884.663 184.319 880.825 177.74 875.192 170.808C868.269 162.335 859.267 154.115 848.858 146.442C838.528 138.837 826.821 131.76 814.421 125.58C802.04 119.411 788.927 114.09 775.775 109.99C762.632 105.851 749.363 102.952 736.699 101.614Z" fill="white"/>
<path d="M1214.26 616.911V690.606H1204.26V616.911H1214.26ZM1246.32 616.911L1286.93 677.491H1287.13V616.911H1297.13V690.606H1284.43L1243.41 630.026H1243.2V690.606H1233.21V616.911H1246.32ZM1365.22 616.911V626.279H1341.48V690.606H1331.48V626.279H1307.75V616.911H1365.22ZM1423.41 616.911V626.279H1385.83V648.242H1420.81V657.61H1385.83V681.238H1425.29V690.606H1375.84V616.911H1423.41ZM1465.89 616.911C1473.11 616.911 1478.76 618.715 1482.86 622.323C1486.95 625.932 1489 630.998 1489 637.52C1489 642.447 1487.32 646.75 1483.95 650.428C1480.59 654.106 1476.27 656.292 1470.99 656.985H1470.89L1491.81 690.606H1479.32L1460.58 658.13H1449.44V690.606H1439.45V616.911H1465.89ZM1462.97 649.387C1468.18 649.387 1472.05 648.432 1474.58 646.524C1477.12 644.616 1478.38 641.615 1478.38 637.52C1478.38 629.61 1473.25 625.654 1462.97 625.654H1449.44V649.387H1462.97V649.387ZM1516.17 616.911L1556.78 677.491H1556.98V616.911H1566.98V690.606H1554.28L1513.26 630.026H1513.05V690.606H1503.06V616.911H1516.17ZM1618.1 616.911L1649.64 690.606H1637.98L1630.59 672.391H1595.5L1588.22 690.606H1576.56L1609.04 616.911H1618.1ZM1599.04 663.647H1626.95L1613.2 629.818H1612.99L1599.04 663.647ZM1698.78 616.911V626.279H1675.04V690.606H1665.05V626.279H1641.31V616.911H1698.78ZM1719.39 616.911V690.606H1709.4V616.911H1719.39ZM1772.18 615.037C1783.14 615.037 1792.29 618.68 1799.61 625.967C1806.93 633.253 1810.59 642.517 1810.59 653.758C1810.59 660.906 1808.96 667.446 1805.7 673.379C1802.44 679.313 1797.84 683.979 1791.91 687.379C1785.97 690.78 1779.4 692.48 1772.18 692.48C1765.03 692.48 1758.5 690.797 1752.6 687.432C1746.71 684.066 1742.09 679.417 1738.76 673.484C1735.43 667.55 1733.76 660.975 1733.76 653.758C1733.76 642.795 1737.35 633.599 1744.54 626.175C1751.72 618.75 1760.93 615.037 1772.18 615.037ZM1744.38 653.758C1744.38 662.086 1746.98 669.06 1752.19 674.681C1757.39 680.301 1764.06 683.112 1772.18 683.112C1780.16 683.112 1786.79 680.336 1792.06 674.785C1797.34 669.233 1799.97 662.224 1799.97 653.758C1799.97 645.362 1797.37 638.371 1792.17 632.784C1786.96 627.198 1780.26 624.405 1772.07 624.405C1764.16 624.405 1757.57 627.181 1752.29 632.732C1747.02 638.284 1744.38 645.293 1744.38 653.758ZM1838.08 616.911L1878.68 677.491H1878.89V616.911H1888.88V690.606H1876.18L1835.16 630.026H1834.95V690.606H1824.96V616.911H1838.08ZM1940 616.911L1971.55 690.606H1959.89L1952.49 672.391H1917.41L1910.12 690.606H1898.46L1930.94 616.911H1940ZM1920.95 663.647H1948.85L1935.11 629.818H1934.9L1920.95 663.647ZM1991.12 616.911V681.238H2024.95V690.606H1981.12V616.911H1991.12ZM2085.23 615.037C2094.81 615.037 2101.89 617.848 2106.47 623.469L2098.35 630.859C2097.1 628.916 2095.33 627.355 2093.04 626.175C2090.75 624.996 2088.11 624.406 2085.13 624.406C2080.83 624.406 2077.37 625.464 2074.77 627.58C2072.17 629.697 2070.87 632.421 2070.87 635.751C2070.87 641.303 2074.54 645.189 2081.9 647.41L2091.17 650.428C2096.37 652.094 2100.35 654.418 2103.09 657.402C2105.83 660.386 2107.2 664.48 2107.2 669.685C2107.2 676.485 2104.79 681.985 2099.96 686.183C2095.14 690.381 2089.01 692.48 2081.59 692.48C2070.97 692.48 2063.13 689.08 2058.06 682.28L2066.28 675.202C2067.88 677.7 2070.07 679.643 2072.84 681.031C2075.62 682.418 2078.64 683.112 2081.9 683.112C2086 683.112 2089.47 681.933 2092.31 679.573C2095.16 677.214 2096.58 674.3 2096.58 670.83C2096.58 668.262 2095.71 666.111 2093.98 664.376C2092.24 662.641 2089.12 661.08 2084.61 659.692L2078.05 657.506C2071.46 655.286 2066.84 652.458 2064.2 649.023C2061.57 645.588 2060.25 641.164 2060.25 635.751C2060.25 629.992 2062.57 625.1 2067.22 621.075C2071.87 617.05 2077.88 615.038 2085.23 615.038V615.037ZM2171.12 616.911V626.279H2147.39V690.606H2137.39V626.279H2113.65V616.911H2171.12ZM2190.38 616.911V662.398C2190.38 668.435 2192.07 673.397 2195.43 677.283C2198.8 681.168 2203.29 683.112 2208.91 683.112C2214.54 683.112 2219.03 681.169 2222.4 677.283C2225.76 673.397 2227.45 668.435 2227.45 662.398V616.911H2237.44V664.063C2237.44 669.129 2236.24 673.865 2233.85 678.272C2231.45 682.678 2228.05 686.148 2223.65 688.681C2219.24 691.214 2214.33 692.48 2208.91 692.48C2200.59 692.48 2193.75 689.756 2188.4 684.309C2183.06 678.862 2180.39 672.113 2180.39 664.063V616.911H2190.38ZM2279.6 616.911C2287.45 616.911 2294.25 618.524 2300.01 621.751C2305.77 624.978 2310.18 629.401 2313.23 635.022C2316.28 640.643 2317.81 646.889 2317.81 653.758C2317.81 660.628 2316.11 666.892 2312.71 672.547C2309.31 678.202 2304.56 682.626 2298.45 685.818C2292.34 689.01 2285.54 690.606 2278.04 690.606H2253.37V616.911H2279.6ZM2276.48 681.238C2282.1 681.238 2287.26 680.145 2291.94 677.959C2296.63 675.773 2300.34 672.634 2303.08 668.539C2305.82 664.445 2307.19 659.518 2307.19 653.758C2307.19 645.431 2304.61 638.769 2299.44 633.773C2294.27 628.777 2287.41 626.279 2278.88 626.279H2263.36V681.238H2276.48V681.238ZM2379.76 616.911V626.279H2342.17V648.242H2377.15V657.61H2342.17V681.238H2381.63V690.606H2332.18V616.911H2379.76ZM2408.91 616.911L2449.51 677.491H2449.72V616.911H2459.71V690.606H2447.01L2405.99 630.026H2405.78V690.606H2395.79V616.911H2408.91ZM2527.8 616.911V626.279H2504.06V690.606H2494.07V626.279H2470.33V616.911H2527.8ZM2600.36 616.911V669.997C2600.36 676.936 2598.35 682.418 2594.32 686.443C2590.3 690.468 2585.13 692.48 2578.81 692.48C2573.4 692.48 2568.96 691.092 2565.49 688.316C2562.02 685.541 2559.8 681.55 2558.82 676.346L2568.61 674.16C2569.17 676.936 2570.31 679.122 2572.05 680.718C2573.78 682.314 2576.04 683.112 2578.81 683.112C2582.7 683.112 2585.6 681.811 2587.51 679.208C2589.41 676.606 2590.37 672.495 2590.37 666.874V616.911H2600.36ZM2651.38 615.037C2662.34 615.037 2671.49 618.68 2678.81 625.967C2686.13 633.253 2689.79 642.517 2689.79 653.758C2689.79 660.906 2688.16 667.446 2684.9 673.379C2681.64 679.313 2677.04 683.979 2671.1 687.379C2665.17 690.78 2658.59 692.48 2651.38 692.48C2644.23 692.48 2637.7 690.797 2631.8 687.432C2625.9 684.066 2621.29 679.417 2617.96 673.484C2614.63 667.55 2612.96 660.975 2612.96 653.758C2612.96 642.795 2616.55 633.599 2623.74 626.175C2630.92 618.75 2640.13 615.037 2651.38 615.037ZM2623.58 653.758C2623.58 662.086 2626.18 669.06 2631.39 674.681C2636.59 680.301 2643.26 683.112 2651.38 683.112C2659.36 683.112 2665.99 680.336 2671.26 674.785C2676.54 669.233 2679.17 662.224 2679.17 653.758C2679.17 645.362 2676.57 638.371 2671.37 632.784C2666.16 627.198 2659.46 624.405 2651.27 624.405C2643.36 624.405 2636.77 627.181 2631.49 632.732C2626.22 638.284 2623.58 645.293 2623.58 653.758ZM2730.19 616.911C2736.92 616.911 2742.26 618.576 2746.22 621.907C2750.18 625.238 2752.15 629.714 2752.15 635.335C2752.15 643.315 2747.92 648.728 2739.45 651.573V651.781H2739.56C2744.35 652.336 2748.18 654.331 2751.06 657.766C2753.94 661.201 2755.38 665.312 2755.38 670.101C2755.38 676.277 2753 681.238 2748.25 684.985C2743.5 688.733 2737.37 690.606 2729.87 690.606H2704.16V616.911H2730.19ZM2728.1 647.513C2732.27 647.513 2735.55 646.559 2737.94 644.651C2740.34 642.742 2741.53 640.019 2741.53 636.48C2741.53 633.149 2740.49 630.512 2738.41 628.569C2736.33 626.626 2733.59 625.654 2730.19 625.654H2714.15V647.513H2728.1ZM2729.25 681.863C2734.18 681.863 2737.99 680.718 2740.7 678.428C2743.41 676.138 2744.76 673.119 2744.76 669.372C2744.76 665.208 2743.39 661.982 2740.65 659.692C2737.91 657.402 2734.04 656.257 2729.04 656.257H2714.15V681.863H2729.25ZM2790.88 615.037C2800.46 615.037 2807.54 617.848 2812.12 623.469L2804 630.859C2802.75 628.916 2800.98 627.355 2798.69 626.175C2796.4 624.996 2793.76 624.406 2790.78 624.406C2786.47 624.406 2783.02 625.464 2780.42 627.58C2777.82 629.697 2776.52 632.421 2776.52 635.751C2776.52 641.303 2780.19 645.189 2787.55 647.41L2796.82 650.428C2802.02 652.094 2806 654.418 2808.74 657.402C2811.48 660.386 2812.85 664.48 2812.85 669.685C2812.85 676.485 2810.44 681.985 2805.61 686.183C2800.79 690.381 2794.66 692.48 2787.24 692.48C2776.62 692.48 2768.78 689.08 2763.71 682.28L2771.93 675.202C2773.53 677.7 2775.72 679.643 2778.49 681.031C2781.27 682.418 2784.29 683.112 2787.55 683.112C2791.65 683.112 2795.12 681.933 2797.96 679.573C2800.81 677.214 2802.23 674.3 2802.23 670.83C2802.23 668.262 2801.36 666.111 2799.63 664.376C2797.89 662.641 2794.77 661.08 2790.26 659.692L2783.7 657.506C2777.1 655.286 2772.49 652.458 2769.85 649.023C2767.22 645.588 2765.9 641.164 2765.9 635.751C2765.9 629.992 2768.22 625.1 2772.87 621.075C2777.52 617.05 2783.52 615.038 2790.88 615.038V615.037Z" fill="white"/>
<path d="M1302.91 526.228L1302.91 527.684C1302.91 532.048 1303.66 535.2 1305.15 537.141C1306.65 539.081 1308.4 540.778 1310.39 542.233C1314.39 545.142 1318.38 549.265 1322.37 554.599C1326.37 559.933 1328.37 566.723 1328.37 574.968V596.791H1203.32V574.968C1203.32 566.723 1205.06 560.055 1208.56 554.963C1212.05 549.871 1216.3 545.628 1221.29 542.233C1223.78 540.778 1225.66 539.081 1226.9 537.141C1228.15 535.2 1228.78 532.048 1228.78 527.684V526.229V123.226C1228.78 118.376 1228.15 114.981 1226.9 113.041C1225.66 111.101 1223.78 109.161 1221.29 107.22C1217.29 104.311 1213.3 100.188 1209.31 94.8539C1205.31 89.5196 1203.32 82.7303 1203.32 74.4855V53.3897H1328.37V74.4855C1328.37 82.7296 1326.37 89.5188 1322.38 94.8539C1318.38 100.189 1314.39 104.311 1310.4 107.22C1307.9 109.161 1306.03 111.101 1304.78 113.041C1303.53 114.981 1302.91 118.376 1302.91 123.226V526.229L1302.91 526.228ZM1676.37 52.663L1676.37 73.7606C1676.37 82.0047 1674.37 88.7939 1670.38 94.129C1666.39 99.4641 1662.39 103.586 1658.4 106.496C1656.4 108.436 1654.78 110.376 1653.53 112.316C1652.29 114.256 1651.41 117.408 1650.91 121.773V577.879C1650.91 582.729 1649.41 587.094 1646.42 590.973C1643.42 594.853 1638.93 596.793 1632.94 596.793H1589.51C1583.02 596.793 1578.4 594.125 1575.66 588.791C1572.91 583.456 1570.29 576.667 1567.8 568.422C1566.8 565.998 1563.55 556.42 1558.06 539.688C1552.57 522.957 1545.96 502.831 1538.22 479.311C1530.48 455.791 1522.24 430.694 1513.51 404.02C1504.77 377.347 1496.66 352.614 1489.17 329.821C1481.68 307.029 1475.44 287.993 1470.45 272.717C1465.46 257.441 1462.96 249.561 1462.96 249.075C1462.46 248.105 1461.97 247.378 1461.47 246.893C1460.97 246.407 1460.72 247.62 1460.72 250.53V526.231C1460.72 531.565 1461.47 535.202 1462.96 537.142C1464.46 539.082 1466.46 540.78 1468.95 542.234C1472.95 545.144 1476.82 549.267 1480.56 554.601C1484.3 559.935 1486.18 566.725 1486.18 574.969V596.793H1369.36V574.969C1369.36 566.725 1371.36 559.936 1375.35 554.601C1379.35 549.266 1383.34 545.144 1387.33 542.234C1389.33 540.78 1391.08 539.082 1392.58 537.142C1394.07 535.202 1394.82 531.807 1394.82 526.957V116.68C1389.83 114.74 1385.59 112.072 1382.09 108.677C1378.6 105.767 1375.6 101.766 1373.11 96.6743C1370.61 91.5822 1369.36 84.9138 1369.36 76.6697V52.664H1453.98C1459.97 52.664 1464.46 53.9975 1467.45 56.665C1470.45 59.3325 1472.7 63.0912 1474.19 67.9411C1474.19 68.9108 1476.69 77.1549 1481.68 92.6741C1486.67 108.193 1492.91 127.47 1500.4 150.506C1507.89 173.542 1516 198.761 1524.74 226.16C1533.47 253.559 1541.71 279.749 1549.45 304.724C1557.19 329.699 1564.05 351.644 1570.04 370.557L1582.02 408.384C1582.52 409.354 1583.14 410.324 1583.89 411.293C1584.64 412.263 1585.02 412.021 1585.02 410.566V122.499C1585.02 117.649 1584.27 114.254 1582.77 112.314C1581.27 110.374 1579.52 108.433 1577.53 106.493C1573.53 103.584 1569.54 99.4612 1565.55 94.1268C1561.55 88.7925 1559.56 82.0033 1559.56 73.7584V52.6626H1676.37L1676.37 52.663ZM1806.47 214.155C1806.47 223.854 1811.21 233.069 1820.7 241.798C1830.18 250.527 1841.92 259.378 1855.89 268.35C1869.87 277.321 1885.22 286.778 1901.94 296.72C1918.67 306.662 1934.02 317.696 1947.99 329.819C1961.97 341.941 1973.7 355.523 1983.19 370.555C1992.67 385.588 1997.42 402.807 1997.42 422.204V493.493C1997.42 511.921 1993.67 528.047 1986.18 541.868C1978.7 555.69 1968.71 567.087 1956.23 576.058C1943.75 585.029 1929.27 591.698 1912.8 596.063C1896.33 600.427 1878.86 602.61 1860.39 602.61C1841.91 602.61 1824.44 600.427 1807.97 596.063C1791.5 591.698 1777.14 585.03 1764.91 576.058C1752.68 567.086 1742.95 555.69 1735.71 541.868C1728.47 528.047 1724.85 511.921 1724.85 493.493V438.935H1760.8C1774.27 438.935 1784.38 441.966 1791.12 448.028C1797.86 454.09 1801.23 462.698 1801.23 473.852V505.132C1801.23 511.437 1803.1 517.014 1806.85 521.864C1810.59 526.714 1815.33 530.837 1821.07 534.232C1826.81 537.626 1833.18 540.294 1840.17 542.234C1847.16 544.174 1853.9 545.144 1860.39 545.144C1866.88 545.144 1873.61 544.053 1880.6 541.87C1887.59 539.688 1894.08 536.778 1900.07 533.141C1906.06 529.504 1910.93 525.139 1914.67 520.047C1918.42 514.955 1920.29 509.257 1920.29 502.952V425.843C1920.29 409.84 1915.67 396.14 1906.44 384.743C1897.2 373.346 1885.6 363.039 1871.62 353.826C1857.64 344.613 1842.54 335.518 1826.32 326.547C1810.09 317.576 1794.99 307.756 1781.01 297.086C1767.04 286.416 1755.43 273.928 1746.19 259.623C1736.96 245.317 1732.34 227.979 1732.34 207.61V155.962C1732.34 136.563 1735.59 119.954 1742.08 106.132C1748.57 92.3108 1757.55 80.9136 1769.03 71.9424C1780.51 62.9712 1793.99 56.4238 1809.47 52.3014C1824.94 48.179 1841.92 46.1182 1860.39 46.1182C1878.85 46.1182 1895.95 48.422 1911.68 53.0289C1927.4 57.6357 1941.13 64.425 1952.86 73.3973C1964.59 82.3695 1973.7 93.7656 1980.19 107.587C1986.68 121.408 1989.93 137.534 1989.93 155.962V209.793H1956.23C1943.75 209.793 1933.27 205.913 1924.78 198.154C1916.3 190.394 1912.05 180.695 1912.05 169.056V142.141C1912.05 136.321 1910.31 131.229 1906.81 126.864C1903.32 122.5 1898.95 118.984 1893.71 116.316C1888.47 113.649 1882.72 111.709 1876.48 110.496C1870.25 109.283 1864.63 108.678 1859.64 108.678C1854.15 108.678 1848.4 109.405 1842.41 110.86C1836.42 112.315 1830.68 114.497 1825.19 117.407C1819.7 120.317 1815.21 123.832 1811.71 127.955C1808.22 132.077 1806.47 136.806 1806.47 142.14V214.157L1806.47 214.155Z" fill="white"/>
<path d="M2444.38 599.775C2480.46 578.005 2505.78 540.726 2509.47 496.589C2513.15 453.793 2495.65 414.129 2465.72 386.991C2470.63 396.236 2474.32 406.226 2476.92 416.515C2484.29 440.671 2487.21 466.766 2484.91 493.607C2481.53 533.718 2466.79 570.251 2444.38 599.775Z" fill="white"/>
<path d="M2508.39 552.805C2537.41 525.07 2552.14 486.599 2544.16 447.978C2536.48 410.551 2509.31 381.176 2473.39 365.817C2480.45 372.527 2486.75 379.983 2491.81 388.184C2505.17 406.823 2514.99 428.295 2519.91 451.855C2526.97 486.897 2522.36 521.789 2508.39 552.805Z" fill="white"/>
<path d="M2306.38 602.61C2348.59 599.627 2388.96 577.857 2413.22 540.28C2436.7 503.897 2440.23 460.952 2426.42 423.375C2426.42 433.813 2425.04 444.251 2422.43 454.54C2417.52 479.442 2407.84 503.897 2392.95 526.711C2370.85 560.709 2340.3 586.505 2306.38 602.61Z" fill="white"/>
<path d="M2385.44 589.785C2424.43 578.154 2455.74 550.568 2467.1 512.842C2478 476.16 2468.02 437.987 2443.31 408.165C2446.38 417.41 2448.37 426.804 2449.14 436.198C2452.21 458.714 2450.52 482.125 2443.62 505.238C2433.33 539.683 2412.61 568.462 2385.44 589.785Z" fill="white"/>
<path d="M2182.65 543.113C2221.64 559.366 2267.69 558.173 2307.14 535.806C2345.37 514.334 2368.85 477.652 2374.53 438.286C2369.47 447.531 2363.33 456.18 2356.11 464.083C2339.99 483.766 2319.73 501.063 2295.63 514.781C2259.71 535.061 2220.56 544.156 2182.65 543.113Z" fill="white"/>
<path d="M2258.94 567.27C2299.16 574.427 2339.99 564.138 2367.93 535.807C2395.1 508.221 2404.31 469.899 2396.64 432.472C2395.1 441.866 2392.34 451.111 2388.35 459.908C2380.52 481.082 2367.93 501.213 2350.89 518.51C2325.26 544.455 2293.17 560.56 2258.94 567.27Z" fill="white"/>
<path d="M2101.29 435.004C2128 466.915 2169.45 486.448 2215.04 484.361C2259.25 482.422 2297.47 460.503 2321.27 427.996C2312.36 433.961 2302.84 438.881 2292.56 442.609C2269.07 452.898 2242.67 459.161 2214.88 460.354C2173.44 462.292 2134.45 452.749 2101.29 435.004Z" fill="white"/>
<path d="M2157.47 490.625C2189.56 515.08 2230.85 524.176 2269.23 511.501C2306.38 499.274 2332.93 469.302 2343.83 432.769C2338 440.374 2331.09 447.382 2323.57 453.347C2306.22 468.705 2285.5 480.933 2262.17 488.538C2227.17 500.019 2190.94 500.019 2157.47 490.625Z" fill="white"/>
<path d="M2080.56 302.444C2089.16 342.854 2116.64 378.641 2158.09 397.28C2198.15 415.323 2242.52 413.086 2278.9 395.043C2268.31 396.236 2257.41 396.236 2246.66 395.043C2220.72 393.552 2194.47 387.289 2169.29 376.106C2131.68 359.107 2101.44 333.161 2080.56 302.444Z" fill="white"/>
<path d="M2103.9 377C2120.78 413.085 2152.87 439.627 2193.09 445.592C2231.77 451.556 2269.69 436.794 2296.71 409.208C2287.96 413.532 2278.59 416.664 2268.92 418.453C2246.2 424.269 2222.1 425.909 2197.69 422.181C2161.31 416.664 2129.23 400.41 2103.9 377Z" fill="white"/>
<path d="M2128.61 170.777C2116.18 210.143 2122.47 254.578 2149.49 290.217C2175.74 324.662 2215.81 343.45 2256.79 344.643C2246.82 340.766 2237.3 335.696 2228.39 329.582C2206.44 316.162 2186.49 298.418 2169.91 276.647C2145.19 244.29 2131.68 207.459 2128.61 170.777Z" fill="white"/>
<path d="M2112.19 247.123C2109.12 286.638 2124.16 324.811 2156.4 348.967C2187.56 372.229 2227.78 377 2265.23 365.518C2255.41 364.922 2245.74 363.282 2236.22 360.598C2213.5 355.081 2191.7 345.09 2172.05 330.477C2142.73 308.557 2122.78 279.331 2112.19 247.123Z" fill="white"/>
<path d="M2230.54 80.415C2200.76 109.79 2185.26 151.84 2192.32 195.68C2199.07 238.028 2225.78 272.622 2261.55 292.007C2254.49 284.253 2248.35 275.455 2243.44 265.912C2230.39 244.141 2221.03 219.538 2216.88 192.846C2210.43 153.033 2215.81 114.264 2230.54 80.415Z" fill="white"/>
<path d="M2179.73 140.805C2158.24 174.356 2153.33 215.063 2170.37 250.851C2186.95 285.445 2220.41 307.663 2259.1 314.373C2250.65 309.601 2242.67 303.786 2235.76 296.926C2218.11 281.866 2203.53 263.227 2193.09 241.456C2177.58 209.099 2173.59 174.057 2179.73 140.805Z" fill="white"/>
<path d="M2363.94 46.1182C2323.57 58.6437 2289.8 89.2119 2275.21 131.113C2261.09 171.821 2268.15 214.467 2290.72 247.719C2288.26 237.58 2287.04 226.992 2287.04 216.405C2285.81 191.354 2289.34 165.26 2298.09 139.761C2311.44 101.439 2334.78 69.6781 2363.94 46.1182Z" fill="white"/>
<path d="M2290.11 76.686C2255.11 96.9654 2231.31 130.814 2229.47 170.18C2227.63 208.353 2246.82 243.096 2277.98 266.358C2272.61 258.306 2268.46 249.657 2265.54 240.561C2257.1 219.238 2252.96 196.126 2254.03 172.118C2255.72 136.331 2268.92 103.675 2290.11 76.686Z" fill="white"/>
<path d="M2498.57 75.4943C2456.82 68.6351 2412.3 80.4151 2379.29 111.132C2347.52 140.806 2333.55 181.812 2337.54 221.476C2340.3 211.486 2344.14 201.495 2349.36 192.101C2360.1 169.286 2375.61 147.814 2395.72 129.026C2425.65 100.993 2461.57 83.2482 2498.57 75.4943Z" fill="white"/>
<path d="M2418.59 69.5298C2377.91 71.7665 2340.76 91.1512 2320.35 125.298C2300.54 158.252 2301 197.618 2317.43 232.361C2316.82 222.669 2317.12 213.126 2318.81 203.732C2321.42 181.066 2328.79 158.699 2341.22 137.973C2359.65 106.957 2386.97 83.8447 2418.59 69.5298Z" fill="white"/>
<path d="M2603.88 161.979C2570.11 137.077 2525.13 127.683 2481.22 140.059C2438.86 152.137 2407.08 182.258 2391.73 219.089C2398.94 211.335 2407.08 204.327 2416.14 198.363C2436.71 182.855 2460.65 170.777 2487.21 163.321C2527.12 151.988 2567.5 152.287 2603.88 161.979Z" fill="white"/>
<path d="M2535.87 120.823C2498.72 104.421 2456.51 105.017 2422.28 126.191C2388.96 146.471 2370.54 181.662 2368.7 219.835C2372.54 211.037 2377.6 202.687 2383.44 194.933C2396.64 176.144 2413.68 159.593 2434.56 146.769C2465.87 127.683 2501.03 119.332 2535.87 120.823Z" fill="white"/>
<path d="M2656.22 286.042C2638.11 248.764 2602.65 220.134 2557.82 211.486C2514.53 203.135 2471.86 215.512 2440.85 241.457C2450.83 237.879 2461.42 235.195 2472.32 234.002C2497.8 229.528 2524.97 229.678 2552.14 234.896C2592.82 242.65 2628.44 260.991 2656.22 286.042Z" fill="white"/>
<path d="M2615.39 218.941C2590.21 187.776 2552.6 169.286 2512.23 172.567C2473.09 175.698 2440.08 198.661 2420.28 231.616C2427.8 225.651 2436.09 220.432 2445.15 216.406C2465.72 205.521 2488.74 198.512 2513.31 196.574C2550.15 193.592 2585.3 201.942 2615.39 218.941Z" fill="white"/>
<path d="M2643.64 419.498C2645.17 378.492 2627.52 337.038 2591.9 309.303C2557.36 282.463 2513.77 274.261 2473.86 283.357C2484.45 284.55 2495.04 287.085 2505.32 290.813C2530.04 298.418 2553.99 310.496 2575.63 327.495C2608.02 352.546 2630.9 384.903 2643.64 419.498Z" fill="white"/>
<path d="M2639.34 341.66C2631.81 302.742 2607.25 269.489 2569.8 254.28C2533.57 239.518 2493.35 244.886 2460.19 265.314C2469.86 263.376 2479.69 262.481 2489.51 262.779C2513 262.481 2536.79 266.507 2559.51 275.901C2593.44 289.769 2620.61 313.18 2639.34 341.66Z" fill="white"/>
<path d="M2568.88 532.227C2589.91 496.44 2593.75 451.855 2575.32 411.296C2557.52 372.079 2522.82 345.239 2483.06 335.248C2491.97 341.213 2500.1 348.072 2507.47 355.975C2525.89 373.719 2541.4 395.341 2552.45 420.094C2569.18 456.925 2574.1 495.843 2568.88 532.227Z" fill="white"/>
<path d="M2602.19 461.249C2614.01 423.524 2608.02 382.816 2582.08 352.546C2557.06 323.171 2518.68 309.899 2479.54 313.18C2489.05 315.864 2498.11 319.443 2506.71 324.214C2527.74 334.354 2546.77 348.818 2562.58 367.308C2586.07 394.745 2599.12 427.55 2602.19 461.249Z" fill="white"/>
<path d="M2824.6 214.155C2824.6 223.854 2829.34 233.068 2838.83 241.798C2848.32 250.527 2860.05 259.378 2874.03 268.349C2888.01 277.321 2903.36 286.777 2920.08 296.72C2936.81 306.662 2952.16 317.695 2966.14 329.818C2980.12 341.941 2991.85 355.522 3001.34 370.555C3010.82 385.587 3015.57 402.806 3015.57 422.203V493.492C3015.57 511.92 3011.82 528.046 3004.33 541.867C2996.85 555.689 2986.86 567.086 2974.38 576.057C2961.9 585.028 2947.42 591.697 2930.94 596.062C2914.47 600.426 2896.99 602.609 2878.52 602.609C2860.05 602.609 2842.57 600.426 2826.1 596.062C2809.62 591.697 2795.27 585.029 2783.04 576.057C2770.81 567.086 2761.07 555.689 2753.83 541.867C2746.59 528.046 2742.97 511.92 2742.97 493.492V438.934H2778.92C2792.4 438.934 2802.51 441.966 2809.25 448.027C2815.99 454.089 2819.36 462.697 2819.36 473.852V505.132C2819.36 511.436 2821.23 517.014 2824.98 521.863C2828.72 526.713 2833.46 530.836 2839.2 534.231C2844.95 537.626 2851.31 540.293 2858.3 542.233C2865.29 544.173 2872.03 545.143 2878.52 545.143C2885.01 545.143 2891.75 544.052 2898.74 541.87C2905.73 539.687 2912.22 536.777 2918.21 533.14C2924.2 529.503 2929.07 525.138 2932.82 520.046C2936.56 514.954 2938.43 509.256 2938.43 502.951V425.843C2938.43 409.839 2933.81 396.139 2924.58 384.742C2915.34 373.345 2903.73 363.039 2889.75 353.826C2875.77 344.613 2860.67 335.518 2844.45 326.547C2828.22 317.576 2813.12 307.755 2799.14 297.085C2785.16 286.416 2773.55 273.927 2764.32 259.622C2755.08 245.317 2750.46 227.979 2750.46 207.61V155.962C2750.46 136.563 2753.71 119.953 2760.2 106.132C2766.69 92.3107 2775.67 80.9135 2787.16 71.9423C2798.64 62.9711 2812.12 56.4238 2827.6 52.3014C2843.07 48.179 2860.05 46.1182 2878.52 46.1182C2896.99 46.1182 2914.09 48.422 2929.82 53.0288C2945.55 57.6357 2959.28 64.425 2971.01 73.3972C2982.74 82.3695 2991.85 93.7656 2998.34 107.587C3004.83 121.408 3008.08 137.534 3008.08 155.962V209.792H2974.38C2961.9 209.792 2951.41 205.913 2942.93 198.153C2934.44 190.394 2930.19 180.695 2930.19 169.056V142.14C2930.19 136.321 2928.45 131.229 2924.95 126.864C2921.46 122.5 2917.09 118.984 2911.85 116.316C2906.6 113.649 2900.86 111.709 2894.62 110.496C2888.38 109.283 2882.77 108.677 2877.77 108.677C2872.28 108.677 2866.54 109.405 2860.55 110.86C2854.56 112.315 2848.82 114.497 2843.32 117.407C2837.83 120.316 2833.34 123.832 2829.84 127.955C2826.35 132.077 2824.6 136.805 2824.6 142.14V214.156L2824.6 214.155Z" fill="white"/>
</svg>
