<svg width="695" height="474" viewBox="0 0 695 474" fill="none" xmlns="http://www.w3.org/2000/svg">
<g opacity="0.7" clip-path="url(#clip0_24_165)">
<path opacity="0.18" d="M283.602 89.1782C275.369 107.109 273.629 127.466 262.258 143.926C245.008 168.902 210.553 178.555 185.377 197.202C160.35 215.753 144.454 245.007 146.949 274.198C149.445 303.389 171.835 331.188 202.846 339.521C213.593 342.416 225.254 343.139 234.929 348.268C256.502 359.702 259.762 387.812 279.077 402.172C296.353 415.014 321.748 413.424 343.119 407.508C364.49 401.592 385.027 391.986 407.338 390.77C420.642 390.046 434.025 392.36 447.277 391.112C464.166 389.521 479.685 382.253 494.535 374.795C520.361 361.818 548.139 344.467 552.436 318.02C557.357 287.549 528.428 259.917 528.885 229.12C529.096 214.807 535.739 201.027 536.355 186.69C537.233 166.914 525.529 147.09 506.917 136.705C491.688 128.197 473.129 126.002 457.215 118.599C435.642 108.564 420.8 89.9733 402.496 75.5967C369.376 49.5867 302.794 47.3523 283.602 89.1782Z" fill="#FEFEFE"/>
<path d="M424.052 180.304C426.829 176.718 432.672 176.122 437.233 177.609C441.794 179.096 445.449 182.165 449.237 184.893C453.024 187.62 457.382 190.149 462.224 190.22C464.158 190.22 466.117 189.87 468.024 190.173C469.778 190.507 471.35 191.382 472.472 192.648C473.593 193.913 474.195 195.492 474.175 197.114C460.27 196.393 446.338 198.011 433.085 201.885C426.556 203.794 419.025 206.155 413.252 202.768C411.099 201.496 409.438 199.508 407.031 198.705C402.066 197.051 396.486 201.09 391.45 199.571C389.28 198.903 387.663 197.297 385.747 196.144C379.412 192.335 370.616 193.95 363.919 190.681C363.351 190.461 362.841 190.135 362.421 189.724C362.002 189.313 361.683 188.826 361.485 188.296C361.134 186.785 362.61 185.338 364.253 184.901C365.897 184.463 367.645 184.718 369.35 184.829C373.726 185.093 378.102 184.303 382.03 182.539C383.682 181.791 385.396 180.845 387.224 181.084C390.853 181.553 393.524 186.427 396.784 184.932C394.403 186.022 395.291 178.77 395.712 178.07C397.083 175.836 401.547 174.261 404.122 173.665C411.415 171.955 419.913 174.508 424.052 180.304Z" fill="#FEFEFE"/>
<path d="M424.052 180.304C426.829 176.718 432.672 176.122 437.233 177.609C441.794 179.096 445.449 182.165 449.237 184.893C453.024 187.62 457.382 190.149 462.224 190.22C464.158 190.22 466.117 189.87 468.024 190.173C469.778 190.507 471.35 191.382 472.472 192.648C473.593 193.913 474.195 195.492 474.175 197.114C460.27 196.393 446.338 198.011 433.085 201.885C426.556 203.794 419.025 206.155 413.252 202.768C411.099 201.496 409.438 199.508 407.031 198.705C402.066 197.051 396.486 201.09 391.45 199.571C389.28 198.903 387.663 197.297 385.747 196.144C379.412 192.335 370.616 193.95 363.919 190.681C363.351 190.461 362.841 190.135 362.421 189.724C362.002 189.313 361.683 188.826 361.485 188.296C361.134 186.785 362.61 185.338 364.253 184.901C365.897 184.463 367.645 184.718 369.35 184.829C373.726 185.093 378.102 184.303 382.03 182.539C383.682 181.791 385.396 180.845 387.224 181.084C390.853 181.553 393.524 186.427 396.784 184.932C394.403 186.022 395.291 178.77 395.712 178.07C397.083 175.836 401.547 174.261 404.122 173.665C411.415 171.955 419.913 174.508 424.052 180.304Z" fill="url(#paint0_linear_24_165)"/>
<path d="M373.428 -1.52588e-05L279.288 90.7526H322.689V180.042H418.261V90.021H459.439L373.428 -1.52588e-05Z" fill="#68E1FD"/>
<path d="M165.974 173.546L224.068 115.848L284.077 172.416H247.223V245.262H196.062V173.546H165.974Z" fill="#68E1FD"/>
<path d="M456.767 144.212L514.861 86.5143L574.87 143.083H538.016V215.928H486.855V144.212H456.767Z" fill="#68E1FD"/>
<path d="M359.561 252.466C359.561 252.466 359.631 323.642 356.134 330.305C353.384 335.545 329.324 343.258 319.174 346.32C316.424 347.155 314.684 347.64 314.684 347.64L316.635 313.67C315.836 318.268 314.583 322.792 312.891 327.188C310.527 333.001 306.968 338.169 301.977 336.73C291.494 333.716 288.541 331.959 288.541 331.959L284.077 317.646C284.077 317.646 300.861 310.792 301.177 302.466C301.494 294.141 306.863 269.22 321.441 263.718L324.447 262.581L336.02 258.215C336.02 258.215 345.686 231.235 343.594 208.589C341.503 185.942 343.594 182.547 343.594 182.547H358.322C358.322 182.547 359.306 205.742 359.561 212.215C359.816 218.687 359.561 252.466 359.561 252.466Z" fill="#0C0C0F"/>
<path d="M348.673 240.069C347.048 245.962 344.482 251.599 341.924 257.213C340.606 259.599 339.816 264.815 337.127 266.358C334.262 268.004 328.981 264.505 326.283 263.408C325.677 263.153 325.053 262.891 324.446 262.612L336.019 258.247C336.019 258.247 345.685 231.267 343.594 208.62C341.503 185.974 343.594 182.579 343.594 182.579H345.088C345.326 182.684 345.548 182.818 345.747 182.976C347.197 184.097 347.408 186.022 347.505 187.747C347.838 192.709 348.164 197.735 347.1 202.609C346.445 204.888 345.925 207.197 345.545 209.527C345.316 211.873 345.773 214.401 347.496 216.167C348.304 216.962 349.376 217.63 349.956 218.6C350.405 219.459 350.63 220.401 350.615 221.351C351.003 227.643 350.348 233.952 348.673 240.069Z" fill="#F9F9FF"/>
<path d="M323.717 339.147C322.992 340.205 322.402 341.333 321.959 342.511C321.84 343.058 321.654 343.591 321.406 344.101C321.144 344.507 320.815 344.875 320.43 345.191L319.165 346.352C316.414 347.187 314.674 347.672 314.674 347.672L316.625 313.702C315.827 318.3 314.574 322.824 312.882 327.22C313.541 321.304 315.764 312.724 315.852 309.249C316.002 304.265 316.958 299.327 318.69 294.594C320.105 295.493 320.571 297.162 320.834 298.697C321.871 304.661 321.52 310.847 323.471 316.62C324.745 320.397 326.986 323.976 327.276 327.928C327.566 331.88 325.826 335.688 323.717 339.147Z" fill="#F9F9FF"/>
<path d="M322.399 320.191L315.255 326.401C314.885 326.722 314.41 326.926 313.901 326.981L270.904 331.752C270.354 331.817 269.796 331.704 269.329 331.431C268.863 331.159 268.518 330.746 268.356 330.265L258.488 301.202C258.388 300.901 258.362 300.584 258.412 300.273C258.461 299.962 258.586 299.665 258.776 299.402C258.966 299.139 259.217 298.917 259.512 298.752C259.807 298.586 260.138 298.48 260.483 298.443L300.377 294.332C300.925 294.275 301.477 294.393 301.937 294.666C302.398 294.939 302.739 295.35 302.899 295.827L309.411 314.998C309.71 315.897 309.956 316.509 309.956 316.509H320.782C321.252 316.513 321.71 316.643 322.097 316.883C322.485 317.123 322.784 317.463 322.958 317.858C323.131 318.253 323.171 318.686 323.071 319.101C322.972 319.517 322.738 319.896 322.399 320.191Z" fill="#FEFEFE"/>
<path d="M343.066 176.321C343.012 176.065 343.026 175.8 343.107 175.55C343.188 175.3 343.334 175.07 343.532 174.881C343.76 174.753 344.028 174.692 344.296 174.71C344.565 174.727 344.82 174.82 345.026 174.977C345.441 175.29 345.771 175.684 345.993 176.13L347.144 178.014C347.412 178.539 347.805 179.003 348.295 179.374C349.131 179.788 350.094 179.944 351.037 179.819L355.729 179.637C355.931 179.616 356.134 179.646 356.318 179.724C356.443 179.82 356.537 179.944 356.593 180.084C356.648 180.223 356.663 180.373 356.634 180.519C356.617 181.21 356.431 181.889 356.09 182.507L350.817 182.682C349.367 182.73 347.1 183.207 345.72 182.809C343.629 182.181 343.163 178.006 343.066 176.321Z" fill="url(#paint1_linear_24_165)"/>
<path d="M357.83 409.393C357.338 412.072 352.557 424.453 352.557 424.453L348.955 422.338L344.236 419.571C344.236 419.571 352.821 384.027 352.056 380.393C351.292 376.759 345.317 367.368 345.317 367.368L341.222 452.904L330.677 456.586C330.677 456.586 313.699 364.299 314.657 347.648L356.107 330.313C356.107 330.313 368.41 363.082 369.886 370.008C371.362 376.934 358.331 406.713 357.83 409.393Z" fill="#FEFEFE"/>
<path d="M342.355 429.081L360.809 439.625C360.809 439.625 362.979 436.396 359.552 432.325C356.125 428.254 352.522 424.453 352.522 424.453L344.183 419.571L342.355 429.081Z" fill="#0C0C0F"/>
<path d="M330.703 456.586C330.703 456.586 324.789 466.629 327.004 471.98C329.218 477.332 334.218 470.788 337.118 466.851C339.578 463.496 342.338 456.586 342.338 456.586L341.222 452.904L330.703 456.586Z" fill="#0C0C0F"/>
<path d="M361.467 375.59L348.954 422.338L344.235 419.571C344.235 419.571 352.821 384.027 352.056 380.393C351.292 376.759 345.316 367.368 345.316 367.368C345.316 367.368 350.184 359.559 351.916 361.229C353.647 362.899 361.467 375.59 361.467 375.59Z" fill="url(#paint2_linear_24_165)"/>
<path d="M321.793 344.666L332.882 455.822L330.703 456.618C330.703 456.618 313.752 363.909 314.684 347.68L321.793 344.666Z" fill="url(#paint3_linear_24_165)"/>
<path d="M320.764 316.477L312.443 323.427L309.411 314.998C309.71 315.897 309.956 316.509 309.956 316.509L320.764 316.477Z" fill="url(#paint4_linear_24_165)"/>
<path d="M258.488 301.234L298.128 297.314C298.799 297.247 299.476 297.389 300.048 297.715C300.619 298.041 301.051 298.533 301.274 299.111L312.179 327.172L270.878 331.784L258.488 301.234Z" fill="url(#paint5_linear_24_165)"/>
<path d="M334.675 251.202C333.655 253.253 336.019 258.247 336.019 258.247C336.019 258.247 338.576 262.676 337.715 267.145C337.715 267.36 337.618 267.582 337.566 267.797C336.283 272.48 319.85 267.527 320.351 260.982C320.852 254.438 312.855 237.755 312.855 237.755C317.548 219.013 332.926 224.953 334.297 225.955C335.668 226.957 340.782 241.771 339.385 245.135C338.988 246.109 338.415 247.017 337.689 247.822C336.546 249.126 335.342 249.858 334.675 251.202Z" fill="url(#paint6_linear_24_165)"/>
<path d="M334.297 225.971C334.297 225.971 336.599 220.787 334.297 218.942C331.995 217.097 328.146 216.604 323.796 216.437C319.446 216.27 318.084 215.594 314.684 218.942C311.283 222.289 310.141 227.53 308.032 228.428C305.923 229.327 304.077 232.348 305.184 235.33C306.292 238.312 309.068 243.059 309.622 243.218C310.176 243.377 313.972 247.059 314.156 249.238C314.341 251.416 319.236 252.466 319.236 252.466L318.963 243.878C318.963 243.878 318.409 246.136 316.098 244.212C313.787 242.288 317.206 240.03 317.478 240.117C317.75 240.205 314.842 235.712 315.764 233.517C316.687 231.323 321.986 219.467 334.297 225.971Z" fill="#0C0C0F"/>
<path d="M337.715 267.177C337.569 267.511 337.347 267.814 337.065 268.067C336.626 268.401 336.095 268.622 335.529 268.706C334.963 268.789 334.383 268.734 333.849 268.544C332.79 268.144 331.862 267.506 331.151 266.692C329.54 265.005 328.375 263.008 327.743 260.854C327.112 258.699 327.03 256.443 327.504 254.255C327.654 253.458 327.976 252.696 328.453 252.013C329.613 250.486 331.784 249.937 333.682 249.23C335.58 248.522 336.968 247.369 337.689 247.854C336.546 249.142 335.343 249.874 334.675 251.218C333.655 253.269 336.019 258.263 336.019 258.263C336.019 258.263 338.576 262.676 337.715 267.177Z" fill="url(#paint7_linear_24_165)"/>
<path d="M424.245 228.611C422.487 235.768 427.268 243.719 434.842 246.224C441.213 248.331 448.261 246.796 455.054 246.804C466.934 246.804 478.226 251.671 490.08 252.371C497.929 252.825 505.775 251.456 512.875 248.395C516.978 246.622 520.924 244.268 525.432 243.751C529.21 243.314 533.156 244.22 536.812 243.234C543.024 241.564 546.126 234.416 543.885 228.921C541.645 223.427 535.239 219.904 528.78 219.379C522.506 218.902 516.021 220.842 509.992 219.204C503.252 217.375 498.63 211.475 491.934 209.503C482.128 206.625 472.207 212.97 464.271 218.934C463.423 216.781 461.882 214.908 459.845 213.556C457.809 212.203 455.372 211.434 452.848 211.348C447.663 211.252 442.54 215.149 437.83 216.914C431.556 219.347 425.914 221.955 424.245 228.611Z" fill="#FEFEFE"/>
<path d="M424.245 228.611C422.487 235.768 427.268 243.719 434.842 246.224C441.213 248.331 448.261 246.796 455.054 246.804C466.934 246.804 478.226 251.671 490.08 252.371C497.929 252.825 505.775 251.456 512.875 248.395C516.978 246.622 520.924 244.268 525.432 243.751C529.21 243.314 533.156 244.22 536.812 243.234C543.024 241.564 546.126 234.416 543.885 228.921C541.645 223.427 535.239 219.904 528.78 219.379C522.506 218.902 516.021 220.842 509.992 219.204C503.252 217.375 498.63 211.475 491.934 209.503C482.128 206.625 472.207 212.97 464.271 218.934C463.423 216.781 461.882 214.908 459.845 213.556C457.809 212.203 455.372 211.434 452.848 211.348C447.663 211.252 442.54 215.149 437.83 216.914C431.556 219.347 425.914 221.955 424.245 228.611Z" fill="url(#paint8_linear_24_165)"/>
<path d="M120.482 240.395C118.724 247.552 123.505 255.504 131.088 258.008C137.459 260.116 144.498 258.573 151.299 258.589C163.171 258.589 174.463 263.447 186.317 264.155C194.168 264.609 202.018 263.241 209.12 260.179C213.224 258.414 217.161 256.052 221.678 255.535C225.456 255.106 229.402 256.012 233.057 255.026C239.261 253.357 242.372 246.2 240.131 240.713C237.89 235.227 231.475 231.688 225.026 231.171C218.751 230.686 212.266 232.627 206.238 230.996C199.489 229.168 194.867 223.259 188.18 221.295C178.373 218.409 168.452 224.762 160.517 230.718C159.667 228.567 158.125 226.695 156.089 225.345C154.053 223.994 151.616 223.226 149.093 223.14C143.909 223.045 138.786 226.933 134.076 228.706C127.793 231.132 122.169 233.78 120.482 240.395Z" fill="#FEFEFE"/>
<path d="M120.482 240.395C118.724 247.552 123.505 255.504 131.088 258.008C137.459 260.116 144.498 258.573 151.299 258.589C163.171 258.589 174.463 263.447 186.317 264.155C194.168 264.609 202.018 263.241 209.12 260.179C213.224 258.414 217.161 256.052 221.678 255.535C225.456 255.106 229.402 256.012 233.057 255.026C239.261 253.357 242.372 246.2 240.131 240.713C237.89 235.227 231.475 231.688 225.026 231.171C218.751 230.686 212.266 232.627 206.238 230.996C199.489 229.168 194.867 223.259 188.18 221.295C178.373 218.409 168.452 224.762 160.517 230.718C159.667 228.567 158.125 226.695 156.089 225.345C154.053 223.994 151.616 223.226 149.093 223.14C143.909 223.045 138.786 226.933 134.076 228.706C127.793 231.132 122.169 233.78 120.482 240.395Z" fill="url(#paint9_linear_24_165)"/>
<path d="M285.351 331.705C286.245 331.869 287.162 331.898 288.066 331.792L292.961 331.482C293.592 331.461 294.218 331.368 294.824 331.204C295.361 331.025 295.842 330.73 296.225 330.345C296.608 329.96 296.881 329.496 297.021 328.993C297.069 328.845 297.069 328.688 297.021 328.54C296.854 328.087 296.142 328.118 295.676 328.389C295.211 328.659 294.894 329.081 294.376 329.184C294.097 329.206 293.816 329.176 293.55 329.096L290.782 328.46C290.626 328.413 290.461 328.397 290.298 328.413C289.692 328.5 289.639 329.263 289.736 329.812C289.549 329.588 289.309 329.403 289.034 329.273C288.759 329.142 288.456 329.068 288.145 329.057C287.834 329.059 287.536 329.172 287.315 329.371C287.095 329.57 286.97 329.84 286.968 330.122L285.878 329.327C285.729 329.224 285.527 329.112 285.36 329.2C285.28 329.258 285.224 329.34 285.202 329.43L284.833 330.281C284.929 330.059 283.444 329.486 283.347 330.281C283.295 330.965 284.85 331.585 285.351 331.705Z" fill="url(#paint10_linear_24_165)"/>
</g>
<defs>
<linearGradient id="paint0_linear_24_165" x1="424.245" y1="170.421" x2="414.975" y2="209.127" gradientUnits="userSpaceOnUse">
<stop stop-color="white" stop-opacity="0"/>
<stop offset="0.06" stop-color="white" stop-opacity="0.13"/>
<stop offset="0.16" stop-color="white" stop-opacity="0.33"/>
<stop offset="0.26" stop-color="white" stop-opacity="0.51"/>
<stop offset="0.37" stop-color="white" stop-opacity="0.66"/>
<stop offset="0.48" stop-color="white" stop-opacity="0.79"/>
<stop offset="0.59" stop-color="white" stop-opacity="0.88"/>
<stop offset="0.71" stop-color="white" stop-opacity="0.95"/>
<stop offset="0.84" stop-color="white" stop-opacity="0.99"/>
<stop offset="1" stop-color="white"/>
</linearGradient>
<linearGradient id="paint1_linear_24_165" x1="343.058" y1="178.825" x2="356.634" y2="178.825" gradientUnits="userSpaceOnUse">
<stop stop-color="#ECC4D7"/>
<stop offset="0.42" stop-color="#EFD4D1"/>
<stop offset="1" stop-color="#F2EAC9"/>
</linearGradient>
<linearGradient id="paint2_linear_24_165" x1="381.925" y1="378.421" x2="219.256" y2="460.704" gradientUnits="userSpaceOnUse">
<stop stop-opacity="0.07"/>
<stop offset="0.08" stop-opacity="0.25"/>
<stop offset="1"/>
</linearGradient>
<linearGradient id="paint3_linear_24_165" x1="6873.12" y1="57178.1" x2="10480.9" y2="57093.2" gradientUnits="userSpaceOnUse">
<stop stop-opacity="0.07"/>
<stop offset="0.08" stop-opacity="0.25"/>
<stop offset="1"/>
</linearGradient>
<linearGradient id="paint4_linear_24_165" x1="4604.12" y1="3629.19" x2="4206.99" y2="4090.91" gradientUnits="userSpaceOnUse">
<stop stop-opacity="0.07"/>
<stop offset="0.08" stop-opacity="0.25"/>
<stop offset="1"/>
</linearGradient>
<linearGradient id="paint5_linear_24_165" x1="288.514" y1="327.204" x2="300.241" y2="385.77" gradientUnits="userSpaceOnUse">
<stop stop-opacity="0.07"/>
<stop offset="0.52" stop-opacity="0.83"/>
<stop offset="0.56" stop-opacity="0.87"/>
<stop offset="1"/>
</linearGradient>
<linearGradient id="paint6_linear_24_165" x1="10241.9" y1="14315.2" x2="11057.3" y2="14315.2" gradientUnits="userSpaceOnUse">
<stop stop-color="#ECC4D7"/>
<stop offset="0.42" stop-color="#EFD4D1"/>
<stop offset="1" stop-color="#F2EAC9"/>
</linearGradient>
<linearGradient id="paint7_linear_24_165" x1="4456.84" y1="6746.94" x2="5476.33" y2="7550.17" gradientUnits="userSpaceOnUse">
<stop stop-color="#ECC4D7"/>
<stop offset="0.42" stop-color="#EFD4D1"/>
<stop offset="1" stop-color="#F2EAC9"/>
</linearGradient>
<linearGradient id="paint8_linear_24_165" x1="489.5" y1="206.792" x2="478.575" y2="270.938" gradientUnits="userSpaceOnUse">
<stop offset="0.02" stop-color="white" stop-opacity="0"/>
<stop offset="0.06" stop-color="white" stop-opacity="0.13"/>
<stop offset="0.13" stop-color="white" stop-opacity="0.33"/>
<stop offset="0.2" stop-color="white" stop-opacity="0.51"/>
<stop offset="0.27" stop-color="white" stop-opacity="0.66"/>
<stop offset="0.35" stop-color="white" stop-opacity="0.79"/>
<stop offset="0.43" stop-color="white" stop-opacity="0.88"/>
<stop offset="0.51" stop-color="white" stop-opacity="0.95"/>
<stop offset="0.6" stop-color="white" stop-opacity="0.99"/>
<stop offset="0.71" stop-color="white"/>
</linearGradient>
<linearGradient id="paint9_linear_24_165" x1="26663.5" y1="12088.2" x2="26678.9" y2="15333.8" gradientUnits="userSpaceOnUse">
<stop stop-color="white" stop-opacity="0"/>
<stop offset="0.06" stop-color="white" stop-opacity="0.13"/>
<stop offset="0.16" stop-color="white" stop-opacity="0.33"/>
<stop offset="0.26" stop-color="white" stop-opacity="0.51"/>
<stop offset="0.37" stop-color="white" stop-opacity="0.66"/>
<stop offset="0.48" stop-color="white" stop-opacity="0.79"/>
<stop offset="0.59" stop-color="white" stop-opacity="0.88"/>
<stop offset="0.71" stop-color="white" stop-opacity="0.95"/>
<stop offset="0.84" stop-color="white" stop-opacity="0.99"/>
<stop offset="1" stop-color="white"/>
</linearGradient>
<linearGradient id="paint10_linear_24_165" x1="4908.89" y1="1848.66" x2="5122.64" y2="1848.66" gradientUnits="userSpaceOnUse">
<stop stop-color="#ECC4D7"/>
<stop offset="0.42" stop-color="#EFD4D1"/>
<stop offset="1" stop-color="#F2EAC9"/>
</linearGradient>
<clipPath id="clip0_24_165">
<rect width="695" height="474" fill="white"/>
</clipPath>
</defs>
</svg>
