<?xml version="1.0" standalone="no"?><svg xmlns="http://www.w3.org/2000/svg" viewBox="0 0 1440 320"><path fill="#000046" fill-opacity="1" d="M0,288L0,0L36.9,0L36.9,256L73.8,256L73.8,256L110.8,256L110.8,96L147.7,96L147.7,32L184.6,32L184.6,192L221.5,192L221.5,160L258.5,160L258.5,224L295.4,224L295.4,192L332.3,192L332.3,128L369.2,128L369.2,32L406.2,32L406.2,192L443.1,192L443.1,288L480,288L480,32L516.9,32L516.9,192L553.8,192L553.8,96L590.8,96L590.8,160L627.7,160L627.7,96L664.6,96L664.6,256L701.5,256L701.5,192L738.5,192L738.5,64L775.4,64L775.4,32L812.3,32L812.3,256L849.2,256L849.2,288L886.2,288L886.2,256L923.1,256L923.1,128L960,128L960,160L996.9,160L996.9,0L1033.8,0L1033.8,96L1070.8,96L1070.8,256L1107.7,256L1107.7,160L1144.6,160L1144.6,32L1181.5,32L1181.5,0L1218.5,0L1218.5,32L1255.4,32L1255.4,192L1292.3,192L1292.3,32L1329.2,32L1329.2,64L1366.2,64L1366.2,160L1403.1,160L1403.1,224L1440,224L1440,320L1403.1,320L1403.1,320L1366.2,320L1366.2,320L1329.2,320L1329.2,320L1292.3,320L1292.3,320L1255.4,320L1255.4,320L1218.5,320L1218.5,320L1181.5,320L1181.5,320L1144.6,320L1144.6,320L1107.7,320L1107.7,320L1070.8,320L1070.8,320L1033.8,320L1033.8,320L996.9,320L996.9,320L960,320L960,320L923.1,320L923.1,320L886.2,320L886.2,320L849.2,320L849.2,320L812.3,320L812.3,320L775.4,320L775.4,320L738.5,320L738.5,320L701.5,320L701.5,320L664.6,320L664.6,320L627.7,320L627.7,320L590.8,320L590.8,320L553.8,320L553.8,320L516.9,320L516.9,320L480,320L480,320L443.1,320L443.1,320L406.2,320L406.2,320L369.2,320L369.2,320L332.3,320L332.3,320L295.4,320L295.4,320L258.5,320L258.5,320L221.5,320L221.5,320L184.6,320L184.6,320L147.7,320L147.7,320L110.8,320L110.8,320L73.8,320L73.8,320L36.9,320L36.9,320L0,320L0,320Z"></path></svg>