<?xml version="1.0" standalone="no"?><svg xmlns="http://www.w3.org/2000/svg" viewBox="0 0 1440 320"><path fill="#000046" fill-opacity="1" d="M0,320L0,32L40,32L40,32L80,32L80,224L120,224L120,64L160,64L160,32L200,32L200,128L240,128L240,256L280,256L280,288L320,288L320,160L360,160L360,0L400,0L400,288L440,288L440,224L480,224L480,192L520,192L520,160L560,160L560,128L600,128L600,160L640,160L640,32L680,32L680,32L720,32L720,256L760,256L760,224L800,224L800,288L840,288L840,192L880,192L880,288L920,288L920,192L960,192L960,256L1000,256L1000,192L1040,192L1040,192L1080,192L1080,288L1120,288L1120,192L1160,192L1160,128L1200,128L1200,192L1240,192L1240,128L1280,128L1280,0L1320,0L1320,64L1360,64L1360,32L1400,32L1400,256L1440,256L1440,0L1400,0L1400,0L1360,0L1360,0L1320,0L1320,0L1280,0L1280,0L1240,0L1240,0L1200,0L1200,0L1160,0L1160,0L1120,0L1120,0L1080,0L1080,0L1040,0L1040,0L1000,0L1000,0L960,0L960,0L920,0L920,0L880,0L880,0L840,0L840,0L800,0L800,0L760,0L760,0L720,0L720,0L680,0L680,0L640,0L640,0L600,0L600,0L560,0L560,0L520,0L520,0L480,0L480,0L440,0L440,0L400,0L400,0L360,0L360,0L320,0L320,0L280,0L280,0L240,0L240,0L200,0L200,0L160,0L160,0L120,0L120,0L80,0L80,0L40,0L40,0L0,0L0,0Z"></path></svg>